<?xml version="1.0" standalone="no"?>
<!DOCTYPE svg PUBLIC "-//W3C//DTD SVG 1.1//EN" "http://www.w3.org/Graphics/SVG/1.1/DTD/svg11.dtd" >
<svg>
<metadata>
Created by FontForge 20110222 at Thu Nov  7 23:34:28 2013
 By Orthosie Webhosting
Copyright (c) 2002, 2005 Parachute :, www.parachute.gr.  All rights reserved.
</metadata>
<defs>
<font id="PFDinDisplayProMediumItalic" horiz-adv-x="1818" >
  <font-face 
    font-family="PFDinDisplayProMediumItalic"
    font-weight="500"
    font-style="italic"
    font-stretch="normal"
    units-per-em="1000"
    panose-1="2 0 5 6 0 0 0 9 0 4"
    ascent="750"
    descent="-250"
    x-height="495"
    cap-height="689"
    bbox="-237 -292 1760 944"
    underline-thickness="50"
    underline-position="-50"
    slope="-12"
    unicode-range="U+0020-FB05"
  />
<missing-glyph horiz-adv-x="447" 
d="M0 700h447v-700h-447v700zM348 65l-125 226l-124 -226h249zM348 635h-250l125 -225zM65 129l121 221l-121 222v-443zM382 129v442l-121 -221z" />
    <glyph glyph-name="fj" unicode="fj" horiz-adv-x="497" 
d="M474 707q23 0 37 -14t14 -35q0 -15 -6.5 -28t-17 -23t-24 -16t-26.5 -6q-22 0 -36 14t-14 35q0 15 6.5 28t16.5 23t23 16t27 6zM369 629q-6 1 -12 1h-12q-26 0 -42.5 -5.5t-26.5 -15.5t-15 -24.5t-8 -33.5l-11 -55h244l-95 -519q-6 -34 -15.5 -64t-26.5 -52t-44.5 -34.5
t-70.5 -12.5q-30 0 -67 6l18 99q51 -5 73 12t30 60l79 416h-142l-85 -441q-8 -38 -18 -69.5t-29 -54.5t-49 -36t-77 -13q-17 0 -35 1t-40 6l18 92q8 -1 15.5 -1.5t15.5 -0.5q25 0 41.5 5.5t26.5 16t15.5 26.5t9.5 36l84 433h-66l17 89h66l13 64q7 36 17.5 66.5t30.5 53
t51 35.5t78 13q14 0 28 -1.5t31 -3.5z" />
    <glyph glyph-name="ffj" unicode="ffj" horiz-adv-x="752" 
d="M621 629q-7 1 -13 1h-11q-27 0 -43.5 -5.5t-26 -15.5t-14.5 -24.5t-9 -33.5l-10 -55h243l-94 -512q-6 -34 -15.5 -63.5t-26.5 -51.5t-44.5 -35t-70.5 -13q-14 0 -31 1.5t-36 5.5l18 98q51 -5 73 12t30 60l77 409h-141l-83 -434q-8 -38 -18 -70t-29 -55t-49 -36t-77 -13
q-30 0 -69 6l17 93q6 -1 13.5 -1.5t12.5 -0.5q25 0 41.5 5.5t27 16.5t16 26.5t9.5 35.5l82 427h-143l-89 -452q-7 -38 -17.5 -70t-29.5 -55t-49 -36t-77 -13q-16 0 -34.5 1.5t-39.5 5.5l17 92q9 -1 16.5 -1.5t14.5 -0.5q25 0 41.5 5.5t27 16.5t16 26.5t9.5 35.5l88 445h-67
l18 89h66l9 46q7 35 17.5 65.5t30.5 53t51 35.5t78 13q15 0 32 -1t35 -4l-17 -93q-8 1 -15.5 1h-14.5q-26 0 -42.5 -5.5t-26.5 -16t-15 -25t-9 -33.5l-7 -36h143l13 64q7 36 17.5 66.5t30 53t50.5 35.5t78 13q14 0 28.5 -1.5t31.5 -3.5zM725 707q23 0 37 -14t14 -35
q0 -15 -6.5 -28t-17 -23t-24 -16t-27.5 -6q-21 0 -35 14t-14 35q0 15 6 28t16.5 23t23.5 16t27 6z" />
    <glyph glyph-name="ff" unicode="ff" horiz-adv-x="580" 
d="M374 611q-8 1 -15.5 1h-14.5q-26 0 -42.5 -5.5t-26.5 -15.5t-15.5 -24.5t-8.5 -33.5l-7 -37h151l12 64q7 36 17.5 66.5t30.5 53t51 35.5t78 13q18 0 37.5 -2t41.5 -6l-18 -92q-11 2 -21.5 2h-19.5q-26 0 -42.5 -5.5t-26.5 -15.5t-15 -24.5t-8 -33.5l-11 -55h114l-17 -88
h-114l-77 -418q-8 -38 -18.5 -70t-29.5 -55t-49 -36t-77 -13q-16 0 -34.5 1.5t-39.5 5.5l18 92q8 -1 15.5 -1.5t14.5 -0.5q25 0 41.5 5.5t27 16.5t16 26.5t9.5 35.5l77 411h-151l-86 -444q-8 -38 -18 -69.5t-29 -54.5t-49 -36t-77 -13q-17 0 -35 1t-40 6l18 92
q8 -1 15.5 -1.5t15.5 -0.5q25 0 41.5 5.5t26.5 16t15.5 26.5t9.5 36l86 436h-67l18 88h66l9 46q7 36 17.5 66.5t30.5 53t51 35.5t78 13q30 0 68 -6z" />
    <glyph glyph-name="fi" unicode="fi" horiz-adv-x="522" 
d="M140 -34q-8 -38 -18 -69.5t-29 -54.5t-49 -36t-77 -13q-17 0 -35 1t-40 6l18 92q8 -1 15.5 -1.5t15.5 -0.5q25 0 41.5 5.5t26.5 16t15.5 26.5t9.5 36l84 433h-66l17 89h66l13 64q7 36 17.5 66.5t30.5 53t51 35.5t78 13q14 0 28 -1.5t31 -3.5l-15 -94q-6 1 -12 1h-12
q-26 0 -42.5 -5.5t-26.5 -15.5t-15 -24.5t-8 -33.5l-11 -55h246l-64 -330q-5 -24 -5 -38t5.5 -22t16.5 -11.5t28 -5.5l-20 -92h-18q-66 0 -98.5 35t-18.5 110l51 265h-140zM474 705q24 0 38.5 -16t11.5 -39q-3 -28 -25 -47.5t-48 -19.5q-23 0 -37.5 16.5t-11.5 39.5
q1 13 7.5 25t16.5 21t22.5 14.5t25.5 5.5z" />
    <glyph glyph-name="fl" unicode="fl" horiz-adv-x="539" 
d="M449 -3q-41 0 -67.5 9.5t-40 27.5t-15.5 44.5t4 59.5l95 495q-33 10 -71 10t-62.5 -18.5t-32.5 -59.5l-14 -68h110l-17 -89h-109l-85 -440q-8 -38 -18 -69.5t-29 -54.5t-49 -36t-76 -13q-17 0 -35.5 1t-39.5 6l18 92q8 -1 15.5 -1.5t14.5 -0.5q25 0 41.5 5.5t27 16
t16 26.5t9.5 36l84 432h-66l17 89h66l14 77q9 47 28.5 78.5t47 50.5t62.5 27t75 8q31 0 74.5 -6.5t101.5 -23.5l-106 -561q-7 -34 6.5 -44t56.5 -11l-18 -95h-33z" />
    <glyph glyph-name="ffi" unicode="ffi" horiz-adv-x="763" 
d="M388 496l12 64q7 35 18 65.5t31 53t50.5 35.5t77.5 13q14 0 28.5 -1t31.5 -3q-5 -24 -8 -47t-8 -47q-6 1 -12 1h-11q-27 0 -43.5 -5.5t-26 -16t-14.5 -25t-9 -33.5l-10 -54h243l-63 -331q-4 -20 -4 -37q0 -23 11.5 -30t37.5 -10q-5 -23 -10 -45.5t-10 -45.5h-18
q-57 0 -88 25t-31 78q0 33 8 73l45 234h-139l-74 -389q-8 -41 -17.5 -78.5t-28 -65.5t-50 -44.5t-83.5 -16.5q-16 0 -32.5 1t-36.5 4q4 23 8 46.5t9 46.5q7 -1 13.5 -1.5t11.5 -0.5q25 0 41.5 5.5t27 16.5t16 26.5t9.5 35.5q20 104 40 207t40 207h-145l-79 -411
q-7 -41 -16 -79t-28 -67t-51 -46t-84 -17q-17 0 -35.5 1.5t-39.5 5.5l18 92q8 -1 15.5 -1.5t14.5 -0.5q25 0 41 5.5t26.5 16.5t16 26.5t9.5 35.5q22 110 43.5 219t42.5 220h-66q5 23 9 44.5t8 44.5h66l9 45q7 35 18 65.5t30.5 53t50.5 35.5t78 13q15 0 31.5 -1t34.5 -4
q-4 -23 -8.5 -46.5t-8.5 -46.5q-8 1 -15.5 1h-13.5q-32 0 -50 -8t-27 -23t-13 -36t-9 -48h144zM724 706q23 0 37 -15t14 -42q-3 -27 -25.5 -46.5t-48.5 -19.5q-22 0 -36 14t-14 38q0 14 6.5 27t16.5 22.5t23 15.5t27 6z" />
    <glyph glyph-name="ffl" unicode="ffl" horiz-adv-x="806" 
d="M180 -88q6 -1 13.5 -1.5t12.5 -0.5q25 0 41.5 5.5t27 16.5t16 26.5t9.5 35.5l79 414h-152l-86 -446q-8 -38 -18 -69.5t-29 -54.5t-49 -36t-77 -13q-17 0 -35 1t-40 6l18 92q8 -1 15.5 -1.5t15.5 -0.5q25 0 41.5 5.5t26.5 16t15.5 26.5t9.5 36l86 438h-67l18 88h66l8 45
q7 35 18 65.5t30.5 53t50.5 35.5t78 13q15 0 32 -1t35 -4l-18 -93q-8 1 -15 1h-13q-27 0 -43.5 -5.5t-26.5 -16t-15 -25t-8 -33.5l-7 -35l152 1l15 77q9 47 28.5 78.5t47 50.5t62.5 27t75 8q30 0 74 -6.5t101 -23.5l-106 -561q-6 -34 7 -44t57 -11l-18 -95h-34
q-41 0 -67 9.5t-39.5 27.5t-16 44.5t3.5 59.5l96 495q-17 5 -35.5 7.5t-35.5 2.5q-39 0 -63 -18.5t-32 -59.5l-14 -68h110l-17 -89h-110l-81 -421q-7 -38 -17.5 -70t-29 -55t-48.5 -36t-77 -13q-30 0 -70 6z" />
    <glyph glyph-name="ft" unicode="ft" horiz-adv-x="597" 
d="M225 406q-19 -103 -39 -203.5t-40 -202.5q-8 -45 -17.5 -82.5t-28 -64.5t-50 -42.5t-82.5 -15.5q-21 1 -38.5 2.5t-35.5 4.5l17 92q18 -3 33 -3q41 0 62 21t29 64l84 430h-66l17 90h66q9 48 18.5 90.5t29 73.5t54.5 49t96 18q16 0 33 -2t37 -5l-18 -92q-11 2 -21.5 2
h-19.5q-35 0 -53 -10.5t-27 -29t-13 -43t-10 -51.5h146l43 118h82l-23 -118h122l-17 -90h-122l-43 -225q-7 -39 1.5 -62t52.5 -23q15 0 35 2t43 4l3 -91q-16 -5 -33.5 -8.5t-34 -5t-30.5 -2t-23 -0.5q-46 0 -73.5 12.5t-41 34t-14.5 51.5t6 66l48 247h-144z" />
    <glyph glyph-name=".notdef" horiz-adv-x="447" 
d="M0 700h447v-700h-447v700zM348 65l-125 226l-124 -226h249zM348 635h-250l125 -225zM65 129l121 221l-121 222v-443zM382 129v442l-121 -221z" />
    <glyph glyph-name=".null" horiz-adv-x="0" 
 />
    <glyph glyph-name="nonmarkingreturn" horiz-adv-x="333" 
 />
    <glyph glyph-name="space" unicode=" " horiz-adv-x="247" 
 />
    <glyph glyph-name="exclam" unicode="!" horiz-adv-x="251" 
d="M77 198l90 498h107l-105 -498h-92zM84 -6q-26 0 -41 15.5t-15 39.5q0 14 6 29t17 27t25.5 19.5t32.5 7.5q28 0 43 -15.5t15 -38.5q0 -17 -6.5 -32t-17.5 -26.5t-26 -18.5t-33 -7z" />
    <glyph glyph-name="quotedbl" unicode="&#x22;" horiz-adv-x="326" 
d="M281 696h85l-38 -200h-85zM149 696h86l-39 -200h-85z" />
    <glyph glyph-name="numbersign" unicode="#" horiz-adv-x="532" 
d="M406 288h91l-15 -79h-102l-69 -209h-90l70 209h-97l-69 -209h-90l70 209h-86l15 79h98l41 123h-87l15 78h98l70 206h86l-68 -206h99l69 206h86l-68 -206h91l-16 -78h-101zM220 288h98l41 123h-98z" />
    <glyph glyph-name="dollar" unicode="$" horiz-adv-x="517" 
d="M247 2q0 -24 -6.5 -51t-11.5 -51h-73l20 102q-54 4 -102 25.5t-86 60.5q17 20 34 40.5t34 40.5q37 -34 81.5 -52t92.5 -18q26 0 50 5.5t42.5 18t29.5 33.5t11 53q0 22 -8 35.5t-22.5 22.5t-34 15t-41.5 13q-24 8 -54.5 19t-57 30.5t-44.5 49.5t-18 76q0 50 18 88.5
t49 65.5t70.5 42t83.5 19q4 22 8 43.5t9 43.5h72l-18 -84q47 -3 89.5 -18t79.5 -45q-30 -42 -65 -86q-35 28 -76 38.5t-77 10.5q-20 0 -42.5 -6t-42 -19t-32.5 -33t-13 -47q0 -21 12.5 -36t31 -25.5t39.5 -17.5t38 -11q26 -6 56 -17t55 -30.5t41.5 -50.5t16.5 -77
q0 -47 -17.5 -85.5t-49 -66.5t-75.5 -44.5t-97 -19.5z" />
    <glyph glyph-name="percent" unicode="%" horiz-adv-x="825" 
d="M762 110q-11 -56 -50 -84.5t-99 -28.5q-24 0 -48 7t-43.5 21t-31.5 35t-12 50q0 6 0.5 12t1.5 12l31 164q11 55 44.5 87.5t102.5 32.5q60 0 97 -33.5t37 -84.5v-12t-2 -12zM710 280q1 4 1 12q0 24 -16.5 38t-39.5 14q-20 0 -38.5 -12.5t-23.5 -41.5l-29 -157
q-1 -4 -1 -7.5v-6.5q0 -28 18.5 -38.5t36.5 -10.5q20 0 39.5 12t24.5 41zM364 386q-11 -56 -50 -84.5t-99 -28.5q-24 0 -48 7t-43.5 21.5t-31.5 35.5t-12 50q0 6 0.5 12t1.5 12l31 163q11 56 44.5 88.5t102.5 32.5q61 0 97.5 -34t36.5 -85q0 -6 -0.5 -11.5t-1.5 -11.5z
M312 557q1 4 1 12q0 24 -16.5 37.5t-39.5 13.5q-20 0 -38.5 -12t-23.5 -41l-29 -157q-1 -4 -1 -7.5v-6.5q0 -28 18.5 -38.5t36.5 -10.5q20 0 39 11.5t25 40.5zM196 -17h-78l567 730h79z" />
    <glyph glyph-name="ampersand" unicode="&#x26;" horiz-adv-x="815" 
d="M524 810q75 0 131 -24t94 -64.5t57 -94.5t19 -114q0 -117 -55 -217.5t-147 -178.5q29 -32 61.5 -57.5t70.5 -42.5l-54 -75q-20 9 -42 22.5t-42.5 29.5t-39.5 33.5t-33 35.5q-45 -31 -106 -50.5t-118 -19.5q-80 0 -127 40t-47 116q0 43 15.5 80t42.5 68.5t63.5 58
t78.5 48.5q-26 54 -26 95q0 38 13.5 70.5t37.5 56.5t56.5 37.5t70.5 13.5q57 0 92 -32t35 -80q0 -35 -13 -63t-34.5 -51.5t-50 -43.5t-59.5 -37q22 -46 49.5 -95.5t59.5 -97.5q72 64 117 144t45 177q0 45 -11 87t-36.5 74.5t-67.5 52t-105 19.5q-73 0 -131.5 -21.5
t-100 -60.5t-64 -93t-22.5 -118q0 -12 1 -25.5t3 -28.5l-86 -19q-3 19 -4 36.5t-1 31.5q0 84 32.5 153.5t88.5 119t130.5 77t158.5 27.5zM482 594q-17 0 -29.5 -8t-21 -20t-12.5 -26t-4 -25q0 -16 6 -32.5t15 -36.5q39 20 67.5 43.5t28.5 58.5q0 20 -13.5 33t-36.5 13z
M499 124q-17 22 -33.5 49t-32 55t-28.5 54.5t-22 48.5q-32 -16 -58.5 -33t-46 -37t-30.5 -44t-11 -53q0 -45 28.5 -67.5t72.5 -22.5q36 0 77.5 12.5t83.5 37.5z" />
    <glyph glyph-name="quotesingle" unicode="'" horiz-adv-x="259" 
d="M185 696h85l-39 -200h-86z" />
    <glyph glyph-name="parenleft" unicode="(" horiz-adv-x="313" 
d="M180 -127q-52 73 -83.5 159t-31.5 178q0 78 23 151t62 139.5t89.5 126t105.5 109.5l51 -37q-47 -50 -88 -108.5t-71 -122.5t-47 -132.5t-17 -138.5q0 -72 18 -144.5t53 -137.5z" />
    <glyph glyph-name="parenright" unicode=")" horiz-adv-x="313" 
d="M-39 -85q46 49 86.5 107t71 121.5t48 131.5t17.5 137q0 73 -17 147t-54 140l65 37q52 -72 83 -156t31 -176q0 -79 -23.5 -152.5t-62.5 -141t-90.5 -127t-107.5 -110.5z" />
    <glyph glyph-name="asterisk" unicode="*" horiz-adv-x="395" 
d="M371 429q-5 -4 -15.5 -11t-22.5 -14.5t-22.5 -14t-16.5 -10.5l-41 104l-83 -104q-4 3 -12 10t-17 14.5t-17 14.5t-12 11l97 90l-107 29l38 77l102 -47l12 120h83l-35 -120q10 4 26 10t34 13t34 13.5t26 10.5q0 -6 1.5 -16.5t2.5 -22.5t2.5 -23t1.5 -16l-120 -28z" />
    <glyph glyph-name="plus" unicode="+" horiz-adv-x="517" 
d="M309 255l-37 -190h-84l37 190h-191l17 81h190l37 188h83l-36 -188h190l-16 -81h-190z" />
    <glyph glyph-name="comma" unicode="," horiz-adv-x="271" 
d="M2 -95q28 18 47.5 40.5t27.5 49.5q-18 2 -28.5 16t-10.5 34q0 32 21 57.5t59 25.5q32 0 49 -21t17 -52q0 -30 -12.5 -60t-34 -56.5t-49.5 -48t-58 -35.5z" />
    <glyph glyph-name="hyphen" unicode="-" horiz-adv-x="401" 
d="M70 311h301l-18 -94h-302z" />
    <glyph glyph-name="period" unicode="." horiz-adv-x="253" 
d="M86 -6q-26 0 -40.5 15.5t-14.5 39.5q0 14 6 29t16.5 27t25.5 19.5t33 7.5q28 0 43 -15.5t15 -38.5q0 -33 -24 -58.5t-60 -25.5z" />
    <glyph glyph-name="slash" unicode="/" horiz-adv-x="334" 
d="M28 -42h-82l400 767h83z" />
    <glyph glyph-name="zero" unicode="0" horiz-adv-x="517" 
d="M469 185q-9 -50 -30.5 -86t-52 -59t-69 -34t-81.5 -11q-35 0 -69.5 9.5t-62 30.5t-45 54t-17.5 80q0 27 6 57l59 283q19 90 76.5 138.5t153.5 48.5q34 0 68 -10t61.5 -31t44.5 -53t17 -77q0 -22 -4 -42zM419 487q2 6 2 12v11q0 22 -9 38t-22.5 26.5t-30 15t-32.5 4.5
q-45 0 -77 -26.5t-43 -84.5l-54 -277q-3 -14 -3 -27q0 -23 8.5 -39t22 -26t30 -14.5t32.5 -4.5q45 0 77 23.5t43 80.5z" />
    <glyph glyph-name="one" unicode="1" horiz-adv-x="517" 
d="M201 0l107 554l-95 -68l-43 77l172 126h98l-133 -689h-106z" />
    <glyph glyph-name="two" unicode="2" horiz-adv-x="517" 
d="M343 696q35 0 69 -8t61 -26.5t44 -48t17 -72.5q0 -42 -16.5 -78t-42.5 -66t-58.5 -54.5t-65.5 -43.5q-44 -26 -80 -50t-63 -48t-45 -50t-27 -56h311q-5 -24 -9 -48t-9 -47h-422q12 66 30 115.5t45 88.5t64.5 71t88.5 63q33 20 66.5 41t59.5 43.5t42.5 46.5t16.5 51
q0 38 -29.5 56t-69.5 18q-38 0 -76 -14t-70 -37l-22 42t-21 42q43 31 97.5 50t113.5 19z" />
    <glyph glyph-name="three" unicode="3" horiz-adv-x="517" 
d="M324 695q37 0 71 -8.5t59.5 -27t41 -48t15.5 -71.5q0 -63 -36 -112.5t-90 -75.5q35 -16 52 -48.5t17 -74.5q0 -60 -21 -104.5t-56.5 -73.5t-81.5 -43.5t-96 -14.5q-62 0 -115 19.5t-82 50.5q5 6 15 17.5t21 24.5t21.5 24.5t15.5 17.5q23 -23 58 -38t70 -15q70 0 106.5 34
t36.5 94q0 38 -24.5 60.5t-64.5 22.5h-75l18 93h75q19 0 41 8t40.5 23.5t30.5 37.5t12 50q0 22 -9.5 37t-24.5 24t-32.5 12.5t-32.5 3.5q-35 0 -72.5 -15t-69.5 -39l-48 85q41 31 96 50.5t118 19.5z" />
    <glyph glyph-name="four" unicode="4" horiz-adv-x="517" 
d="M411 103l-18 -103h-109l20 103h-294l16 88l322 498h114l-315 -491h175l39 202h108l-39 -202h58l-18 -95h-59z" />
    <glyph glyph-name="five" unicode="5" horiz-adv-x="517" 
d="M468 181q-19 -99 -81.5 -142.5t-159.5 -43.5q-63 0 -115.5 21.5t-84.5 50.5l68 84q30 -29 66 -42t72 -13q48 0 82.5 22.5t44.5 76.5l15 83q3 13 3 24q0 31 -17 45.5t-45 14.5q-15 0 -33.5 -5t-37.5 -13t-36.5 -17.5t-29.5 -17.5l-88 45l64 335h387l-18 -98h-279l-32 -166
q41 22 75 33.5t61 11.5q68 0 104.5 -37.5t36.5 -98.5q0 -11 -1.5 -22t-3.5 -23l-17 -108v0z" />
    <glyph glyph-name="six" unicode="6" horiz-adv-x="517" 
d="M465 180q-9 -48 -30.5 -83t-52.5 -57.5t-69.5 -33.5t-83.5 -11q-36 0 -69.5 10.5t-59 31t-41 50.5t-15.5 70q0 22 4 41l60 311q17 91 81 139t158 48q63 0 112 -19t78 -51l-69 -86q-26 28 -58.5 41t-68.5 13q-20 0 -40.5 -5.5t-38.5 -18t-31.5 -32t-18.5 -47.5l-18 -94
q53 25 89.5 36.5t64.5 11.5q68 0 103 -37t35 -97q0 -11 -1.5 -23t-3.5 -24zM372 255q3 15 3 26q0 32 -18 46.5t-44 14.5q-30 0 -64 -14t-75 -34l-19 -95q-1 -6 -1.5 -12t-0.5 -12q0 -21 7.5 -36t20 -24.5t28 -14t31.5 -4.5q45 0 77.5 24t43.5 79z" />
    <glyph glyph-name="seven" unicode="7" horiz-adv-x="517" 
d="M183 0h-115l356 592h-198l-19 -102h-101l38 199h419l-17 -92z" />
    <glyph glyph-name="eight" unicode="8" horiz-adv-x="517" 
d="M344 695q34 0 67 -10t59 -31t41.5 -52.5t15.5 -73.5q0 -65 -28 -109.5t-77 -67.5q32 -15 49 -47.5t17 -72.5q0 -59 -22.5 -103t-58.5 -74t-82 -45t-94 -15q-39 0 -74 10t-61.5 30.5t-42 51.5t-15.5 73q0 38 11 69t28.5 55.5t40.5 41.5t47 27q-26 17 -42 47t-16 66
q0 58 20.5 101t54.5 71.5t76 43t86 14.5zM335 595q-22 0 -43.5 -7.5t-39 -22.5t-28 -37t-10.5 -51q0 -38 25 -59t60 -21q21 0 42.5 8t39 22.5t28.5 35.5t11 47q0 41 -25.5 63t-59.5 22zM282 295q-24 0 -47 -8.5t-42 -24.5t-30.5 -39t-11.5 -51q0 -38 25.5 -57t64.5 -19
q27 0 50.5 8t41.5 23.5t28.5 38t10.5 51.5q0 36 -26 57t-64 21z" />
    <glyph glyph-name="nine" unicode="9" horiz-adv-x="517" 
d="M104 512q9 45 30.5 79.5t52.5 58t70 35t82 11.5q37 0 71 -10t60 -30t42 -49t16 -67q0 -19 -4 -36l-63 -323q-19 -97 -79.5 -141.5t-157.5 -44.5q-64 0 -113 19.5t-81 51.5l71 84q53 -52 125 -52q22 0 43 5.5t38.5 17.5t30 31.5t18.5 47.5l19 96q-53 -24 -89 -35.5
t-65 -11.5q-68 0 -103 37.5t-35 97.5q0 11 1.5 22.5t3.5 23.5zM197 439q-3 -14 -3 -26q0 -32 18 -46.5t44 -14.5q30 0 64 14t75 33l18 93q3 13 3 25q0 21 -7.5 36t-20 24t-28 13.5t-31.5 4.5q-41 0 -76 -24t-46 -79z" />
    <glyph glyph-name="colon" unicode=":" horiz-adv-x="282" 
d="M154 288q-26 0 -40.5 14t-14.5 37q0 16 6 31.5t16.5 28t25.5 20t33 7.5q28 0 43 -16t15 -39q0 -16 -6.5 -31t-17.5 -26.5t-26.5 -18.5t-33.5 -7zM98 -6q-26 0 -41 15.5t-15 39.5q0 14 6 29t16.5 27t25.5 19.5t33 7.5q28 0 43 -15.5t15 -38.5q0 -17 -6.5 -32t-17.5 -26.5
t-26 -18.5t-33 -7z" />
    <glyph glyph-name="semicolon" unicode=";" horiz-adv-x="271" 
d="M151 288q-26 0 -41 15t-15 38q0 15 6 30.5t16.5 27.5t26 19.5t33.5 7.5q26 0 42 -15.5t16 -38.5q0 -33 -24 -58.5t-60 -25.5zM-5 -95q29 18 48 40.5t27 49.5q-18 3 -28 15.5t-10 32.5q0 16 6 31t17 27t26.5 19.5t33.5 7.5q32 0 47 -18t15 -45q0 -33 -13 -64.5
t-34.5 -59.5t-49 -50.5t-57.5 -35.5z" />
    <glyph glyph-name="less" unicode="&#x3c;" horiz-adv-x="517" 
d="M44 257l15 78l482 209l-18 -94l-365 -158l305 -157l-18 -87z" />
    <glyph glyph-name="equal" unicode="=" horiz-adv-x="517" 
d="M54 357l16 82h465l-16 -82h-465zM15 153l16 81h465l-16 -81h-465z" />
    <glyph glyph-name="greater" unicode="&#x3e;" horiz-adv-x="517" 
d="M17 48l17 94l365 157l-304 158l18 87l401 -209l-15 -78z" />
    <glyph glyph-name="question" unicode="?" horiz-adv-x="474" 
d="M317 700q38 0 70 -11t55 -31.5t36 -48.5t13 -61q0 -43 -23 -78.5t-55 -72.5q-18 -21 -36.5 -40t-34.5 -38.5t-28.5 -40.5t-17.5 -47l-7 -35h-108l6 34q6 31 17.5 56.5t28 48t36.5 44.5t42 45q23 24 40.5 51t17.5 56q0 32 -20.5 50t-60.5 18q-35 0 -71 -13.5t-68 -36.5
l-39 87q49 34 101 49t106 15zM200 -6q-26 0 -41 15.5t-15 39.5q0 15 6 30t17 26.5t26 19t33 7.5q27 0 42.5 -16t15.5 -38q0 -17 -6.5 -32t-18 -26.5t-26.5 -18.5t-33 -7z" />
    <glyph glyph-name="at" unicode="@" horiz-adv-x="849" 
d="M384 162q-54 0 -83 28.5t-29 78.5q0 16 3 34l21 118q13 69 52.5 105.5t103.5 36.5q21 0 48.5 -10t65.5 -33l17 38h74l-54 -276q-1 -5 -1 -15q0 -19 10 -31t33 -12q18 0 40 11.5t41 36t32 63.5t13 95q0 48 -17 89.5t-49.5 71.5t-78.5 47.5t-104 17.5q-83 0 -151.5 -28.5
t-117 -76.5t-75.5 -111.5t-27 -134.5q0 -54 15 -98t46 -75t77.5 -48t108.5 -17q28 0 60.5 6t74.5 21l19 -72q-45 -18 -86.5 -24t-79.5 -6q-74 0 -132 22.5t-98.5 63t-62 97.5t-21.5 125q0 90 33 168.5t93 136t143 91t182 33.5q79 0 140 -22.5t102.5 -61.5t63 -92t21.5 -114
q0 -66 -16.5 -120t-45.5 -92t-70.5 -58.5t-90.5 -20.5q-15 0 -31 3.5t-30 10.5t-25 18t-16 26q-35 -17 -73 -30.5t-68 -13.5zM361 313q-1 -6 -1.5 -11.5t-0.5 -10.5q0 -26 13 -37.5t36 -11.5q22 0 51 12.5t60 28.5l32 163q-11 7 -23.5 14t-26 13t-26 9.5t-22.5 3.5
q-26 0 -46.5 -18t-27.5 -56z" />
    <glyph glyph-name="A" unicode="A" horiz-adv-x="617" 
d="M426 149h-256l-77 -149h-123l372 689h116l106 -689h-120zM222 248h190l-17 135l-19 160h-4l-77 -154z" />
    <glyph glyph-name="B" unicode="B" horiz-adv-x="608" 
d="M437 689q46 0 79.5 -13t55.5 -35.5t32.5 -52t10.5 -62.5q0 -54 -28 -97t-88 -72q40 -22 53.5 -59t13.5 -76q0 -43 -15.5 -83t-45 -71t-72 -49.5t-95.5 -18.5h-320l134 689h285zM211 404h162q27 0 49.5 9t38 23.5t24.5 33t9 37.5q0 40 -24.5 59.5t-66.5 19.5h-156z
M152 102h162q28 0 52.5 8t42.5 23t28 37t10 49q0 41 -24.5 62.5t-66.5 21.5h-164z" />
    <glyph glyph-name="C" unicode="C" horiz-adv-x="548" 
d="M521 539q-24 25 -65 39t-78 14q-64 0 -105 -34.5t-56 -111.5l-40 -202q-3 -18 -3 -35q0 -29 10.5 -49.5t28 -34t40.5 -20t49 -6.5q37 0 81.5 13t78.5 39l48 -94q-44 -32 -104.5 -48t-118.5 -16q-44 0 -85 12.5t-73 37.5t-51.5 62t-19.5 86q0 12 1.5 24t3.5 26l45 231
q21 108 88 166t187 58q58 0 114 -18t93 -51z" />
    <glyph glyph-name="D" unicode="D" horiz-adv-x="617" 
d="M565 223q-22 -109 -83 -166t-173 -57h-287l134 689h250q44 0 81.5 -12t65.5 -35t43.5 -56.5t15.5 -76.5q0 -12 -1.5 -24t-3.5 -25zM492 445q4 19 4 38q0 56 -35 79.5t-86 23.5h-125l-94 -485h146q25 0 49 7t44 23t35 43t23 68z" />
    <glyph glyph-name="E" unicode="E" horiz-adv-x="568" 
d="M157 689h457l-20 -103h-343l-36 -189h301l-20 -103h-302l-37 -192h370l-20 -102h-484z" />
    <glyph glyph-name="F" unicode="F" horiz-adv-x="546" 
d="M214 395h302l-20 -103h-302l-57 -292h-114l134 689h460l-19 -103h-347z" />
    <glyph glyph-name="G" unicode="G" horiz-adv-x="594" 
d="M514 78q-27 -25 -56.5 -41.5t-59.5 -26t-60 -13.5t-58 -4q-45 0 -85 13.5t-70.5 39.5t-48 63.5t-17.5 84.5q0 13 1.5 25.5t3.5 26.5l44 227q10 54 35.5 95.5t62.5 70t84.5 43t101.5 14.5q29 0 58.5 -4t57 -12t51 -20.5t40.5 -28.5l-68 -89q-24 25 -63 37t-76 12
q-30 0 -58 -8t-51 -25t-40.5 -44t-24.5 -65l-40 -202q-2 -10 -3 -19.5t-1 -17.5q0 -29 10 -50.5t26.5 -35t38.5 -20t45 -6.5q21 0 50.5 6.5t64.5 29.5l27 137h-105l19 102h219z" />
    <glyph glyph-name="H" unicode="H" horiz-adv-x="620" 
d="M419 0l58 298h-289l-58 -298h-114l134 689h114l-56 -288h289l56 288h116l-134 -689h-116z" />
    <glyph glyph-name="I" unicode="I" horiz-adv-x="273" 
d="M288 689l-134 -689h-114l134 689h114z" />
    <glyph glyph-name="J" unicode="J" horiz-adv-x="528" 
d="M452 219q-21 -109 -85 -167.5t-179 -58.5q-59 0 -115 16t-87 45l64 87q30 -24 70.5 -33t70.5 -9q28 0 52.5 7.5t44 24.5t33.5 45t22 69l86 444h115l-92 -470v0z" />
    <glyph glyph-name="K" unicode="K" horiz-adv-x="600" 
d="M313 331l-145 -139l-37 -192h-115l134 689h114l-64 -333l340 333h136l-279 -275l164 -414h-122z" />
    <glyph glyph-name="L" unicode="L" horiz-adv-x="546" 
d="M24 0l134 689h114l-115 -587h355l-20 -102h-468z" />
    <glyph glyph-name="M" unicode="M" horiz-adv-x="763" 
d="M386 250q28 40 53.5 80t52.5 79q34 49 60.5 88.5t49 72.5t42 62t38.5 57h110l-131 -689h-114l81 420h-4q-4 -6 -20.5 -30t-39 -56.5t-48.5 -70t-49.5 -71.5t-41.5 -59.5t-24 -34.5h-83l-101 321h-5l-80 -419h-114l132 689h101q4 -14 14.5 -48.5t24 -79.5t28 -95t27.5 -94
t22.5 -77.5t12.5 -44.5h6z" />
    <glyph glyph-name="N" unicode="N" horiz-adv-x="660" 
d="M483 204q23 122 46 242.5t46 242.5h113l-131 -689h-107q-6 14 -23 50t-39 84t-46.5 101.5t-47 102.5t-40 87.5t-24.5 55.5h-6l-92 -481h-113l131 689h106q6 -13 23 -49.5t39.5 -85.5t47.5 -104.5t47.5 -105t39.5 -87.5t24 -53h6z" />
    <glyph glyph-name="O" unicode="O" horiz-adv-x="622" 
d="M576 216q-20 -106 -90.5 -164.5t-191.5 -58.5q-45 0 -87.5 13.5t-75 40.5t-52 66.5t-19.5 91.5q0 27 6 57l41 211q21 108 91 165.5t185 57.5q49 0 93 -15t76 -42t51 -65.5t19 -85.5q0 -11 -1 -22t-3 -23zM504 438q2 9 3 17t1 16q0 30 -11 52.5t-29 37.5t-41 22.5t-48 7.5
q-62 0 -105 -33.5t-57 -108.5l-38 -199q-4 -19 -4 -38q0 -30 10 -51.5t27 -35.5t39 -20.5t46 -6.5q72 0 113.5 38t56.5 114z" />
    <glyph glyph-name="P" unicode="P" horiz-adv-x="562" 
d="M203 372h153q28 0 52 9.5t42 26t28 39t10 49.5q0 41 -25 65.5t-70 24.5h-149zM429 689q43 0 75 -15.5t53.5 -41.5t32 -59.5t10.5 -68.5q0 -40 -15 -81.5t-45 -76t-73.5 -56.5t-100.5 -22h-184l-52 -268h-114l134 689h279z" />
    <glyph glyph-name="Q" unicode="Q" horiz-adv-x="639" 
d="M576 216q-20 -104 -86.5 -162t-180.5 -60l-5 -32q-1 -5 -1.5 -9.5t-0.5 -8.5q0 -20 16 -28t63 -9l-15 -86q-8 -1 -16 -1.5t-16 -0.5q-68 0 -102.5 28t-34.5 78q0 8 1 17.5t3 19.5l10 43q-32 10 -59.5 27.5t-48 42.5t-32 57.5t-11.5 72.5q0 27 6 57l41 211
q21 108 90 165.5t184 57.5q49 0 93 -15t77 -42t52 -65.5t19 -86.5q0 -11 -1 -22t-3 -22zM504 438q3 18 3 32q0 30 -11 52.5t-29.5 38t-42 23t-47.5 7.5q-66 0 -106 -33.5t-54 -108.5l-38 -199q-2 -11 -3 -21t-1 -19q0 -59 36 -85.5t88 -26.5q76 0 114.5 38t53.5 114z" />
    <glyph glyph-name="R" unicode="R" horiz-adv-x="583" 
d="M440 689q43 0 74.5 -15t52 -39.5t30.5 -56.5t10 -65q0 -31 -8 -63t-26.5 -62t-48.5 -56t-74 -44l70 -288h-123q-15 67 -29.5 134t-28.5 134h-155q-14 -67 -26.5 -134t-25.5 -134h-115l134 689h289zM246 585l-42 -213h157q28 0 52 9.5t42 26t28 40t10 51.5q0 39 -23 62.5
t-68 23.5h-156z" />
    <glyph glyph-name="S" unicode="S" horiz-adv-x="569" 
d="M360 702q61 0 118.5 -14t103.5 -47l-58 -92q-36 26 -79 37.5t-87 11.5q-23 0 -47.5 -6.5t-44.5 -19.5t-33.5 -34t-13.5 -49q0 -22 11.5 -37t29.5 -25.5t39.5 -17t41.5 -10.5q46 -11 83.5 -25t64.5 -34.5t41.5 -50.5t14.5 -72q0 -52 -23 -93t-62.5 -70t-91.5 -44.5
t-109 -15.5q-75 0 -137.5 22t-110.5 70q5 5 15 16.5t20.5 24t20.5 24t15 16.5q35 -32 82 -50t100 -18q74 0 116 32.5t42 80.5q0 22 -11.5 36.5t-30.5 24.5t-42 17t-47 13q-36 8 -70.5 20.5t-60.5 32.5t-42 49.5t-16 71.5q0 51 19.5 92.5t54 70.5t81.5 45.5t103 16.5z" />
    <glyph glyph-name="T" unicode="T" horiz-adv-x="524" 
d="M397 585l-113 -585h-115l113 585h-190l20 104h496l-20 -104h-191z" />
    <glyph glyph-name="U" unicode="U" horiz-adv-x="622" 
d="M576 218q-11 -54 -36.5 -96t-63 -70.5t-85.5 -43t-104 -14.5q-45 0 -87 12t-73.5 37t-50.5 62t-19 87q0 13 1 26.5t4 27.5l86 443h115l-88 -446q-3 -18 -3 -34q0 -30 11 -51.5t28 -35t39 -19.5t43 -6q29 0 57 8t51 25.5t40 45t25 67.5l86 446h116l-92 -471v0z" />
    <glyph glyph-name="V" unicode="V" horiz-adv-x="584" 
d="M285 171l103 213q37 78 75 152.5t76 152.5h126l-352 -689h-120l-88 689h119q7 -59 14.5 -116.5t12.5 -116.5q7 -79 14 -146t14 -139h6z" />
    <glyph glyph-name="W" unicode="W" horiz-adv-x="885" 
d="M491 490l-90 -206l-126 -284h-126l-45 689h117l12 -295l7 -220h6l97 222l129 293h118l18 -305l10 -210h6l89 212l129 303h120l-310 -689h-126l-18 286l-10 204h-7z" />
    <glyph glyph-name="X" unicode="X" horiz-adv-x="572" 
d="M303 261l-197 -261h-135l282 353l-136 336h127l87 -243l180 243h135l-267 -336l151 -353h-129z" />
    <glyph glyph-name="Y" unicode="Y" horiz-adv-x="547" 
d="M301 378l97 151l104 160h126l-288 -422l-51 -267h-114l51 267l-127 422h118l46 -179l33 -132h5z" />
    <glyph glyph-name="Z" unicode="Z" horiz-adv-x="531" 
d="M15 99l420 487h-312l20 103h449l-18 -96l-425 -491h329l-20 -102h-462z" />
    <glyph glyph-name="bracketleft" unicode="[" horiz-adv-x="273" 
d="M10 -102l155 800h185l-14 -72h-91l-128 -656h92l-14 -72h-185z" />
    <glyph glyph-name="backslash" unicode="\" horiz-adv-x="334" 
d="M94 725h84l102 -767h-83z" />
    <glyph glyph-name="bracketright" unicode="]" horiz-adv-x="273" 
d="M-36 -102l14 72h91l127 656h-91l14 72h185l-156 -800h-184z" />
    <glyph glyph-name="asciicircum" unicode="^" horiz-adv-x="517" 
d="M429 298l-90 295l-204 -296h-95l278 398h77l121 -397h-87z" />
    <glyph glyph-name="underscore" unicode="_" horiz-adv-x="493" 
d="M-67 -139l14 70h493l-14 -70h-493z" />
    <glyph glyph-name="grave" unicode="`" horiz-adv-x="499" 
d="M350 548l-156 172l86 35l119 -177z" />
    <glyph glyph-name="a" unicode="a" horiz-adv-x="513" 
d="M66 322q17 88 65 133.5t131 45.5q26 0 61.5 -9.5t82.5 -38.5l19 42h96l-97 -495h-96l-1 46q-31 -15 -55 -25t-43 -15.5t-34 -8t-28 -2.5q-66 0 -100.5 34t-34.5 96q0 20 5 48zM146 187q-3 -17 -3 -30q0 -32 16.5 -45.5t43.5 -13.5t65 15t80 36l39 210q-24 18 -57.5 30.5
t-65.5 12.5q-33 0 -58 -21t-35 -70z" />
    <glyph glyph-name="b" unicode="b" horiz-adv-x="511" 
d="M462 184q-20 -102 -77.5 -145.5t-151.5 -43.5q-17 0 -41.5 2.5t-53.5 9.5t-60.5 18t-61.5 28l128 663h107l-52 -267q57 32 95.5 42t64.5 10q69 0 102 -33.5t33 -93.5q0 -25 -6 -53zM380 310q3 16 3 29q0 34 -17.5 47.5t-43.5 13.5q-27 0 -65.5 -15t-77.5 -39l-45 -228
q29 -15 58.5 -21.5t55.5 -6.5q43 0 70.5 24t36.5 71z" />
    <glyph glyph-name="c" unicode="c" horiz-adv-x="439" 
d="M407 56q-44 -35 -91.5 -48t-95.5 -13q-36 0 -68 10t-56.5 29.5t-39 49t-14.5 68.5q0 22 4 41l24 130q17 88 74 133t145 45q22 0 46 -3.5t46 -11.5t41.5 -21.5t34.5 -33.5l-67 -75q-25 30 -54.5 39t-49.5 9q-44 0 -74 -24.5t-41 -78.5l-21 -106q-1 -6 -1.5 -12t-0.5 -12
q0 -21 7.5 -36t20 -24t28 -13.5t31.5 -4.5q22 0 52.5 9t59.5 34l60 -80v0z" />
    <glyph glyph-name="d" unicode="d" horiz-adv-x="513" 
d="M67 323q16 83 71 130.5t136 47.5q26 0 61.5 -5.5t74.5 -22.5l48 243h105l-138 -716h-96l-1 49q-54 -32 -93 -43t-66 -11q-64 0 -100 32.5t-36 95.5q0 12 1.5 24.5t3.5 26.5zM146 182q-3 -15 -3 -28q0 -32 17 -45.5t45 -13.5q13 0 30 3.5t36 10t38.5 16t37.5 20.5l44 227
q-33 14 -62 21.5t-56 7.5q-35 0 -63.5 -21t-39.5 -71z" />
    <glyph glyph-name="e" unicode="e" horiz-adv-x="482" 
d="M289 501q88 0 131 -39.5t43 -96.5q0 -36 -15.5 -67t-48.5 -53.5t-85.5 -35.5t-127.5 -13h-21.5t-21.5 1q-2 -8 -3 -15.5t-1 -14.5q0 -38 25.5 -58.5t67.5 -20.5q26 0 55 10.5t56 36.5q15 -20 30.5 -39.5t29.5 -39.5q-47 -37 -94 -49t-94 -12q-81 0 -131.5 40.5
t-50.5 121.5q0 64 14 126t44.5 110.5t79.5 78t118 29.5zM283 406q-54 0 -83 -33.5t-43 -91.5q11 -1 21.5 -1h19.5q49 0 79 6.5t46.5 17t22 23.5t5.5 25q0 24 -15 39t-53 15z" />
    <glyph glyph-name="f" unicode="f" horiz-adv-x="323" 
d="M119 408h-66l17 88h66l13 64q7 36 17.5 66.5t30.5 53t51 35.5t78 13q17 0 36.5 -2t42.5 -6l-18 -92q-11 2 -21.5 2h-19.5q-26 0 -42.5 -5.5t-26.5 -15.5t-15 -24.5t-8 -33.5l-11 -55h114l-17 -88h-114l-86 -440q-8 -38 -18 -69.5t-28.5 -54.5t-48.5 -36t-77 -13
q-17 0 -35 1t-40 6l18 92q8 -1 15.5 -1.5t15.5 -0.5q25 0 41.5 5.5t26.5 16t15.5 26.5t9.5 36z" />
    <glyph glyph-name="g" unicode="g" horiz-adv-x="507" 
d="M417 -29q-35 -178 -240 -178q-24 0 -50 5t-50.5 14.5t-45.5 23.5t-35 32l73 68q9 -12 23.5 -20.5t30 -14.5t31.5 -8.5t28 -2.5q22 0 43 5t38.5 16.5t31 31.5t19.5 50l12 57q-57 -34 -95.5 -42.5t-64.5 -8.5q-69 0 -101.5 33.5t-32.5 93.5q0 13 1.5 26t3.5 27l25 134
q19 101 77 145t150 44q16 0 41 -3t54.5 -9.5t61 -18t61.5 -28.5zM145 189q-3 -17 -3 -29q0 -33 17.5 -46.5t43.5 -13.5q27 0 65.5 13.5t77.5 39.5l44 226q-29 14 -58.5 20.5t-55.5 6.5q-87 0 -107 -95z" />
    <glyph glyph-name="h" unicode="h" horiz-adv-x="513" 
d="M324 0l60 309q3 16 3 29q0 34 -18 47.5t-45 13.5t-63.5 -13t-79.5 -41l-67 -345h-106l140 716h106l-53 -268q31 18 56 28.5t44.5 16t35 7t28.5 1.5q65 0 99 -34t34 -94q0 -11 -1 -23.5t-4 -26.5l-62 -323h-107z" />
    <glyph glyph-name="i" unicode="i" horiz-adv-x="267" 
d="M148 637q5 26 25.5 43.5t45.5 17.5q23 0 37 -14t14 -35q0 -15 -6.5 -28t-17 -23t-23.5 -16t-27 -6q-22 0 -35.5 14t-13.5 35q0 8 1 12zM235 496l-64 -329q-2 -11 -3.5 -19.5t-0.5 -15.5q0 -25 12.5 -32.5t36.5 -9.5l-20 -92h-18q-57 0 -89 25t-32 79q0 21 4 41l68 353
h106z" />
    <glyph glyph-name="j" unicode="j" horiz-adv-x="257" 
d="M135 -49q-6 -34 -15.5 -63.5t-26.5 -51.5t-44.5 -35t-70.5 -13q-14 0 -31 1.5t-36 5.5l18 98q51 -5 73 12t30 60l103 531h105zM223 698q23 0 37.5 -14t14.5 -35q0 -15 -6.5 -28t-17 -22.5t-24 -15.5t-27.5 -6q-21 0 -35.5 14t-14.5 35q0 14 6.5 27t16.5 23t23 16t27 6z
" />
    <glyph glyph-name="k" unicode="k" horiz-adv-x="491" 
d="M20 0l136 716h105l-73 -379h58q29 0 54.5 11.5t45.5 48.5l55 99h118l-70 -124q-17 -29 -36.5 -52.5t-53.5 -33.5q19 -7 30.5 -17.5t17.5 -24t9 -29t5 -31.5l25 -184h-107l-20 160q-5 44 -22 60t-55 16h-73l-45 -236h-104z" />
    <glyph glyph-name="l" unicode="l" horiz-adv-x="258" 
d="M168 -3q-66 0 -95 24t-29 72q0 10 1.5 21.5t3.5 23.5l111 578h104l-108 -569q-1 -6 -1.5 -10.5t-0.5 -9.5q0 -21 15.5 -27.5t50.5 -7.5l-18 -95h-34z" />
    <glyph glyph-name="m" unicode="m" horiz-adv-x="774" 
d="M585 0l61 311q3 12 3 24q0 28 -15.5 46t-45.5 18q-23 0 -52 -9.5t-68 -35.5q0 -11 -3 -28.5t-5 -28.5l-57 -297h-106l60 309q3 13 3 26q0 26 -13 44t-43 18q-21 0 -50.5 -12t-74.5 -43q-17 -86 -33 -171t-33 -171h-107l96 495h97v-49q31 21 53 32t38.5 16t29.5 6t27 1
q42 0 67.5 -16t40.5 -45q61 37 101.5 49t69.5 12q35 0 60.5 -10.5t41.5 -28.5t23.5 -42t7.5 -52q0 -11 -1.5 -23t-3.5 -24l-62 -321h-107z" />
    <glyph glyph-name="n" unicode="n" horiz-adv-x="513" 
d="M324 0l60 309q3 16 3 30q0 33 -17.5 46.5t-45.5 13.5q-55 0 -143 -54l-67 -345h-106l97 495h95l1 -47q34 19 59 29.5t44 15.5t33.5 6.5t27.5 1.5q65 0 99 -33.5t34 -93.5q0 -11 -1 -23.5t-4 -26.5l-62 -324h-107z" />
    <glyph glyph-name="o" unicode="o" horiz-adv-x="513" 
d="M464 172q-19 -95 -78 -136t-146 -41q-36 0 -71 10.5t-62 32t-43.5 54t-16.5 77.5q0 11 1 22t3 23l19 104q17 89 72 136t151 47q45 0 81 -13.5t61.5 -37.5t39.5 -56.5t14 -70.5q0 -22 -4 -41zM380 282q3 15 3 29q0 45 -27.5 68.5t-67.5 23.5q-43 0 -73.5 -22.5
t-41.5 -79.5l-17 -94q-2 -8 -2 -14.5v-12.5q0 -24 8 -40.5t21 -27t29 -15t32 -4.5q20 0 38.5 4.5t34 15.5t27.5 31t18 51z" />
    <glyph glyph-name="p" unicode="p" horiz-adv-x="509" 
d="M462 172q-16 -83 -66 -130.5t-142 -47.5q-26 0 -60 5t-76 25l-43 -222h-105l134 693h96v-49q57 31 95.5 42.5t64.5 11.5q64 0 100.5 -30.5t36.5 -95.5q0 -23 -6 -53zM382 312q4 16 4 31q0 32 -17.5 44t-44.5 12q-13 0 -30.5 -4t-36.5 -11t-38.5 -16t-37.5 -19l-43 -226
q38 -18 64.5 -23.5t53.5 -5.5q35 0 63 18.5t38 69.5z" />
    <glyph glyph-name="q" unicode="q" horiz-adv-x="505" 
d="M281 -198l47 244q-29 -17 -53 -27.5t-43.5 -15.5t-35 -6.5t-28.5 -1.5q-69 0 -101.5 33.5t-32.5 93.5q0 13 1.5 26t3.5 27l26 138q19 101 75 145t154 44q16 0 41 -3t53.5 -9.5t60 -18t61.5 -28.5l-122 -641h-107zM147 185q-3 -15 -3 -28q0 -34 17.5 -47.5t43.5 -13.5
q27 0 66 14t77 39l44 230q-28 14 -57.5 20.5t-55.5 6.5q-42 0 -70.5 -23.5t-37.5 -71.5z" />
    <glyph glyph-name="r" unicode="r" horiz-adv-x="347" 
d="M379 389q-68 -10 -113.5 -23t-77.5 -31l-64 -335h-106l96 496h94l-3 -71h1q16 13 37.5 26.5t46.5 24.5t52 18t53 8z" />
    <glyph glyph-name="s" unicode="s" horiz-adv-x="460" 
d="M275 500q57 0 102.5 -11.5t82.5 -43.5q-14 -20 -29.5 -40t-29.5 -40q-32 24 -64 33t-67 9q-45 0 -68.5 -19.5t-23.5 -42.5q0 -11 7 -19t18 -14t25 -9.5t28 -6.5q24 -4 53 -10.5t54.5 -20.5t42.5 -37.5t17 -61.5q0 -43 -18 -75t-48.5 -53.5t-70.5 -32t-85 -10.5
q-54 0 -104 13t-95 55q32 40 64 76q32 -31 67.5 -42.5t77.5 -11.5q43 0 72.5 19t29.5 51q0 21 -18 31.5t-44.5 17.5t-58 13.5t-58 19.5t-44.5 36t-18 62q0 43 18.5 74t47.5 51t65 30t72 10z" />
    <glyph glyph-name="t" unicode="t" horiz-adv-x="364" 
d="M67 406l17 90h68l43 118h82l-23 -118h122l-17 -90h-122l-43 -225q-2 -10 -2.5 -18.5t-1.5 -16.5q0 -23 12.5 -36.5t45.5 -13.5q15 0 35 2t43 4l3 -91q-16 -5 -33.5 -8.5t-34 -5t-30.5 -2t-23 -0.5q-36 0 -61 7.5t-40 22t-21.5 34.5t-6.5 45t6 55l48 247h-66z" />
    <glyph glyph-name="u" unicode="u" horiz-adv-x="516" 
d="M210 495l-61 -309q-3 -15 -3 -28q0 -33 17.5 -47t43.5 -14q27 0 64 14t82 42l67 342h106l-96 -495h-96l-2 48q-30 -18 -54.5 -29t-44.5 -16.5t-36 -7t-29 -1.5q-66 0 -99.5 35.5t-33.5 95.5q0 12 1.5 24.5t3.5 26.5l63 319h107z" />
    <glyph glyph-name="v" unicode="v" horiz-adv-x="470" 
d="M219 138l117 219q11 21 18.5 36.5t12.5 29.5t7 27.5t2 28.5v18h109v-17q0 -45 -12 -77.5t-34 -69.5l-195 -333h-103l-83 495h114q1 -6 4.5 -34t8 -60t8 -59.5t3.5 -33.5q1 -4 2.5 -17.5t3.5 -30.5t4 -37t4 -37t3.5 -30.5t1.5 -17.5h4z" />
    <glyph glyph-name="w" unicode="w" horiz-adv-x="705" 
d="M507 0h-99q-11 75 -20.5 150t-19.5 150q-1 0 -2 0.5t-2 0.5q-7 -14 -14 -29.5t-17.5 -36.5l-25.5 -51t-36 -73q-14 -27 -27.5 -54.5t-27.5 -56.5h-101l-57 496h109l12 -156q3 -46 7 -90.5t7 -90.5h6q21 45 44 88.5t44 88.5l57 112h96q4 -29 7.5 -58t8.5 -58
q7 -45 11.5 -89t11.5 -88h5l97 201q18 40 25 66.5t7 54.5v20h107v-19q0 -38 -8.5 -72t-28.5 -72z" />
    <glyph glyph-name="x" unicode="x" horiz-adv-x="470" 
d="M298 0l-69 173l-140 -173h-128l222 253l-117 243h123l61 -166l132 166h129l-214 -241l126 -255h-125z" />
    <glyph glyph-name="y" unicode="y" horiz-adv-x="452" 
d="M20 -200l112 210l-32 29l-48 457h108l14 -193l13 -194h4l130 248q11 21 18.5 37t12 29.5t6.5 27t2 28.5v18h107v-17q0 -45 -12.5 -77.5t-33.5 -69.5l-292 -533h-109z" />
    <glyph glyph-name="z" unicode="z" horiz-adv-x="462" 
d="M-4 0l16 86l316 318h-239l17 91h371l-16 -85l-315 -315h253l-18 -95h-385z" />
    <glyph glyph-name="braceleft" unicode="{" horiz-adv-x="273" 
d="M127 297q17 -7 34 -29.5t17 -62.5q0 -14 -3 -32l-25 -126q-4 -20 -4 -37q0 -41 38 -41h34l-13 -69h-66q-40 0 -64.5 24.5t-24.5 65.5q0 13 3 27l26 132q4 19 4 39q0 33 -14.5 53.5t-43.5 22.5l13 68q40 5 65 37.5t34 79.5l26 134q10 52 44.5 82.5t76.5 30.5h76l-13 -70
h-34q-18 0 -29 -7t-18.5 -18.5t-11 -25t-6.5 -26.5l-24 -122q-6 -29 -17.5 -50.5t-25.5 -37t-28.5 -25t-24.5 -13.5z" />
    <glyph glyph-name="bar" unicode="|" horiz-adv-x="222" 
d="M69 -184v905h84v-905h-84z" />
    <glyph glyph-name="braceright" unicode="}" horiz-adv-x="273" 
d="M185 301q-16 7 -33 29t-17 63q-1 8 0 16.5t3 17.5l23 122q5 22 5 39q0 16 -7 27t-29 11h-37l12 67h76q42 0 62 -21.5t20 -57.5q0 -15 -3 -31l-27 -134q-2 -10 -3 -19.5t-1 -18.5q0 -32 14 -53.5t44 -25.5l-14 -68q-39 -3 -63.5 -34t-34.5 -81l-26 -136q-10 -51 -44.5 -82
t-76.5 -31h-76l13 69h35q16 0 27 7.5t18.5 18.5t11.5 25t7 27l24 126q5 28 16.5 49t25.5 36.5t28.5 25t25.5 13.5z" />
    <glyph glyph-name="asciitilde" unicode="~" horiz-adv-x="513" 
d="M514 304q-35 -53 -73.5 -77t-84.5 -24q-22 0 -44 10t-44.5 21.5t-45 21.5t-45.5 10q-24 0 -44 -12t-46 -41l-54 49q34 45 72.5 68.5t86.5 23.5q23 0 45.5 -10t44.5 -21.5t43.5 -21.5t42.5 -10q20 0 40.5 12t50.5 48l55 -47v0z" />
    <glyph glyph-name="exclamdown" unicode="&#xa1;" horiz-adv-x="251" 
d="M198 298l-90 -498h-107l105 498h92zM192 502q26 0 40.5 -15.5t14.5 -38.5q0 -15 -6 -30t-16.5 -27t-25.5 -19.5t-33 -7.5q-28 0 -43 15.5t-15 38.5q0 34 24 59t60 25z" />
    <glyph glyph-name="cent" unicode="&#xa2;" horiz-adv-x="436" 
d="M407 56q-42 -34 -87.5 -47t-90.5 -14l-22 -119h-51l24 123q-29 4 -54 16t-44 31t-29.5 45.5t-10.5 59.5q0 22 4 42l24 130q16 85 67.5 130t139.5 47l22 112h50l-22 -114q37 -5 72 -20t58 -47l-67 -75q-20 23 -41.5 33t-40.5 13l-59 -308q21 2 47.5 11.5t50.5 30.5z
M150 195q-2 -7 -2 -13v-12q0 -30 15 -47t36 -24l59 301q-36 -5 -57 -29.5t-30 -69.5z" />
    <glyph glyph-name="sterling" unicode="&#xa3;" horiz-adv-x="517" 
d="M458 535q-15 27 -41 47t-69 20q-27 0 -46 -10t-31 -26.5t-17.5 -37.5t-5.5 -43q0 -29 7 -58.5t7 -63.5h147l-16 -78h-142q-13 -54 -34.5 -102.5t-56.5 -90.5h295l-17 -92h-428l15 79q44 45 75 95.5t45 110.5h-86l16 78h74q-3 32 -9 62.5t-6 61.5q0 39 12.5 77t38.5 68
t66.5 49t96.5 19q72 0 123 -27.5t80 -87.5z" />
    <glyph glyph-name="currency" unicode="&#xa4;" horiz-adv-x="556" 
d="M35 502l57 57l68 -68q57 36 116 36q32 0 60 -9t56 -26l12 12t21 21.5t21 21.5t13 12l57 -58l-68 -67q17 -28 26.5 -56.5t9.5 -57.5q0 -31 -9 -58.5t-27 -56.5q15 -14 34 -32t34 -34l-57 -58l-67 68q-27 -18 -55.5 -27.5t-60.5 -9.5q-61 0 -116 37l-68 -68q-3 3 -11 11.5
t-17.5 17.5t-17.5 17l-11 11l69 67q-36 57 -36 115q0 29 9.5 57.5t26.5 56.5zM151 320q0 -26 9.5 -48.5t26.5 -39.5t39.5 -27t48.5 -10t49 10t40 27t26.5 39.5t9.5 48.5t-9.5 49t-26.5 40t-40 26.5t-49 9.5t-48.5 -10t-39.5 -27t-26.5 -39.5t-9.5 -48.5z" />
    <glyph glyph-name="yen" unicode="&#xa5;" horiz-adv-x="517" 
d="M53 223h152l8 44l-8 32h-136l14 72h105l-79 318h119l58 -305h7l175 305h127l-202 -318h107l-14 -72h-138l-20 -32l-9 -44h152l-13 -69h-152l-29 -154h-115l29 154h-151z" />
    <glyph glyph-name="brokenbar" unicode="&#xa6;" horiz-adv-x="222" 
d="M69 297v424h84v-424h-84zM153 237v-421h-84v421h84z" />
    <glyph glyph-name="section" unicode="&#xa7;" horiz-adv-x="445" 
d="M321 703q18 0 37.5 -2.5t39 -7t36.5 -11t29 -15.5l-46 -75q-21 14 -43 21.5t-50 7.5q-14 0 -29.5 -4.5t-28.5 -13t-21.5 -22t-8.5 -31.5q0 -35 47 -62q28 -17 54 -32t46 -32.5t32 -40.5t12 -56q0 -42 -20 -75t-60 -67q8 -12 15.5 -32t7.5 -43q0 -42 -18.5 -73.5
t-47.5 -52t-64 -30.5t-69 -10q-38 0 -80.5 11t-68.5 31l42 72q43 -31 107 -31q16 0 33.5 5t31 14.5t22.5 24.5t9 36q0 23 -18 41.5t-62 38.5q-24 12 -45.5 25.5t-37 30t-25 37.5t-9.5 48q0 34 19.5 72.5t65.5 71.5q-10 14 -16 32.5t-6 38.5q0 37 15 66.5t40.5 50.5t60 32
t72.5 11zM211 420q-22 -15 -34.5 -34.5t-12.5 -39.5q0 -21 13 -34.5t32 -24.5t40 -21t37 -23q21 13 32 32t11 36q0 19 -11.5 34.5t-29.5 28.5t-38.5 24t-38.5 22z" />
    <glyph glyph-name="dieresis" unicode="&#xa8;" horiz-adv-x="490" 
d="M435 690q21 0 34.5 -13.5t13.5 -33.5q0 -28 -22 -48.5t-49 -20.5q-20 0 -33.5 13t-13.5 33q0 28 21 49t49 21zM238 690q22 0 35 -13.5t13 -33.5q0 -14 -6 -26t-16 -22t-22.5 -15.5t-25.5 -5.5q-21 0 -34.5 13t-13.5 33q0 28 21.5 49t48.5 21z" />
    <glyph glyph-name="copyright" unicode="&#xa9;" horiz-adv-x="826" 
d="M414 -23q-74 0 -139 27.5t-113.5 77t-76.5 116.5t-28 147q0 79 28 146.5t76.5 116.5t113.5 77t139 28t139 -27.5t113.5 -77t76.5 -117t28 -146.5t-28 -146t-76.5 -116.5t-113.5 -77.5t-139 -28zM414 648q-60 0 -112.5 -23.5t-91.5 -64.5t-61 -96.5t-22 -118.5
q0 -64 22 -119.5t61 -96.5t91.5 -64.5t112.5 -23.5t112.5 23.5t90.5 64.5t60 96.5t22 119.5t-22 119.5t-60 96.5t-90.5 64t-112.5 23zM518 461q-22 19 -46 26t-45 7q-16 0 -32.5 -5t-30 -15.5t-22.5 -27.5t-9 -42v-130q0 -25 9 -42t22.5 -28t30 -16t32.5 -5q20 0 43.5 7
t45.5 24l37 -58q-26 -20 -59.5 -30.5t-67.5 -10.5q-31 0 -61 9t-54 26.5t-38.5 43.5t-14.5 61v165q0 34 14.5 60.5t38.5 44.5t54 27.5t60 9.5q35 0 70.5 -10.5t61.5 -31.5z" />
    <glyph glyph-name="ordfeminine" unicode="&#xaa;" horiz-adv-x="354" 
d="M85 490q11 57 44 87.5t92 30.5q17 0 40.5 -6t55.5 -23l12 24h74l-62 -326h-74v31q-39 -17 -63 -25.5t-42 -8.5q-47 0 -72.5 25t-25.5 66q0 14 3 29zM150 401q-1 -5 -1.5 -8.5t-0.5 -7.5q0 -20 11 -28.5t28 -8.5t42 10t50 23l23 128q-17 11 -38 18t-41 7t-36 -13.5
t-21 -40.5z" />
    <glyph glyph-name="guillemotleft" unicode="&#xab;" horiz-adv-x="503" 
d="M145 34l-95 195l172 196h102l-175 -201l90 -190h-94zM331 34l-94 195l171 196h103l-175 -201l90 -190h-95z" />
    <glyph glyph-name="logicalnot" unicode="&#xac;" horiz-adv-x="517" 
d="M462 65h-93l37 190h-372l17 81h464z" />
    <glyph glyph-name="sfthyphen" unicode="&#xad;" horiz-adv-x="400" 
d="M70 311h301l-18 -94h-302z" />
    <glyph glyph-name="registered" unicode="&#xae;" horiz-adv-x="515" 
d="M261 484h-35v-85h-42v213h84q28 0 48 -17t20 -46q0 -17 -9 -32t-29 -26l45 -92h-45zM226 573v-50h40q13 0 21 7t8 19q0 24 -27 24h-42zM254 309q-39 0 -74 15t-61.5 41t-41.5 61.5t-15 77.5t15.5 77.5t42 61.5t61 41t73.5 15q40 0 75 -15t61 -41t41 -61.5t15 -77.5
t-15.5 -77.5t-41.5 -61.5t-61 -41t-74 -15zM254 659q-31 0 -58 -12t-47.5 -33t-32 -49t-11.5 -61t11.5 -61.5t32 -49.5t47.5 -33t58 -12t58.5 12t47.5 33t31.5 49.5t11.5 61.5t-11.5 61t-31.5 49t-47.5 33t-58.5 12z" />
    <glyph glyph-name="macron" unicode="&#xaf;" horiz-adv-x="502" 
d="M191 593l18 89h290l-18 -89h-290z" />
    <glyph glyph-name="degree" unicode="&#xb0;" horiz-adv-x="401" 
d="M344 561q0 -29 -11.5 -54.5t-31 -44.5t-45.5 -30t-56 -11t-56 11t-45.5 30t-31 44.5t-11.5 54.5t11.5 55t31 45t45.5 30t56 11q31 0 57.5 -11t46 -30t30 -45t10.5 -55zM275 561q0 31 -21.5 52.5t-53.5 21.5q-31 0 -53 -21.5t-22 -52.5q0 -30 21.5 -52t53.5 -22t53.5 22
t21.5 52z" />
    <glyph glyph-name="plusminus" unicode="&#xb1;" horiz-adv-x="517" 
d="M321 301l-34 -174h-84l34 174h-188l16 81h188l34 176h84l-34 -176h187l-16 -81h-187zM-10 0l15 80h461l-15 -80h-461z" />
    <glyph glyph-name="twosuperior" unicode="&#xb2;" horiz-adv-x="326" 
d="M266 785q24 0 47 -4.5t41 -16t29.5 -30.5t11.5 -48q0 -26 -11 -47t-29 -39t-40 -33t-43 -30q-15 -11 -33.5 -21.5t-35.5 -22.5t-30 -26t-19 -30h198q-4 -18 -6.5 -35.5t-6.5 -34.5h-285l11 59q5 29 19.5 51.5t34.5 41t44 34t48 29.5q15 9 32 19t32 21.5t25 24t10 26.5
q0 20 -17.5 29t-40.5 9q-24 0 -48 -8.5t-47 -23.5l-33 62q31 21 67.5 32.5t74.5 11.5z" />
    <glyph glyph-name="threesuperior" unicode="&#xb3;" horiz-adv-x="325" 
d="M300 576q30 -12 41.5 -34t11.5 -45q0 -33 -14 -58t-37.5 -42.5t-53 -26t-59.5 -8.5q-41 0 -77.5 11.5t-58.5 31.5l50 62q17 -15 41 -23t45 -8q34 0 58 16.5t24 45.5q0 21 -14.5 33t-36.5 12h-57l13 69h57q9 0 21 3.5t22.5 10t18 17t7.5 25.5q0 23 -17.5 33t-40.5 10
q-21 0 -47 -8t-50 -24l-31 62q34 23 69 33t76 10q24 0 46.5 -5t39.5 -17t27.5 -31t10.5 -47q0 -35 -22 -66.5t-64 -40.5z" />
    <glyph glyph-name="acute" unicode="&#xb4;" horiz-adv-x="499" 
d="M291 570l112 185l92 -31l-146 -178z" />
    <glyph glyph-name="mu" unicode="&#xb5;" horiz-adv-x="516" 
d="M327 0q1 11 2.5 23.5t2.5 23.5q-53 -32 -89.5 -41.5t-62.5 -9.5q-21 0 -36.5 3.5t-28.5 11.5l-41 -210h-105q19 103 35.5 187.5t32 164t31.5 162t35 180.5h107l-60 -309q-2 -7 -2 -13v-11q0 -30 15.5 -48t45.5 -18q27 0 64 12.5t79 40.5q17 88 33.5 173t33.5 173h107
l-96 -495h-103z" />
    <glyph glyph-name="mu" unicode="&#x3bc;" horiz-adv-x="516" 
d="M327 0q1 11 2.5 23.5t2.5 23.5q-53 -32 -89.5 -41.5t-62.5 -9.5q-21 0 -36.5 3.5t-28.5 11.5l-41 -210h-105q19 103 35.5 187.5t32 164t31.5 162t35 180.5h107l-60 -309q-2 -7 -2 -13v-11q0 -30 15.5 -48t45.5 -18q27 0 64 12.5t79 40.5q17 88 33.5 173t33.5 173h107
l-96 -495h-103z" />
    <glyph glyph-name="paragraph" unicode="&#xb6;" horiz-adv-x="527" 
d="M437 58q-9 -47 -24 -83t-42 -61t-68.5 -38t-102.5 -15l-2 83q44 5 71.5 15.5t44 27t24.5 38.5t13 49l117 632h89zM252 327q-37 0 -66 12.5t-49 34.5t-30.5 52t-10.5 66q0 49 18 89t48 67.5t70 42.5t84 15h90l-70 -379h-84z" />
    <glyph glyph-name="periodcentered" unicode="&#xb7;" horiz-adv-x="248" 
d="M124 204q-27 0 -44 17.5t-17 43.5q0 18 8 34t20.5 28.5t28.5 19.5t33 7q27 0 44.5 -17t17.5 -43q0 -18 -7.5 -34t-20 -28.5t-29 -20t-34.5 -7.5z" />
    <glyph glyph-name="cedilla" unicode="&#xb8;" horiz-adv-x="442" 
d="M197 46l53 -3l-42 -81q24 0 41 -7t27.5 -18t15 -24.5t4.5 -25.5q0 -18 -8 -36t-24 -32.5t-40 -23t-55 -8.5q-9 0 -21.5 1t-26 3.5t-27.5 7t-26 10.5l26 49q20 -10 40 -13t35 -3q18 0 36 9.5t18 30.5q0 10 -5 16t-12.5 8.5t-16 2t-15.5 -2.5l-36 23z" />
    <glyph glyph-name="onesuperior" unicode="&#xb9;" horiz-adv-x="257" 
d="M126 367l61 312l-52 -34l-35 57l115 78h73l-80 -413h-82z" />
    <glyph glyph-name="ordmasculine" unicode="&#xba;" horiz-adv-x="353" 
d="M365 393q-10 -56 -48.5 -88t-104.5 -32q-59 0 -97 33t-38 89v14t2 14l12 63q11 58 50.5 90t102.5 32q33 0 58 -10t42.5 -26.5t26 -39t8.5 -47.5v-12t-2 -13zM298 463q2 5 2 9v9q0 26 -16.5 40.5t-41.5 14.5q-27 0 -47.5 -14t-25.5 -48l-10 -61q-1 -5 -1 -15q0 -28 18 -41
t38 -13q26 0 46 14.5t27 49.5z" />
    <glyph glyph-name="guillemotright" unicode="&#xbb;" horiz-adv-x="503" 
d="M376 425l95 -196l-172 -195h-102l174 201l-89 190h94zM189 425l95 -196l-171 -195h-103l175 201l-90 190h94z" />
    <glyph glyph-name="onequarter" unicode="&#xbc;" horiz-adv-x="825" 
d="M185 277l61 312l-52 -34l-35 57l115 78h73l-80 -413h-82zM198 -17h-78l567 730h79zM724 59l-12 -59h-83l12 59h-188l12 61l203 293h87l-196 -284h96l22 113h83l-22 -113h37l-14 -70h-37z" />
    <glyph glyph-name="onehalf" unicode="&#xbd;" horiz-adv-x="825" 
d="M683 418q24 0 47 -4.5t41.5 -16t29.5 -30.5t11 -48q0 -28 -12 -50t-31.5 -40.5t-43 -34t-46.5 -30.5q-15 -10 -32 -20t-32 -21.5t-26.5 -24.5t-17.5 -28h198q-4 -18 -7 -35.5t-6 -34.5h-284q2 14 4.5 29t5.5 30q6 35 27 61.5t48 47t57 37.5t55 32.5t41.5 32t16.5 36.5
t-18 29t-41 9t-47 -8.5t-47 -23.5l-33 62q30 21 66.5 32.5t75.5 11.5zM161 -17h-78l567 730h79zM159 277l61 312l-52 -34l-35 57l115 78h73l-80 -413h-82z" />
    <glyph glyph-name="threequarters" unicode="&#xbe;" horiz-adv-x="825" 
d="M332 486q30 -12 41.5 -34t11.5 -45q0 -33 -14 -58t-37.5 -42.5t-53 -26t-59.5 -8.5q-41 0 -77.5 11.5t-58.5 31.5l50 62q17 -15 41 -23t45 -8q34 0 58 16.5t24 45.5q0 21 -14.5 33t-36.5 12h-57l13 69h57q9 0 21 3.5t22.5 10t18 17t7.5 25.5q0 23 -17.5 33t-40.5 10
q-21 0 -47 -8t-50 -24l-31 62q34 23 69 33t76 10q24 0 46.5 -5t39.5 -17t27.5 -31t10.5 -47q0 -35 -22 -66.5t-64 -40.5zM242 -17h-78l567 730h79zM741 59l-12 -59h-83l12 59h-188l12 61l203 293h87l-196 -284h96l22 113h83l-22 -113h37l-14 -70h-37z" />
    <glyph glyph-name="questiondown" unicode="&#xbf;" horiz-adv-x="474" 
d="M209 -200q-38 0 -70 11t-55 31.5t-35.5 48.5t-12.5 61t14 62.5t37 58.5q20 25 42.5 48t43 46t36.5 48.5t22 55.5l7 36h108l-7 -35q-6 -31 -18.5 -57t-29 -49.5t-36.5 -46t-41 -46.5q-22 -23 -39.5 -49.5t-17.5 -54.5q0 -29 20 -48t61 -19q35 0 71.5 13.5t67.5 36.5
q11 -22 20 -44t19 -44q-49 -34 -100.5 -49t-106.5 -15zM303 372q-28 0 -43.5 16.5t-15.5 39.5q0 30 21 51.5t53 21.5q27 0 41.5 -15.5t14.5 -40.5q0 -28 -19.5 -50.5t-51.5 -22.5z" />
    <glyph glyph-name="Agrave" unicode="&#xc0;" horiz-adv-x="617" 
d="M426 149h-256l-77 -149h-123l372 689h116l106 -689h-120zM222 248h190l-17 135l-19 160h-4l-77 -154zM411 734l-196 104l64 71l171 -128z" />
    <glyph glyph-name="Aacute" unicode="&#xc1;" horiz-adv-x="617" 
d="M426 149h-256l-77 -149h-123l372 689h116l106 -689h-120zM222 248h190l-17 135l-19 160h-4l-77 -154zM359 783l182 129l57 -74l-204 -104z" />
    <glyph glyph-name="Acircumflex" unicode="&#xc2;" horiz-adv-x="617" 
d="M426 149h-256l-77 -149h-123l372 689h116l106 -689h-120zM222 248h190l-17 135l-19 160h-4l-77 -154zM427 823l-168 -85l-31 42l175 127h68l121 -126l-42 -41z" />
    <glyph glyph-name="Atilde" unicode="&#xc3;" horiz-adv-x="617" 
d="M426 149h-256l-77 -149h-123l372 689h116l106 -689h-120zM359 868q18 0 34 -6.5t30.5 -15t27 -15t24.5 -6.5q15 0 31.5 10t38.5 35q13 -8 27.5 -19t28.5 -19q-29 -52 -61 -73.5t-64 -21.5q-18 0 -34 6t-30.5 13.5t-28.5 14t-28 6.5q-17 0 -32 -8.5t-39 -33.5l-55 38
q28 48 61.5 71.5t68.5 23.5zM222 248h190l-17 135l-19 160h-4l-77 -154z" />
    <glyph glyph-name="Adieresis" unicode="&#xc4;" horiz-adv-x="617" 
d="M426 149h-256l-77 -149h-123l372 689h116l106 -689h-120zM222 248h190l-17 135l-19 160h-4l-77 -154zM534 856q23 0 36.5 -15t11.5 -37q-3 -26 -24 -45t-46 -19q-23 0 -36.5 15.5t-10.5 38.5q2 25 23 43.5t46 18.5zM335 856q23 0 36 -15t11 -37q-3 -26 -23.5 -45
t-46.5 -19q-23 0 -36.5 15.5t-10.5 37.5q2 26 23 44.5t47 18.5z" />
    <glyph glyph-name="Aring" unicode="&#xc5;" horiz-adv-x="617" 
d="M426 149h-256l-77 -149h-123l372 689h116l106 -689h-120zM222 248h190l-17 135l-19 160h-4l-77 -154zM415 769q22 0 40.5 16.5t18.5 39.5q0 16 -12 27t-29 11q-23 0 -40 -17t-17 -40q0 -16 10.5 -26.5t28.5 -10.5zM407 710q-40 0 -66.5 24.5t-26.5 62.5q0 25 9.5 47.5
t26 39.5t40 27.5t51.5 10.5q41 0 67.5 -25.5t26.5 -63.5q0 -27 -10 -49.5t-27.5 -39t-41 -25.5t-49.5 -9z" />
    <glyph glyph-name="AE" unicode="&#xc6;" horiz-adv-x="992" 
d="M485 0l25 181l-244 1q-35 -46 -70 -91.5t-70 -90.5h-131l529 689h520l-14 -104h-349l-26 -189h301l-14 -102h-302l-3 -19q-6 -44 -12 -87t-13 -86h353l-14 -102h-466zM523 276l45 304h-1l-234 -303z" />
    <glyph glyph-name="Ccedilla" unicode="&#xc7;" horiz-adv-x="548" 
d="M238 -3q-36 6 -69 21.5t-57.5 39.5t-39 57.5t-14.5 75.5q0 12 1.5 24t3.5 26l45 231q21 108 88 166t187 58q58 0 114 -18t93 -51l-69 -88q-24 25 -65 39t-78 14q-64 0 -105 -34.5t-56 -111.5l-40 -202q-3 -18 -3 -35q0 -29 10.5 -49.5t28 -34t40.5 -20t49 -6.5
q37 0 81.5 13t78.5 39l48 -94q-43 -32 -103 -47.5t-117 -16.5l-16 -31q24 0 41 -7t27.5 -18t15 -24.5t4.5 -25.5q0 -18 -8 -36t-24 -32.5t-40 -23t-55 -8.5q-9 0 -21.5 1t-26 3.5t-27.5 7t-26 10.5l26 49q20 -10 40 -13t35 -3q18 0 36 9.5t18 30.5q0 10 -5 16t-12.5 8.5
t-16 2t-15.5 -2.5l-36 23z" />
    <glyph glyph-name="Egrave" unicode="&#xc8;" horiz-adv-x="568" 
d="M157 689h457l-20 -103h-343l-36 -189h301l-20 -103h-302l-37 -192h370l-20 -102h-484zM427 734l-196 104l64 71l171 -128z" />
    <glyph glyph-name="Eacute" unicode="&#xc9;" horiz-adv-x="568" 
d="M157 689h457l-20 -103h-343l-36 -189h301l-20 -103h-302l-37 -192h370l-20 -102h-484zM315 783l182 129l57 -74l-204 -104z" />
    <glyph glyph-name="Ecircumflex" unicode="&#xca;" horiz-adv-x="568" 
d="M157 689h457l-20 -103h-343l-36 -189h301l-20 -103h-302l-37 -192h370l-20 -102h-484zM415 823l-168 -85l-31 42l175 127h68l121 -126l-42 -41z" />
    <glyph glyph-name="Edieresis" unicode="&#xcb;" horiz-adv-x="568" 
d="M157 689h457l-20 -103h-343l-36 -189h301l-20 -103h-302l-37 -192h370l-20 -102h-484zM508 856q23 0 36.5 -15t11.5 -37q-3 -26 -24 -45t-46 -19q-23 0 -36.5 15.5t-10.5 38.5q2 25 23 43.5t46 18.5zM309 856q23 0 36 -15t11 -37q-3 -26 -23.5 -45t-46.5 -19
q-23 0 -36.5 15.5t-10.5 37.5q2 26 23 44.5t47 18.5z" />
    <glyph glyph-name="Igrave" unicode="&#xcc;" horiz-adv-x="273" 
d="M288 689l-134 -689h-114l134 689h114zM247 734l-196 104l64 71l171 -128z" />
    <glyph glyph-name="Iacute" unicode="&#xcd;" horiz-adv-x="273" 
d="M288 689l-134 -689h-114l134 689h114zM202 783l182 129l57 -74l-204 -104z" />
    <glyph glyph-name="Icircumflex" unicode="&#xce;" horiz-adv-x="273" 
d="M288 689l-134 -689h-114l134 689h114zM266 823l-168 -85l-31 42l175 127h68l121 -126l-42 -41z" />
    <glyph glyph-name="Idieresis" unicode="&#xcf;" horiz-adv-x="273" 
d="M288 689l-134 -689h-114l134 689h114zM360 867q22 0 35 -13.5t13 -33.5q0 -14 -6 -26t-16 -22t-22.5 -15.5t-25.5 -5.5q-20 0 -33.5 13t-13.5 33q0 28 21 49t48 21zM161 867q21 0 34 -13.5t13 -33.5q0 -27 -21.5 -48t-48.5 -21q-20 0 -33.5 13t-13.5 33q0 28 21 49t49 21
z" />
    <glyph glyph-name="Eth" unicode="&#xd0;" horiz-adv-x="617" 
d="M31 392h67l58 297h250q44 0 81.5 -12t65.5 -35t43.5 -56.5t15.5 -76.5q0 -12 -1.5 -24t-3.5 -25l-42 -237q-22 -109 -83 -166t-173 -57h-287l60 311h-67zM492 445q4 19 4 38q0 56 -35 79.5t-86 23.5h-125l-38 -194h98l-15 -81h-99l-40 -210h146q25 0 49 7t44 23t35 43
t23 68z" />
    <glyph glyph-name="Ntilde" unicode="&#xd1;" horiz-adv-x="660" 
d="M483 204q23 122 46 242.5t46 242.5h113l-131 -689h-107q-6 14 -23 50t-39 84t-46.5 101.5t-47 102.5t-40 87.5t-24.5 55.5h-6l-92 -481h-113l131 689h106q6 -13 23 -49.5t39.5 -85.5t47.5 -104.5t47.5 -105t39.5 -87.5t24 -53h6zM374 869q18 0 34 -6.5t30.5 -15t27 -15
t24.5 -6.5q15 0 31.5 10t38.5 35q13 -8 27.5 -19t28.5 -19q-29 -52 -61 -73.5t-64 -21.5q-18 0 -34 6t-30.5 13.5t-28.5 14t-28 6.5q-17 0 -32 -8.5t-39 -33.5l-55 38q28 48 61.5 71.5t68.5 23.5z" />
    <glyph glyph-name="Ograve" unicode="&#xd2;" horiz-adv-x="622" 
d="M576 216q-20 -106 -90.5 -164.5t-191.5 -58.5q-45 0 -87.5 13.5t-75 40.5t-52 66.5t-19.5 91.5q0 27 6 57l41 211q21 108 91 165.5t185 57.5q49 0 93 -15t76 -42t51 -65.5t19 -85.5q0 -11 -1 -22t-3 -23zM504 438q2 9 3 17t1 16q0 30 -11 52.5t-29 37.5t-41 22.5t-48 7.5
q-62 0 -105 -33.5t-57 -108.5l-38 -199q-4 -19 -4 -38q0 -30 10 -51.5t27 -35.5t39 -20.5t46 -6.5q72 0 113.5 38t56.5 114zM464 734l-196 104l64 71l171 -128z" />
    <glyph glyph-name="Oacute" unicode="&#xd3;" horiz-adv-x="622" 
d="M576 216q-20 -106 -90.5 -164.5t-191.5 -58.5q-45 0 -87.5 13.5t-75 40.5t-52 66.5t-19.5 91.5q0 27 6 57l41 211q21 108 91 165.5t185 57.5q49 0 93 -15t76 -42t51 -65.5t19 -85.5q0 -11 -1 -22t-3 -23zM504 438q2 9 3 17t1 16q0 30 -11 52.5t-29 37.5t-41 22.5t-48 7.5
q-62 0 -105 -33.5t-57 -108.5l-38 -199q-4 -19 -4 -38q0 -30 10 -51.5t27 -35.5t39 -20.5t46 -6.5q72 0 113.5 38t56.5 114zM351 783l182 129l57 -74l-204 -104z" />
    <glyph glyph-name="Ocircumflex" unicode="&#xd4;" horiz-adv-x="622" 
d="M576 216q-20 -106 -90.5 -164.5t-191.5 -58.5q-45 0 -87.5 13.5t-75 40.5t-52 66.5t-19.5 91.5q0 27 6 57l41 211q21 108 91 165.5t185 57.5q49 0 93 -15t76 -42t51 -65.5t19 -85.5q0 -11 -1 -22t-3 -23zM504 438q2 9 3 17t1 16q0 30 -11 52.5t-29 37.5t-41 22.5t-48 7.5
q-62 0 -105 -33.5t-57 -108.5l-38 -199q-4 -19 -4 -38q0 -30 10 -51.5t27 -35.5t39 -20.5t46 -6.5q72 0 113.5 38t56.5 114zM438 823l-168 -85l-31 42l175 127h68l121 -126l-42 -41z" />
    <glyph glyph-name="Otilde" unicode="&#xd5;" horiz-adv-x="622" 
d="M576 216q-20 -106 -90.5 -164.5t-191.5 -58.5q-45 0 -87.5 13.5t-75 40.5t-52 66.5t-19.5 91.5q0 27 6 57l41 211q21 108 91 165.5t185 57.5q49 0 93 -15t76 -42t51 -65.5t19 -85.5q0 -11 -1 -22t-3 -23zM504 438q2 9 3 17t1 16q0 30 -11 52.5t-29 37.5t-41 22.5t-48 7.5
q-62 0 -105 -33.5t-57 -108.5l-38 -199q-4 -19 -4 -38q0 -30 10 -51.5t27 -35.5t39 -20.5t46 -6.5q72 0 113.5 38t56.5 114zM364 868q18 0 34 -6.5t30.5 -15t27 -15t24.5 -6.5q15 0 31.5 10t38.5 35q13 -8 27.5 -19t28.5 -19q-29 -52 -61 -73.5t-64 -21.5q-18 0 -34 6
t-30.5 13.5t-28.5 14t-28 6.5q-17 0 -32 -8.5t-39 -33.5l-55 38q28 48 61.5 71.5t68.5 23.5z" />
    <glyph glyph-name="Odieresis" unicode="&#xd6;" horiz-adv-x="622" 
d="M576 216q-20 -106 -90.5 -164.5t-191.5 -58.5q-45 0 -87.5 13.5t-75 40.5t-52 66.5t-19.5 91.5q0 27 6 57l41 211q21 108 91 165.5t185 57.5q49 0 93 -15t76 -42t51 -65.5t19 -85.5q0 -11 -1 -22t-3 -23zM504 438q2 9 3 17t1 16q0 30 -11 52.5t-29 37.5t-41 22.5t-48 7.5
q-62 0 -105 -33.5t-57 -108.5l-38 -199q-4 -19 -4 -38q0 -30 10 -51.5t27 -35.5t39 -20.5t46 -6.5q72 0 113.5 38t56.5 114zM538 856q23 0 36.5 -15t11.5 -37q-3 -26 -24 -45t-46 -19q-23 0 -36.5 15.5t-10.5 38.5q2 25 23 43.5t46 18.5zM339 856q23 0 36 -15t11 -37
q-3 -26 -23.5 -45t-46.5 -19q-23 0 -36.5 15.5t-10.5 37.5q2 26 23 44.5t47 18.5z" />
    <glyph glyph-name="multiply" unicode="&#xd7;" horiz-adv-x="575" 
d="M292 202l-195 -160l-48 62l193 160l-129 166l67 52l130 -165l192 158l49 -63l-193 -157l134 -172l-66 -53z" />
    <glyph glyph-name="Oslash" unicode="&#xd8;" horiz-adv-x="622" 
d="M576 216q-20 -106 -90.5 -164.5t-191.5 -58.5q-47 0 -90 14t-75 42l-46 -55l-34 30l48 59q-17 24 -27 54.5t-10 67.5q0 27 6 57l41 211q21 108 91 165.5t185 57.5q51 0 94.5 -15t75.5 -43l50 60l36 -31l-53 -64q36 -50 36 -115q0 -11 -1 -22t-3 -23zM175 212q0 -18 3 -31
l302 368q-18 21 -45 31.5t-56 10.5q-62 0 -105 -33.5t-57 -108.5l-38 -199q-4 -19 -4 -38zM504 438q2 9 3 17t1 16q0 9 -1 17t-3 16l-304 -368q17 -20 42.5 -29t54.5 -9q72 0 113.5 38t56.5 114z" />
    <glyph glyph-name="Ugrave" unicode="&#xd9;" horiz-adv-x="622" 
d="M576 218q-11 -54 -36.5 -96t-63 -70.5t-85.5 -43t-104 -14.5q-45 0 -87 12t-73.5 37t-50.5 62t-19 87q0 13 1 26.5t4 27.5l86 443h115l-88 -446q-3 -18 -3 -34q0 -30 11 -51.5t28 -35t39 -19.5t43 -6q29 0 57 8t51 25.5t40 45t25 67.5l86 446h116zM442 734l-196 104
l64 71l171 -128z" />
    <glyph glyph-name="Uacute" unicode="&#xda;" horiz-adv-x="622" 
d="M576 218q-11 -54 -36.5 -96t-63 -70.5t-85.5 -43t-104 -14.5q-45 0 -87 12t-73.5 37t-50.5 62t-19 87q0 13 1 26.5t4 27.5l86 443h115l-88 -446q-3 -18 -3 -34q0 -30 11 -51.5t28 -35t39 -19.5t43 -6q29 0 57 8t51 25.5t40 45t25 67.5l86 446h116zM346 783l182 129
l57 -74l-204 -104z" />
    <glyph glyph-name="Ucircumflex" unicode="&#xdb;" horiz-adv-x="622" 
d="M576 218q-11 -54 -36.5 -96t-63 -70.5t-85.5 -43t-104 -14.5q-45 0 -87 12t-73.5 37t-50.5 62t-19 87q0 13 1 26.5t4 27.5l86 443h115l-88 -446q-3 -18 -3 -34q0 -30 11 -51.5t28 -35t39 -19.5t43 -6q29 0 57 8t51 25.5t40 45t25 67.5l86 446h116zM431 823l-168 -85
l-31 42l175 127h68l121 -126l-42 -41z" />
    <glyph glyph-name="Udieresis" unicode="&#xdc;" horiz-adv-x="622" 
d="M576 218q-11 -54 -36.5 -96t-63 -70.5t-85.5 -43t-104 -14.5q-45 0 -87 12t-73.5 37t-50.5 62t-19 87q0 13 1 26.5t4 27.5l86 443h115l-88 -446q-3 -18 -3 -34q0 -30 11 -51.5t28 -35t39 -19.5t43 -6q29 0 57 8t51 25.5t40 45t25 67.5l86 446h116zM538 856q23 0 36.5 -15
t11.5 -37q-3 -26 -24 -45t-46 -19q-23 0 -36.5 15.5t-10.5 38.5q2 25 23 43.5t46 18.5zM339 856q23 0 36 -15t11 -37q-3 -26 -23.5 -45t-46.5 -19q-23 0 -36.5 15.5t-10.5 37.5q2 26 23 44.5t47 18.5z" />
    <glyph glyph-name="Yacute" unicode="&#xdd;" horiz-adv-x="547" 
d="M301 378l97 151l104 160h126l-288 -422l-51 -267h-114l51 267l-127 422h118l46 -179l33 -132h5zM302 783l182 129l57 -74l-204 -104z" />
    <glyph glyph-name="Thorn" unicode="&#xde;" horiz-adv-x="565" 
d="M176 238h153q28 0 52 9.5t42 26t28 39t10 49.5q0 41 -25 65t-70 24h-149zM130 0h-114l134 689h115l-26 -134h163q44 0 76.5 -16t53.5 -42t31 -59t10 -68q0 -46 -15.5 -88.5t-45.5 -75.5t-72.5 -52.5t-96.5 -19.5h-187z" />
    <glyph glyph-name="germandbls" unicode="&#xdf;" horiz-adv-x="524" 
d="M23 -1l101 520q18 92 75 141.5t144 49.5q49 0 83.5 -14.5t55.5 -37t30.5 -51t9.5 -55.5q0 -14 -3.5 -33t-13 -39t-26.5 -39t-43 -33q32 -14 46.5 -44.5t14.5 -66.5q0 -9 -1 -18t-3 -18l-17 -89q-16 -83 -68 -130.5t-140 -47.5q-13 0 -29.5 0.5t-35.5 5.5l21 95
q16 -3 33 -3q40 0 72 20t42 70l17 83q2 6 2 11v10q0 32 -23 50t-62 18h-15l16 86h10q28 0 48 9.5t33 24.5t19 33t6 35q0 36 -20.5 57.5t-58.5 21.5q-26 0 -46 -8.5t-33.5 -22.5t-22 -31.5t-11.5 -35.5l-102 -524h-105z" />
    <glyph glyph-name="agrave" unicode="&#xe0;" horiz-adv-x="513" 
d="M66 322q17 88 65 133.5t131 45.5q26 0 61.5 -9.5t82.5 -38.5l19 42h96l-97 -495h-96l-1 46q-31 -15 -55 -25t-43 -15.5t-34 -8t-28 -2.5q-66 0 -100.5 34t-34.5 96q0 20 5 48zM146 187q-3 -17 -3 -30q0 -32 16.5 -45.5t43.5 -13.5t65 15t80 36l39 210q-24 18 -57.5 30.5
t-65.5 12.5q-33 0 -58 -21t-35 -70zM350 548l-156 172l86 35l119 -177z" />
    <glyph glyph-name="aacute" unicode="&#xe1;" horiz-adv-x="513" 
d="M66 322q17 88 65 133.5t131 45.5q26 0 61.5 -9.5t82.5 -38.5l19 42h96l-97 -495h-96l-1 46q-31 -15 -55 -25t-43 -15.5t-34 -8t-28 -2.5q-66 0 -100.5 34t-34.5 96q0 20 5 48zM146 187q-3 -17 -3 -30q0 -32 16.5 -45.5t43.5 -13.5t65 15t80 36l39 210q-24 18 -57.5 30.5
t-65.5 12.5q-33 0 -58 -21t-35 -70zM275 570l112 185l92 -31l-146 -178z" />
    <glyph glyph-name="acircumflex" unicode="&#xe2;" horiz-adv-x="513" 
d="M66 322q17 88 65 133.5t131 45.5q26 0 61.5 -9.5t82.5 -38.5l19 42h96l-97 -495h-96l-1 46q-31 -15 -55 -25t-43 -15.5t-34 -8t-28 -2.5q-66 0 -100.5 34t-34.5 96q0 20 5 48zM146 187q-3 -17 -3 -30q0 -32 16.5 -45.5t43.5 -13.5t65 15t80 36l39 210q-24 18 -57.5 30.5
t-65.5 12.5q-33 0 -58 -21t-35 -70zM360 651l-164 -108l-37 44l173 151h70l115 -152l-48 -37z" />
    <glyph glyph-name="atilde" unicode="&#xe3;" horiz-adv-x="513" 
d="M66 322q17 88 65 133.5t131 45.5q26 0 61.5 -9.5t82.5 -38.5l19 42h96l-97 -495h-96l-1 46q-31 -15 -55 -25t-43 -15.5t-34 -8t-28 -2.5q-66 0 -100.5 34t-34.5 96q0 20 5 48zM146 187q-3 -17 -3 -30q0 -32 16.5 -45.5t43.5 -13.5t65 15t80 36l39 210q-24 18 -57.5 30.5
t-65.5 12.5q-33 0 -58 -21t-35 -70zM276 705q18 0 34 -6.5t30.5 -15t27 -15t24.5 -6.5q15 0 31.5 10t38.5 35q13 -8 27.5 -19t28.5 -19q-29 -52 -61 -73.5t-64 -21.5q-18 0 -34 6t-30.5 13.5t-28.5 14t-28 6.5q-17 0 -32 -8.5t-39 -33.5l-55 38q28 48 61.5 71.5t68.5 23.5z
" />
    <glyph glyph-name="adieresis" unicode="&#xe4;" horiz-adv-x="513" 
d="M66 322q17 88 65 133.5t131 45.5q26 0 61.5 -9.5t82.5 -38.5l19 42h96l-97 -495h-96l-1 46q-31 -15 -55 -25t-43 -15.5t-34 -8t-28 -2.5q-66 0 -100.5 34t-34.5 96q0 20 5 48zM146 187q-3 -17 -3 -30q0 -32 16.5 -45.5t43.5 -13.5t65 15t80 36l39 210q-24 18 -57.5 30.5
t-65.5 12.5q-33 0 -58 -21t-35 -70zM446 690q21 0 34.5 -13.5t13.5 -33.5q0 -28 -22 -48.5t-49 -20.5q-20 0 -33.5 13t-13.5 33q0 28 21 49t49 21zM249 690q22 0 35 -13.5t13 -33.5q0 -14 -6 -26t-16 -22t-22.5 -15.5t-25.5 -5.5q-21 0 -34.5 13t-13.5 33q0 28 21.5 49
t48.5 21z" />
    <glyph glyph-name="aring" unicode="&#xe5;" horiz-adv-x="513" 
d="M66 322q17 88 65 133.5t131 45.5q26 0 61.5 -9.5t82.5 -38.5l19 42h96l-97 -495h-96l-1 46q-31 -15 -55 -25t-43 -15.5t-34 -8t-28 -2.5q-66 0 -100.5 34t-34.5 96q0 20 5 48zM146 187q-3 -17 -3 -30q0 -32 16.5 -45.5t43.5 -13.5t65 15t80 36l39 210q-24 18 -57.5 30.5
t-65.5 12.5q-33 0 -58 -21t-35 -70zM342 595q22 0 40.5 16.5t18.5 39.5q0 16 -12 27t-29 11q-23 0 -40 -17t-17 -40q0 -16 10.5 -26.5t28.5 -10.5zM334 536q-40 0 -66.5 24.5t-26.5 62.5q0 25 9.5 47.5t26 39.5t40 27.5t51.5 10.5q41 0 67.5 -25.5t26.5 -63.5
q0 -27 -10 -49.5t-27.5 -39t-41 -25.5t-49.5 -9z" />
    <glyph glyph-name="ae" unicode="&#xe6;" horiz-adv-x="805" 
d="M462 448q31 25 67.5 39t84.5 14q88 0 131 -39.5t43 -96.5q0 -38 -18 -69.5t-52.5 -54t-85 -35.5t-114.5 -13q-11 0 -23.5 0.5t-25.5 1.5q-4 -15 -4 -32q0 -34 23 -54.5t69 -20.5q26 0 57 10t58 34q15 -20 28 -38t28 -38q-47 -37 -94 -49t-94 -12q-55 0 -95.5 17.5
t-63.5 53.5q-49 -42 -105 -56t-111 -14q-63 0 -98 31t-35 85q0 46 18.5 80.5t48 57.5t66.5 34t74 11q22 0 37.5 -0.5t29.5 -2t29.5 -3.5t38.5 -5q2 15 5.5 32t3.5 27q0 35 -25 48.5t-68 13.5q-26 0 -61 -7.5t-77 -37.5l-35 79q58 38 107 49.5t92 11.5q53 0 89.5 -12.5
t56.5 -39.5zM204 90q21 0 43 4.5t42.5 13t36.5 19t25 22.5l10 59q-19 2 -32.5 3.5t-25.5 2.5t-24.5 1.5t-30.5 0.5q-17 0 -35.5 -3t-34.5 -11.5t-26.5 -23t-10.5 -38.5t17.5 -37t45.5 -13zM608 406q-54 0 -84.5 -34.5t-42.5 -93.5q11 -1 20.5 -1.5t19.5 -0.5q73 0 114 23.5
t41 52.5q0 24 -19 39t-49 15z" />
    <glyph glyph-name="ccedilla" unicode="&#xe7;" horiz-adv-x="439" 
d="M183 -2q-30 4 -55.5 16t-44.5 31t-30 46t-11 61q0 22 4 41l24 130q17 88 74 133t145 45q22 0 46 -3.5t46 -11.5t41.5 -21.5t34.5 -33.5l-67 -75q-25 30 -54.5 39t-49.5 9q-44 0 -74 -24.5t-41 -78.5l-21 -106q-1 -6 -1.5 -12t-0.5 -12q0 -21 7.5 -36t20 -24t28 -13.5
t31.5 -4.5q22 0 52.5 9t59.5 34l60 -80q-40 -32 -83 -45.5t-88 -15.5l-17 -33q24 0 41 -7t27.5 -18t15 -24.5t4.5 -25.5q0 -18 -8 -36t-24 -32.5t-40 -23t-55 -8.5q-9 0 -21.5 1t-26 3.5t-27.5 7t-26 10.5l26 49q20 -10 40 -13t35 -3q18 0 36 9.5t18 30.5q0 10 -5 16
t-12.5 8.5t-16 2t-15.5 -2.5l-36 23z" />
    <glyph glyph-name="egrave" unicode="&#xe8;" horiz-adv-x="482" 
d="M289 501q88 0 131 -39.5t43 -96.5q0 -36 -15.5 -67t-48.5 -53.5t-85.5 -35.5t-127.5 -13h-21.5t-21.5 1q-2 -8 -3 -15.5t-1 -14.5q0 -38 25.5 -58.5t67.5 -20.5q26 0 55 10.5t56 36.5q15 -20 30.5 -39.5t29.5 -39.5q-47 -37 -94 -49t-94 -12q-81 0 -131.5 40.5
t-50.5 121.5q0 64 14 126t44.5 110.5t79.5 78t118 29.5zM283 406q-54 0 -83 -33.5t-43 -91.5q11 -1 21.5 -1h19.5q49 0 79 6.5t46.5 17t22 23.5t5.5 25q0 24 -15 39t-53 15zM312 548l-156 172l86 35l119 -177z" />
    <glyph glyph-name="eacute" unicode="&#xe9;" horiz-adv-x="482" 
d="M289 501q88 0 131 -39.5t43 -96.5q0 -36 -15.5 -67t-48.5 -53.5t-85.5 -35.5t-127.5 -13h-21.5t-21.5 1q-2 -8 -3 -15.5t-1 -14.5q0 -38 25.5 -58.5t67.5 -20.5q26 0 55 10.5t56 36.5q15 -20 30.5 -39.5t29.5 -39.5q-47 -37 -94 -49t-94 -12q-81 0 -131.5 40.5
t-50.5 121.5q0 64 14 126t44.5 110.5t79.5 78t118 29.5zM283 406q-54 0 -83 -33.5t-43 -91.5q11 -1 21.5 -1h19.5q49 0 79 6.5t46.5 17t22 23.5t5.5 25q0 24 -15 39t-53 15zM259 570l112 185l92 -31l-146 -178z" />
    <glyph glyph-name="ecircumflex" unicode="&#xea;" horiz-adv-x="482" 
d="M289 501q88 0 131 -39.5t43 -96.5q0 -36 -15.5 -67t-48.5 -53.5t-85.5 -35.5t-127.5 -13h-21.5t-21.5 1q-2 -8 -3 -15.5t-1 -14.5q0 -38 25.5 -58.5t67.5 -20.5q26 0 55 10.5t56 36.5q15 -20 30.5 -39.5t29.5 -39.5q-47 -37 -94 -49t-94 -12q-81 0 -131.5 40.5
t-50.5 121.5q0 64 14 126t44.5 110.5t79.5 78t118 29.5zM283 406q-54 0 -83 -33.5t-43 -91.5q11 -1 21.5 -1h19.5q49 0 79 6.5t46.5 17t22 23.5t5.5 25q0 24 -15 39t-53 15zM330 651l-164 -108l-37 44l173 151h70l115 -152l-48 -37z" />
    <glyph glyph-name="edieresis" unicode="&#xeb;" horiz-adv-x="482" 
d="M289 501q88 0 131 -39.5t43 -96.5q0 -36 -15.5 -67t-48.5 -53.5t-85.5 -35.5t-127.5 -13h-21.5t-21.5 1q-2 -8 -3 -15.5t-1 -14.5q0 -38 25.5 -58.5t67.5 -20.5q26 0 55 10.5t56 36.5q15 -20 30.5 -39.5t29.5 -39.5q-47 -37 -94 -49t-94 -12q-81 0 -131.5 40.5
t-50.5 121.5q0 64 14 126t44.5 110.5t79.5 78t118 29.5zM283 406q-54 0 -83 -33.5t-43 -91.5q11 -1 21.5 -1h19.5q49 0 79 6.5t46.5 17t22 23.5t5.5 25q0 24 -15 39t-53 15zM424 690q21 0 34.5 -13.5t13.5 -33.5q0 -28 -22 -48.5t-49 -20.5q-20 0 -33.5 13t-13.5 33
q0 28 21 49t49 21zM227 690q22 0 35 -13.5t13 -33.5q0 -14 -6 -26t-16 -22t-22.5 -15.5t-25.5 -5.5q-21 0 -34.5 13t-13.5 33q0 28 21.5 49t48.5 21z" />
    <glyph glyph-name="igrave" unicode="&#xec;" horiz-adv-x="268" 
d="M216 548l-156 172l86 35l119 -177zM258 496l-64 -329q-4 -19 -4 -35q0 -26 12 -34t37 -8l-20 -92h-18q-57 0 -89 25t-32 79q0 21 4 41l68 353h106z" />
    <glyph glyph-name="iacute" unicode="&#xed;" horiz-adv-x="281" 
d="M156 570l113 185l92 -31l-147 -178zM235 496l-64 -329q-4 -19 -4 -35q0 -26 12 -34t37 -8l-20 -92h-18q-57 0 -89 25t-32 79q0 21 4 41l68 353h106z" />
    <glyph glyph-name="icircumflex" unicode="&#xee;" horiz-adv-x="323" 
d="M260 651l-164 -108l-36 42l179 153h70l115 -152l-54 -42zM279 496l-64 -329q-4 -19 -4 -35q0 -26 12 -34t37 -8l-20 -92h-18q-57 0 -89 25t-32 79q0 21 4 41l68 353h106z" />
    <glyph glyph-name="idieresis" unicode="&#xef;" horiz-adv-x="289" 
d="M329 690q22 0 35 -13.5t13 -33.5q0 -14 -6 -26t-16 -22t-23 -15.5t-26 -5.5q-20 0 -33.5 13t-13.5 33q0 14 6 26.5t16 22.5t22.5 15.5t25.5 5.5zM133 690q21 0 34 -13.5t13 -33.5q0 -27 -21.5 -48t-48.5 -21q-20 0 -33.5 13t-13.5 33q0 28 21 49t49 21zM247 496l-64 -329
q-4 -19 -4 -35q0 -26 12 -34t37 -8l-20 -92h-18q-57 0 -89 25t-32 79q0 21 4 41l68 353h106z" />
    <glyph glyph-name="eth" unicode="&#xf0;" horiz-adv-x="508" 
d="M487 611q14 -32 19 -66t5 -69q0 -46 -7 -93t-16 -95l-20 -107q-18 -96 -74.5 -140.5t-146.5 -44.5q-43 0 -79.5 13t-63.5 35.5t-42 54t-15 69.5q-1 9 0 18t3 18l17 90q8 41 24.5 74.5t42 57t61 36.5t81.5 13q16 0 34.5 -3.5t36 -10t33 -16.5t25.5 -22q3 0 5 7.5t2.5 17
l1 19t0.5 13.5q0 21 -3 40t-10 33q-16 -11 -31.5 -21.5t-32.5 -21.5q-8 12 -16 23.5t-16 23.5l65 43q-16 16 -41.5 30t-70.5 25l26 82q57 -8 101 -29t69 -50l85 57l16 -24t16 -23zM377 263q1 5 1.5 10.5t0.5 10.5q0 42 -30 67t-69 25q-45 0 -73.5 -25.5t-37.5 -75.5l-13 -70
q-1 -6 -1.5 -12t-0.5 -11q0 -42 26.5 -65.5t67.5 -23.5q46 0 75 22t40 78z" />
    <glyph glyph-name="ntilde" unicode="&#xf1;" horiz-adv-x="513" 
d="M324 0l60 309q3 16 3 30q0 33 -17.5 46.5t-45.5 13.5q-55 0 -143 -54l-67 -345h-106l97 495h95l1 -47q34 19 59 29.5t44 15.5t33.5 6.5t27.5 1.5q65 0 99 -33.5t34 -93.5q0 -11 -1 -23.5t-4 -26.5l-62 -324h-107zM272 705q18 0 34 -6.5t30.5 -15t27 -15t24.5 -6.5
q15 0 31.5 10t38.5 35q13 -8 27.5 -19t28.5 -19q-29 -52 -61 -73.5t-64 -21.5q-18 0 -34 6t-30.5 13.5t-28.5 14t-28 6.5q-17 0 -32 -8.5t-39 -33.5l-55 38q28 48 61.5 71.5t68.5 23.5z" />
    <glyph glyph-name="ograve" unicode="&#xf2;" horiz-adv-x="513" 
d="M464 172q-19 -95 -78 -136t-146 -41q-36 0 -71 10.5t-62 32t-43.5 54t-16.5 77.5q0 11 1 22t3 23l19 104q17 89 72 136t151 47q45 0 81 -13.5t61.5 -37.5t39.5 -56.5t14 -70.5q0 -22 -4 -41zM380 282q3 15 3 29q0 45 -27.5 68.5t-67.5 23.5q-43 0 -73.5 -22.5
t-41.5 -79.5l-17 -94q-2 -8 -2 -14.5v-12.5q0 -24 8 -40.5t21 -27t29 -15t32 -4.5q20 0 38.5 4.5t34 15.5t27.5 31t18 51zM332 548l-156 172l86 35l119 -177z" />
    <glyph glyph-name="oacute" unicode="&#xf3;" horiz-adv-x="513" 
d="M464 172q-19 -95 -78 -136t-146 -41q-36 0 -71 10.5t-62 32t-43.5 54t-16.5 77.5q0 11 1 22t3 23l19 104q17 89 72 136t151 47q45 0 81 -13.5t61.5 -37.5t39.5 -56.5t14 -70.5q0 -22 -4 -41zM380 282q3 15 3 29q0 45 -27.5 68.5t-67.5 23.5q-43 0 -73.5 -22.5
t-41.5 -79.5l-17 -94q-2 -8 -2 -14.5v-12.5q0 -24 8 -40.5t21 -27t29 -15t32 -4.5q20 0 38.5 4.5t34 15.5t27.5 31t18 51zM269 570l112 185l92 -31l-146 -178z" />
    <glyph glyph-name="ocircumflex" unicode="&#xf4;" horiz-adv-x="513" 
d="M464 172q-19 -95 -78 -136t-146 -41q-36 0 -71 10.5t-62 32t-43.5 54t-16.5 77.5q0 11 1 22t3 23l19 104q17 89 72 136t151 47q45 0 81 -13.5t61.5 -37.5t39.5 -56.5t14 -70.5q0 -22 -4 -41zM380 282q3 15 3 29q0 45 -27.5 68.5t-67.5 23.5q-43 0 -73.5 -22.5
t-41.5 -79.5l-17 -94q-2 -8 -2 -14.5v-12.5q0 -24 8 -40.5t21 -27t29 -15t32 -4.5q20 0 38.5 4.5t34 15.5t27.5 31t18 51zM348 651l-164 -108l-37 44l173 151h70l115 -152l-48 -37z" />
    <glyph glyph-name="otilde" unicode="&#xf5;" horiz-adv-x="513" 
d="M464 172q-19 -95 -78 -136t-146 -41q-36 0 -71 10.5t-62 32t-43.5 54t-16.5 77.5q0 11 1 22t3 23l19 104q17 89 72 136t151 47q45 0 81 -13.5t61.5 -37.5t39.5 -56.5t14 -70.5q0 -22 -4 -41zM380 282q3 15 3 29q0 45 -27.5 68.5t-67.5 23.5q-43 0 -73.5 -22.5
t-41.5 -79.5l-17 -94q-2 -8 -2 -14.5v-12.5q0 -24 8 -40.5t21 -27t29 -15t32 -4.5q20 0 38.5 4.5t34 15.5t27.5 31t18 51zM266 705q18 0 34 -6.5t30.5 -15t27 -15t24.5 -6.5q15 0 31.5 10t38.5 35q13 -8 27.5 -19t28.5 -19q-29 -52 -61 -73.5t-64 -21.5q-18 0 -34 6
t-30.5 13.5t-28.5 14t-28 6.5q-17 0 -32 -8.5t-39 -33.5l-55 38q28 48 61.5 71.5t68.5 23.5z" />
    <glyph glyph-name="odieresis" unicode="&#xf6;" horiz-adv-x="513" 
d="M464 172q-19 -95 -78 -136t-146 -41q-36 0 -71 10.5t-62 32t-43.5 54t-16.5 77.5q0 11 1 22t3 23l19 104q17 89 72 136t151 47q45 0 81 -13.5t61.5 -37.5t39.5 -56.5t14 -70.5q0 -22 -4 -41zM380 282q3 15 3 29q0 45 -27.5 68.5t-67.5 23.5q-43 0 -73.5 -22.5
t-41.5 -79.5l-17 -94q-2 -8 -2 -14.5v-12.5q0 -24 8 -40.5t21 -27t29 -15t32 -4.5q20 0 38.5 4.5t34 15.5t27.5 31t18 51zM446 690q21 0 34.5 -13.5t13.5 -33.5q0 -28 -22 -48.5t-49 -20.5q-20 0 -33.5 13t-13.5 33q0 28 21 49t49 21zM249 690q22 0 35 -13.5t13 -33.5
q0 -14 -6 -26t-16 -22t-22.5 -15.5t-25.5 -5.5q-21 0 -34.5 13t-13.5 33q0 28 21.5 49t48.5 21z" />
    <glyph glyph-name="divide" unicode="&#xf7;" horiz-adv-x="517" 
d="M302 418q-25 0 -40.5 15t-15.5 38q0 16 7 30t18.5 24.5t26 17t30.5 6.5q24 0 39.5 -15t15.5 -38q0 -15 -7 -29.5t-18 -25t-26 -17t-30 -6.5zM33 255l17 80h471l-16 -80h-472zM228 39q-25 0 -40.5 15t-15.5 38q0 32 24.5 54.5t56.5 22.5q26 0 41.5 -14.5t15.5 -37.5
q0 -16 -7 -30.5t-18.5 -25t-26.5 -16.5t-30 -6z" />
    <glyph glyph-name="oslash" unicode="&#xf8;" horiz-adv-x="513" 
d="M27 23l46 50q-26 40 -26 96q0 11 1 22t3 23l19 104q17 89 72 136t151 47q42 0 76 -12t60 -33l42 46l32 -27l-46 -50q15 -21 23.5 -47t8.5 -55q0 -22 -4 -41l-21 -110q-19 -95 -78 -136t-146 -41q-38 0 -75 11.5t-64 35.5l-44 -47zM380 282q3 15 3 29q0 18 -4 30
l-205 -220q13 -15 31.5 -21.5t38.5 -6.5t38.5 4.5t34 15.5t27.5 31t18 51zM154 180q0 -13 1 -18l201 216q-27 25 -68 25q-43 0 -73.5 -22.5t-41.5 -79.5l-17 -94q-2 -8 -2 -14.5v-12.5z" />
    <glyph glyph-name="ugrave" unicode="&#xf9;" horiz-adv-x="516" 
d="M210 495l-61 -309q-3 -15 -3 -28q0 -33 17.5 -47t43.5 -14q27 0 64 14t82 42l67 342h106l-96 -495h-96l-2 48q-30 -18 -54.5 -29t-44.5 -16.5t-36 -7t-29 -1.5q-66 0 -99.5 35.5t-33.5 95.5q0 12 1.5 24.5t3.5 26.5l63 319h107zM339 548l-156 172l86 35l119 -177z" />
    <glyph glyph-name="uacute" unicode="&#xfa;" horiz-adv-x="516" 
d="M210 495l-61 -309q-3 -15 -3 -28q0 -33 17.5 -47t43.5 -14q27 0 64 14t82 42l67 342h106l-96 -495h-96l-2 48q-30 -18 -54.5 -29t-44.5 -16.5t-36 -7t-29 -1.5q-66 0 -99.5 35.5t-33.5 95.5q0 12 1.5 24.5t3.5 26.5l63 319h107zM276 570l112 185l92 -31l-146 -178z" />
    <glyph glyph-name="ucircumflex" unicode="&#xfb;" horiz-adv-x="516" 
d="M210 495l-61 -309q-3 -15 -3 -28q0 -33 17.5 -47t43.5 -14q27 0 64 14t82 42l67 342h106l-96 -495h-96l-2 48q-30 -18 -54.5 -29t-44.5 -16.5t-36 -7t-29 -1.5q-66 0 -99.5 35.5t-33.5 95.5q0 12 1.5 24.5t3.5 26.5l63 319h107zM348 651l-164 -108l-37 44l173 151h70
l115 -152l-48 -37z" />
    <glyph glyph-name="udieresis" unicode="&#xfc;" horiz-adv-x="516" 
d="M210 495l-61 -309q-3 -15 -3 -28q0 -33 17.5 -47t43.5 -14q27 0 64 14t82 42l67 342h106l-96 -495h-96l-2 48q-30 -18 -54.5 -29t-44.5 -16.5t-36 -7t-29 -1.5q-66 0 -99.5 35.5t-33.5 95.5q0 12 1.5 24.5t3.5 26.5l63 319h107zM444 690q21 0 34.5 -13.5t13.5 -33.5
q0 -28 -22 -48.5t-49 -20.5q-20 0 -33.5 13t-13.5 33q0 28 21 49t49 21zM247 690q22 0 35 -13.5t13 -33.5q0 -14 -6 -26t-16 -22t-22.5 -15.5t-25.5 -5.5q-21 0 -34.5 13t-13.5 33q0 28 21.5 49t48.5 21z" />
    <glyph glyph-name="yacute" unicode="&#xfd;" horiz-adv-x="452" 
d="M20 -200l112 210l-32 29l-48 457h108l14 -193l13 -194h4l130 248q11 21 18.5 37t12 29.5t6.5 27t2 28.5v18h107v-17q0 -45 -12.5 -77.5t-33.5 -69.5l-292 -533h-109zM232 570l112 185l92 -31l-146 -178z" />
    <glyph glyph-name="thorn" unicode="&#xfe;" horiz-adv-x="509" 
d="M462 172q-16 -83 -68 -130.5t-140 -47.5q-26 0 -60 5t-76 25l-43 -222h-105l170 887h107l-47 -243q57 31 95.5 42.5t64.5 11.5q64 0 100.5 -30.5t36.5 -95.5q0 -23 -6 -53zM382 312q4 16 4 31q0 32 -17.5 44t-44.5 12q-13 0 -30.5 -4t-36.5 -11t-38.5 -16t-37.5 -19
l-43 -226q38 -18 64.5 -23.5t53.5 -5.5q35 0 63 18.5t38 69.5z" />
    <glyph glyph-name="ydieresis" unicode="&#xff;" horiz-adv-x="452" 
d="M20 -200l112 210l-32 29l-48 457h108l14 -193l13 -194h4l130 248q11 21 18.5 37t12 29.5t6.5 27t2 28.5v18h107v-17q0 -45 -12.5 -77.5t-33.5 -69.5l-292 -533h-109zM408 690q21 0 34.5 -13.5t13.5 -33.5q0 -28 -22 -48.5t-49 -20.5q-20 0 -33.5 13t-13.5 33q0 28 21 49
t49 21zM211 690q22 0 35 -13.5t13 -33.5q0 -14 -6 -26t-16 -22t-22.5 -15.5t-25.5 -5.5q-21 0 -34.5 13t-13.5 33q0 28 21.5 49t48.5 21z" />
    <glyph glyph-name="Amacron" unicode="&#x100;" horiz-adv-x="617" 
d="M426 149h-256l-77 -149h-123l372 689h116l106 -689h-120zM222 248h190l-17 135l-19 160h-4l-77 -154zM271 765l18 90h289l-18 -90h-289z" />
    <glyph glyph-name="amacron" unicode="&#x101;" horiz-adv-x="513" 
d="M66 322q17 88 65 133.5t131 45.5q26 0 61.5 -9.5t82.5 -38.5l19 42h96l-97 -495h-96l-1 46q-31 -15 -55 -25t-43 -15.5t-34 -8t-28 -2.5q-66 0 -100.5 34t-34.5 96q0 20 5 48zM146 187q-3 -17 -3 -30q0 -32 16.5 -45.5t43.5 -13.5t65 15t80 36l39 210q-24 18 -57.5 30.5
t-65.5 12.5q-33 0 -58 -21t-35 -70zM195 593l18 89h290l-18 -89h-290z" />
    <glyph glyph-name="Abreve" unicode="&#x102;" horiz-adv-x="617" 
d="M426 149h-256l-77 -149h-123l372 689h116l106 -689h-120zM222 248h190l-17 135l-19 160h-4l-77 -154zM407 738q-40 0 -65.5 14t-39.5 35t-18 45t-1 45h81q-4 -23 8.5 -43.5t43.5 -20.5q18 0 32 6.5t23.5 16t15.5 20.5t8 21h83q-5 -22 -16.5 -46.5t-32 -45t-50.5 -34
t-72 -13.5z" />
    <glyph glyph-name="abreve" unicode="&#x103;" horiz-adv-x="513" 
d="M66 322q17 88 65 133.5t131 45.5q26 0 61.5 -9.5t82.5 -38.5l19 42h96l-97 -495h-96l-1 46q-31 -15 -55 -25t-43 -15.5t-34 -8t-28 -2.5q-66 0 -100.5 34t-34.5 96q0 20 5 48zM146 187q-3 -17 -3 -30q0 -32 16.5 -45.5t43.5 -13.5t65 15t80 36l39 210q-24 18 -57.5 30.5
t-65.5 12.5q-33 0 -58 -21t-35 -70zM333 568q-39 0 -65 12t-41 32t-20.5 46t-2.5 54h81q-2 -10 0.5 -22t9 -22t17.5 -17t28 -7q16 0 30 6.5t24 16t16.5 21.5t8.5 24h84q-6 -23 -18 -48.5t-32.5 -46.5t-50 -35t-69.5 -14z" />
    <glyph glyph-name="Aogonek" unicode="&#x104;" horiz-adv-x="617" 
d="M426 149h-256l-77 -149h-123l372 689h116l106 -689h-46q-24 -29 -38.5 -50.5t-14.5 -40.5q0 -30 36 -30q11 0 26.5 3.5t35.5 13.5l13 -57q-25 -14 -51.5 -20t-52.5 -6q-38 0 -60.5 20.5t-22.5 52.5q0 23 11.5 51t45.5 63h-2zM222 248h190l-17 135l-19 160h-4l-77 -154z
" />
    <glyph glyph-name="aogonek" unicode="&#x105;" horiz-adv-x="513" 
d="M66 322q17 88 65 133.5t131 45.5q26 0 61.5 -9.5t82.5 -38.5l19 42h96l-97 -495h-25q-24 -29 -38.5 -50.5t-14.5 -40.5q0 -30 36 -30q11 0 26.5 3.5t35.5 13.5l13 -57q-25 -14 -51.5 -20t-52.5 -6q-38 0 -60.5 20.5t-22.5 52.5q0 23 11.5 51.5t46.5 63.5l-1 45
q-31 -15 -55 -25t-43 -15.5t-34 -8t-28 -2.5q-66 0 -100.5 34t-34.5 96q0 20 5 48zM146 187q-3 -17 -3 -30q0 -32 16.5 -45.5t43.5 -13.5t65 15t80 36l39 210q-24 18 -57.5 30.5t-65.5 12.5q-33 0 -58 -21t-35 -70z" />
    <glyph glyph-name="Cacute" unicode="&#x106;" horiz-adv-x="548" 
d="M521 539q-24 25 -65 39t-78 14q-64 0 -105 -34.5t-56 -111.5l-40 -202q-3 -18 -3 -35q0 -29 10.5 -49.5t28 -34t40.5 -20t49 -6.5q37 0 81.5 13t78.5 39l48 -94q-44 -32 -104.5 -48t-118.5 -16q-44 0 -85 12.5t-73 37.5t-51.5 62t-19.5 86q0 12 1.5 24t3.5 26l45 231
q21 108 88 166t187 58q58 0 114 -18t93 -51zM344 783l182 129l57 -74l-204 -104z" />
    <glyph glyph-name="cacute" unicode="&#x107;" horiz-adv-x="439" 
d="M407 56q-44 -35 -91.5 -48t-95.5 -13q-36 0 -68 10t-56.5 29.5t-39 49t-14.5 68.5q0 22 4 41l24 130q17 88 74 133t145 45q22 0 46 -3.5t46 -11.5t41.5 -21.5t34.5 -33.5l-67 -75q-25 30 -54.5 39t-49.5 9q-44 0 -74 -24.5t-41 -78.5l-21 -106q-1 -6 -1.5 -12t-0.5 -12
q0 -21 7.5 -36t20 -24t28 -13.5t31.5 -4.5q22 0 52.5 9t59.5 34zM245 570l112 185l92 -31l-146 -178z" />
    <glyph glyph-name="Ccircumflex" unicode="&#x108;" horiz-adv-x="548" 
d="M521 539q-24 25 -65 39t-78 14q-64 0 -105 -34.5t-56 -111.5l-40 -202q-3 -18 -3 -35q0 -29 10.5 -49.5t28 -34t40.5 -20t49 -6.5q37 0 81.5 13t78.5 39l48 -94q-44 -32 -104.5 -48t-118.5 -16q-44 0 -85 12.5t-73 37.5t-51.5 62t-19.5 86q0 12 1.5 24t3.5 26l45 231
q21 108 88 166t187 58q58 0 114 -18t93 -51zM426 823l-168 -85l-31 42l175 127h68l121 -126l-42 -41z" />
    <glyph glyph-name="ccircumflex" unicode="&#x109;" horiz-adv-x="439" 
d="M407 56q-44 -35 -91.5 -48t-95.5 -13q-36 0 -68 10t-56.5 29.5t-39 49t-14.5 68.5q0 22 4 41l24 130q17 88 74 133t145 45q22 0 46 -3.5t46 -11.5t41.5 -21.5t34.5 -33.5l-67 -75q-25 30 -54.5 39t-49.5 9q-44 0 -74 -24.5t-41 -78.5l-21 -106q-1 -6 -1.5 -12t-0.5 -12
q0 -21 7.5 -36t20 -24t28 -13.5t31.5 -4.5q22 0 52.5 9t59.5 34zM326 651l-164 -108l-37 44l173 151h70l115 -152l-48 -37z" />
    <glyph glyph-name="Cdotaccent" unicode="&#x10a;" horiz-adv-x="548" 
d="M521 539q-24 25 -65 39t-78 14q-64 0 -105 -34.5t-56 -111.5l-40 -202q-3 -18 -3 -35q0 -29 10.5 -49.5t28 -34t40.5 -20t49 -6.5q37 0 81.5 13t78.5 39l48 -94q-44 -32 -104.5 -48t-118.5 -16q-44 0 -85 12.5t-73 37.5t-51.5 62t-19.5 86q0 12 1.5 24t3.5 26l45 231
q21 108 88 166t187 58q58 0 114 -18t93 -51zM401 736q-24 0 -39 16t-13 40q2 27 22.5 47t49.5 20q24 0 39 -15t13 -41q-2 -28 -23 -47.5t-49 -19.5z" />
    <glyph glyph-name="cdotaccent" unicode="&#x10b;" horiz-adv-x="439" 
d="M407 56q-44 -35 -91.5 -48t-95.5 -13q-36 0 -68 10t-56.5 29.5t-39 49t-14.5 68.5q0 22 4 41l24 130q17 88 74 133t145 45q22 0 46 -3.5t46 -11.5t41.5 -21.5t34.5 -33.5l-67 -75q-25 30 -54.5 39t-49.5 9q-44 0 -74 -24.5t-41 -78.5l-21 -106q-1 -6 -1.5 -12t-0.5 -12
q0 -21 7.5 -36t20 -24t28 -13.5t31.5 -4.5q22 0 52.5 9t59.5 34zM306 577q-24 0 -39 16t-13 40q2 27 22.5 47t49.5 20q24 0 39 -15t13 -41q-2 -28 -23 -47.5t-49 -19.5z" />
    <glyph glyph-name="Ccaron" unicode="&#x10c;" horiz-adv-x="548" 
d="M521 539q-24 25 -65 39t-78 14q-64 0 -105 -34.5t-56 -111.5l-40 -202q-3 -18 -3 -35q0 -29 10.5 -49.5t28 -34t40.5 -20t49 -6.5q37 0 81.5 13t78.5 39l48 -94q-44 -32 -104.5 -48t-118.5 -16q-44 0 -85 12.5t-73 37.5t-51.5 62t-19.5 86q0 12 1.5 24t3.5 26l45 231
q21 108 88 166t187 58q58 0 114 -18t93 -51zM574 909l31 -45l-176 -128h-68l-120 126l41 43l123 -82z" />
    <glyph glyph-name="ccaron" unicode="&#x10d;" horiz-adv-x="439" 
d="M407 56q-44 -35 -91.5 -48t-95.5 -13q-36 0 -68 10t-56.5 29.5t-39 49t-14.5 68.5q0 22 4 41l24 130q17 88 74 133t145 45q22 0 46 -3.5t46 -11.5t41.5 -21.5t34.5 -33.5l-67 -75q-25 30 -54.5 39t-49.5 9q-44 0 -74 -24.5t-41 -78.5l-21 -106q-1 -6 -1.5 -12t-0.5 -12
q0 -21 7.5 -36t20 -24t28 -13.5t31.5 -4.5q22 0 52.5 9t59.5 34zM476 740l37 -43l-174 -152h-70l-119 154l51 41q5 -4 21.5 -20t35.5 -34t35.5 -34t21.5 -20z" />
    <glyph glyph-name="Dcaron" unicode="&#x10e;" horiz-adv-x="617" 
d="M565 223q-22 -109 -83 -166t-173 -57h-287l134 689h250q44 0 81.5 -12t65.5 -35t43.5 -56.5t15.5 -76.5q0 -12 -1.5 -24t-3.5 -25zM492 445q4 19 4 38q0 56 -35 79.5t-86 23.5h-125l-94 -485h146q25 0 49 7t44 23t35 43t23 68zM552 909l31 -45l-176 -128h-68l-120 126
l41 43l123 -82z" />
    <glyph glyph-name="dcaron" unicode="&#x10f;" horiz-adv-x="640" 
d="M568 531q29 16 46.5 32t25.5 41q-18 3 -28.5 18.5t-10.5 35.5q0 29 21.5 52.5t59.5 23.5q32 0 48 -20t16 -49t-12 -56t-32.5 -50t-48 -42t-58.5 -31zM67 323q16 83 71 130.5t136 47.5q26 0 61.5 -5.5t74.5 -22.5l48 243h105l-138 -716h-96l-1 49q-54 -32 -93 -43t-66 -11
q-64 0 -100 32.5t-36 95.5q0 12 1.5 24.5t3.5 26.5zM146 182q-3 -15 -3 -28q0 -32 17 -45.5t45 -13.5q13 0 30 3.5t36 10t38.5 16t37.5 20.5l44 227q-33 14 -62 21.5t-56 7.5q-35 0 -63.5 -21t-39.5 -71z" />
    <glyph glyph-name="Dcroat" unicode="&#x110;" horiz-adv-x="617" 
d="M31 392h67l58 297h250q44 0 81.5 -12t65.5 -35t43.5 -56.5t15.5 -76.5q0 -12 -1.5 -24t-3.5 -25l-42 -237q-22 -109 -83 -166t-173 -57h-287l60 311h-67zM492 445q4 19 4 38q0 56 -35 79.5t-86 23.5h-125l-38 -194h98l-15 -81h-99l-40 -210h146q25 0 49 7t44 23t35 43
t23 68z" />
    <glyph glyph-name="dcroat" unicode="&#x111;" horiz-adv-x="513" 
d="M280 639h162l16 77h105l-15 -77h46l-14 -74h-46l-109 -565h-96l-1 49q-54 -32 -93 -43t-66 -11q-64 0 -100 32.5t-36 95.5q0 12 1.5 24.5t3.5 26.5l29 149q16 83 71 130.5t136 47.5q26 0 61.5 -5.5t74.5 -22.5l18 92h-162zM146 182q-3 -15 -3 -28q0 -32 17 -45.5
t45 -13.5q13 0 30 3.5t36 10t38.5 16t37.5 20.5l44 227q-33 14 -62 21.5t-56 7.5q-35 0 -63.5 -21t-39.5 -71z" />
    <glyph glyph-name="Emacron" unicode="&#x112;" horiz-adv-x="568" 
d="M157 689h457l-20 -103h-343l-36 -189h301l-20 -103h-302l-37 -192h370l-20 -102h-484zM253 765l18 90h289l-18 -90h-289z" />
    <glyph glyph-name="emacron" unicode="&#x113;" horiz-adv-x="482" 
d="M289 501q88 0 131 -39.5t43 -96.5q0 -36 -15.5 -67t-48.5 -53.5t-85.5 -35.5t-127.5 -13h-21.5t-21.5 1q-2 -8 -3 -15.5t-1 -14.5q0 -38 25.5 -58.5t67.5 -20.5q26 0 55 10.5t56 36.5q15 -20 30.5 -39.5t29.5 -39.5q-47 -37 -94 -49t-94 -12q-81 0 -131.5 40.5
t-50.5 121.5q0 64 14 126t44.5 110.5t79.5 78t118 29.5zM283 406q-54 0 -83 -33.5t-43 -91.5q11 -1 21.5 -1h19.5q49 0 79 6.5t46.5 17t22 23.5t5.5 25q0 24 -15 39t-53 15zM175 593l18 89h290l-18 -89h-290z" />
    <glyph glyph-name="Ebreve" unicode="&#x114;" horiz-adv-x="568" 
d="M157 689h457l-20 -103h-343l-36 -189h301l-20 -103h-302l-37 -192h370l-20 -102h-484zM392 738q-40 0 -65.5 14t-39.5 35t-18 45t-1 45h81q-4 -23 8.5 -43.5t43.5 -20.5q18 0 32 6.5t23.5 16t15.5 20.5t8 21h83q-5 -22 -16.5 -46.5t-32 -45t-50.5 -34t-72 -13.5z" />
    <glyph glyph-name="ebreve" unicode="&#x115;" horiz-adv-x="482" 
d="M289 501q88 0 131 -39.5t43 -96.5q0 -36 -15.5 -67t-48.5 -53.5t-85.5 -35.5t-127.5 -13h-21.5t-21.5 1q-2 -8 -3 -15.5t-1 -14.5q0 -38 25.5 -58.5t67.5 -20.5q26 0 55 10.5t56 36.5q15 -20 30.5 -39.5t29.5 -39.5q-47 -37 -94 -49t-94 -12q-81 0 -131.5 40.5
t-50.5 121.5q0 64 14 126t44.5 110.5t79.5 78t118 29.5zM283 406q-54 0 -83 -33.5t-43 -91.5q11 -1 21.5 -1h19.5q49 0 79 6.5t46.5 17t22 23.5t5.5 25q0 24 -15 39t-53 15zM311 568q-39 0 -65 12t-41 32t-20.5 46t-2.5 54h81q-2 -10 0.5 -22t9 -22t17.5 -17t28 -7
q16 0 30 6.5t24 16t16.5 21.5t8.5 24h84q-6 -23 -18 -48.5t-32.5 -46.5t-50 -35t-69.5 -14z" />
    <glyph glyph-name="Edotaccent" unicode="&#x116;" horiz-adv-x="568" 
d="M157 689h457l-20 -103h-343l-36 -189h301l-20 -103h-302l-37 -192h370l-20 -102h-484zM395 746q-24 0 -39 16t-13 40q2 27 22.5 47t49.5 20q24 0 39 -15t13 -41q-2 -28 -23 -47.5t-49 -19.5z" />
    <glyph glyph-name="edotaccent" unicode="&#x117;" horiz-adv-x="482" 
d="M289 501q88 0 131 -39.5t43 -96.5q0 -36 -15.5 -67t-48.5 -53.5t-85.5 -35.5t-127.5 -13h-21.5t-21.5 1q-2 -8 -3 -15.5t-1 -14.5q0 -38 25.5 -58.5t67.5 -20.5q26 0 55 10.5t56 36.5q15 -20 30.5 -39.5t29.5 -39.5q-47 -37 -94 -49t-94 -12q-81 0 -131.5 40.5
t-50.5 121.5q0 64 14 126t44.5 110.5t79.5 78t118 29.5zM283 406q-54 0 -83 -33.5t-43 -91.5q11 -1 21.5 -1h19.5q49 0 79 6.5t46.5 17t22 23.5t5.5 25q0 24 -15 39t-53 15zM306 577q-24 0 -39 16t-13 40q2 27 22.5 47t49.5 20q24 0 39 -15t13 -41q-2 -28 -23 -47.5
t-49 -19.5z" />
    <glyph glyph-name="Eogonek" unicode="&#x118;" horiz-adv-x="568" 
d="M157 689h457l-20 -103h-343l-36 -189h301l-20 -103h-302l-37 -192h370l-20 -102h-18q-24 -29 -38.5 -50.5t-14.5 -40.5q0 -30 36 -30q11 0 26.5 3.5t35.5 13.5l13 -57q-25 -14 -51.5 -20t-52.5 -6q-38 0 -60.5 20.5t-22.5 52.5q0 23 11.5 51t45.5 63h-394z" />
    <glyph glyph-name="eogonek" unicode="&#x119;" horiz-adv-x="482" 
d="M289 501q88 0 131 -39.5t43 -96.5q0 -36 -15.5 -67t-48.5 -53.5t-85.5 -35.5t-127.5 -13h-21.5t-21.5 1q-2 -8 -3 -15.5t-1 -14.5q0 -38 25.5 -58.5t67.5 -20.5q26 0 55 10.5t56 36.5q15 -20 30.5 -39.5t29.5 -39.5q-10 -8 -19.5 -14.5t-20.5 -11.5l1 -1
q-24 -29 -38.5 -50.5t-14.5 -40.5q0 -30 36 -30q11 0 26.5 3.5t35.5 13.5l13 -57q-25 -14 -51.5 -20t-52.5 -6q-38 0 -60.5 20.5t-22.5 52.5q0 17 6.5 38t24.5 45q-26 -3 -51 -3q-81 0 -131.5 40.5t-50.5 121.5q0 64 14 126t44.5 110.5t79.5 78t118 29.5zM283 406
q-54 0 -83 -33.5t-43 -91.5q11 -1 21.5 -1h19.5q49 0 79 6.5t46.5 17t22 23.5t5.5 25q0 24 -15 39t-53 15z" />
    <glyph glyph-name="Ecaron" unicode="&#x11a;" horiz-adv-x="568" 
d="M157 689h457l-20 -103h-343l-36 -189h301l-20 -103h-302l-37 -192h370l-20 -102h-484zM558 909l31 -45l-176 -128h-68l-120 126l41 43l123 -82z" />
    <glyph glyph-name="ecaron" unicode="&#x11b;" horiz-adv-x="482" 
d="M289 501q88 0 131 -39.5t43 -96.5q0 -36 -15.5 -67t-48.5 -53.5t-85.5 -35.5t-127.5 -13h-21.5t-21.5 1q-2 -8 -3 -15.5t-1 -14.5q0 -38 25.5 -58.5t67.5 -20.5q26 0 55 10.5t56 36.5q15 -20 30.5 -39.5t29.5 -39.5q-47 -37 -94 -49t-94 -12q-81 0 -131.5 40.5
t-50.5 121.5q0 64 14 126t44.5 110.5t79.5 78t118 29.5zM283 406q-54 0 -83 -33.5t-43 -91.5q11 -1 21.5 -1h19.5q49 0 79 6.5t46.5 17t22 23.5t5.5 25q0 24 -15 39t-53 15zM470 740l37 -43l-174 -152h-70l-119 154l51 41q5 -4 21.5 -20t35.5 -34t35.5 -34t21.5 -20z" />
    <glyph glyph-name="Gcircumflex" unicode="&#x11c;" horiz-adv-x="594" 
d="M514 78q-27 -25 -56.5 -41.5t-59.5 -26t-60 -13.5t-58 -4q-45 0 -85 13.5t-70.5 39.5t-48 63.5t-17.5 84.5q0 13 1.5 25.5t3.5 26.5l44 227q10 54 35.5 95.5t62.5 70t84.5 43t101.5 14.5q29 0 58.5 -4t57 -12t51 -20.5t40.5 -28.5l-68 -89q-24 25 -63 37t-76 12
q-30 0 -58 -8t-51 -25t-40.5 -44t-24.5 -65l-40 -202q-2 -10 -3 -19.5t-1 -17.5q0 -29 10 -50.5t26.5 -35t38.5 -20t45 -6.5q21 0 50.5 6.5t64.5 29.5l27 137h-105l19 102h219zM423 823l-168 -85l-31 42l175 127h68l121 -126l-42 -41z" />
    <glyph glyph-name="gcircumflex" unicode="&#x11d;" horiz-adv-x="507" 
d="M417 -29q-35 -178 -240 -178q-24 0 -50 5t-50.5 14.5t-45.5 23.5t-35 32l73 68q9 -12 23.5 -20.5t30 -14.5t31.5 -8.5t28 -2.5q22 0 43 5t38.5 16.5t31 31.5t19.5 50l12 57q-57 -34 -95.5 -42.5t-64.5 -8.5q-69 0 -101.5 33.5t-32.5 93.5q0 13 1.5 26t3.5 27l25 134
q19 101 77 145t150 44q16 0 41 -3t54.5 -9.5t61 -18t61.5 -28.5zM145 189q-3 -17 -3 -29q0 -33 17.5 -46.5t43.5 -13.5q27 0 65.5 13.5t77.5 39.5l44 226q-29 14 -58.5 20.5t-55.5 6.5q-87 0 -107 -95zM351 651l-164 -108l-37 44l173 151h70l115 -152l-48 -37z" />
    <glyph glyph-name="Gbreve" unicode="&#x11e;" horiz-adv-x="594" 
d="M514 78q-27 -25 -56.5 -41.5t-59.5 -26t-60 -13.5t-58 -4q-45 0 -85 13.5t-70.5 39.5t-48 63.5t-17.5 84.5q0 13 1.5 25.5t3.5 26.5l44 227q10 54 35.5 95.5t62.5 70t84.5 43t101.5 14.5q29 0 58.5 -4t57 -12t51 -20.5t40.5 -28.5l-68 -89q-24 25 -63 37t-76 12
q-30 0 -58 -8t-51 -25t-40.5 -44t-24.5 -65l-40 -202q-2 -10 -3 -19.5t-1 -17.5q0 -29 10 -50.5t26.5 -35t38.5 -20t45 -6.5q21 0 50.5 6.5t64.5 29.5l27 137h-105l19 102h219zM404 738q-40 0 -65.5 14t-39.5 35t-18 45t-1 45h81q-4 -23 8.5 -43.5t43.5 -20.5q18 0 32 6.5
t23.5 16t15.5 20.5t8 21h83q-5 -22 -16.5 -46.5t-32 -45t-50.5 -34t-72 -13.5z" />
    <glyph glyph-name="gbreve" unicode="&#x11f;" horiz-adv-x="507" 
d="M417 -29q-35 -178 -240 -178q-24 0 -50 5t-50.5 14.5t-45.5 23.5t-35 32l73 68q9 -12 23.5 -20.5t30 -14.5t31.5 -8.5t28 -2.5q22 0 43 5t38.5 16.5t31 31.5t19.5 50l12 57q-57 -34 -95.5 -42.5t-64.5 -8.5q-69 0 -101.5 33.5t-32.5 93.5q0 13 1.5 26t3.5 27l25 134
q19 101 77 145t150 44q16 0 41 -3t54.5 -9.5t61 -18t61.5 -28.5zM145 189q-3 -17 -3 -29q0 -33 17.5 -46.5t43.5 -13.5q27 0 65.5 13.5t77.5 39.5l44 226q-29 14 -58.5 20.5t-55.5 6.5q-87 0 -107 -95zM321 568q-39 0 -65 12t-41 32t-20.5 46t-2.5 54h81q-2 -10 0.5 -22
t9 -22t17.5 -17t28 -7q16 0 30 6.5t24 16t16.5 21.5t8.5 24h84q-6 -23 -18 -48.5t-32.5 -46.5t-50 -35t-69.5 -14z" />
    <glyph glyph-name="Gdotaccent" unicode="&#x120;" horiz-adv-x="594" 
d="M514 78q-27 -25 -56.5 -41.5t-59.5 -26t-60 -13.5t-58 -4q-45 0 -85 13.5t-70.5 39.5t-48 63.5t-17.5 84.5q0 13 1.5 25.5t3.5 26.5l44 227q10 54 35.5 95.5t62.5 70t84.5 43t101.5 14.5q29 0 58.5 -4t57 -12t51 -20.5t40.5 -28.5l-68 -89q-24 25 -63 37t-76 12
q-30 0 -58 -8t-51 -25t-40.5 -44t-24.5 -65l-40 -202q-2 -10 -3 -19.5t-1 -17.5q0 -29 10 -50.5t26.5 -35t38.5 -20t45 -6.5q21 0 50.5 6.5t64.5 29.5l27 137h-105l19 102h219zM400 736q-24 0 -39 16t-13 40q2 27 22.5 47t49.5 20q24 0 39 -15t13 -41q-2 -28 -23 -47.5
t-49 -19.5z" />
    <glyph glyph-name="gdotaccent" unicode="&#x121;" horiz-adv-x="507" 
d="M417 -29q-35 -178 -240 -178q-24 0 -50 5t-50.5 14.5t-45.5 23.5t-35 32l73 68q9 -12 23.5 -20.5t30 -14.5t31.5 -8.5t28 -2.5q22 0 43 5t38.5 16.5t31 31.5t19.5 50l12 57q-57 -34 -95.5 -42.5t-64.5 -8.5q-69 0 -101.5 33.5t-32.5 93.5q0 13 1.5 26t3.5 27l25 134
q19 101 77 145t150 44q16 0 41 -3t54.5 -9.5t61 -18t61.5 -28.5zM145 189q-3 -17 -3 -29q0 -33 17.5 -46.5t43.5 -13.5q27 0 65.5 13.5t77.5 39.5l44 226q-29 14 -58.5 20.5t-55.5 6.5q-87 0 -107 -95zM325 577q-24 0 -39 16t-13 40q2 27 22.5 47t49.5 20q24 0 39 -15
t13 -41q-2 -28 -23 -47.5t-49 -19.5z" />
    <glyph glyph-name="Gcommaaccent" unicode="&#x122;" horiz-adv-x="594" 
d="M514 78q-27 -25 -56.5 -41.5t-59.5 -26t-60 -13.5t-58 -4q-45 0 -85 13.5t-70.5 39.5t-48 63.5t-17.5 84.5q0 13 1.5 25.5t3.5 26.5l44 227q10 54 35.5 95.5t62.5 70t84.5 43t101.5 14.5q29 0 58.5 -4t57 -12t51 -20.5t40.5 -28.5l-68 -89q-24 25 -63 37t-76 12
q-30 0 -58 -8t-51 -25t-40.5 -44t-24.5 -65l-40 -202q-2 -10 -3 -19.5t-1 -17.5q0 -29 10 -50.5t26.5 -35t38.5 -20t45 -6.5q21 0 50.5 6.5t64.5 29.5l27 137h-105l19 102h219zM150 -247q29 16 46.5 32t25.5 41q-18 3 -28.5 18.5t-10.5 35.5q0 29 21.5 52.5t59.5 23.5
q32 0 48 -20t16 -49t-12 -56t-32.5 -50t-48 -42t-58.5 -31z" />
    <glyph glyph-name="gcommaaccent" unicode="&#x123;" horiz-adv-x="507" 
d="M445 765q-29 -16 -46.5 -32t-25.5 -41q18 -3 28.5 -18.5t10.5 -35.5q0 -29 -21.5 -52.5t-59.5 -23.5q-32 0 -48.5 20t-16.5 49t12 56t33 50t48.5 42t58.5 32zM417 -29q-35 -178 -240 -178q-24 0 -50 5t-50.5 14.5t-45.5 23.5t-35 32l73 68q9 -12 23.5 -20.5t30 -14.5
t31.5 -8.5t28 -2.5q22 0 43 5t38.5 16.5t31 31.5t19.5 50l12 57q-57 -34 -95.5 -42.5t-64.5 -8.5q-69 0 -101.5 33.5t-32.5 93.5q0 13 1.5 26t3.5 27l25 134q19 101 77 145t150 44q16 0 41 -3t54.5 -9.5t61 -18t61.5 -28.5zM145 189q-3 -17 -3 -29q0 -33 17.5 -46.5
t43.5 -13.5q27 0 65.5 13.5t77.5 39.5l44 226q-29 14 -58.5 20.5t-55.5 6.5q-87 0 -107 -95z" />
    <glyph glyph-name="Hcircumflex" unicode="&#x124;" horiz-adv-x="620" 
d="M419 0l58 298h-289l-58 -298h-114l134 689h114l-56 -288h289l56 288h116l-134 -689h-116zM436 823l-168 -85l-31 42l175 127h68l121 -126l-42 -41z" />
    <glyph glyph-name="hcircumflex" unicode="&#x125;" horiz-adv-x="513" 
d="M324 0l60 309q3 16 3 29q0 34 -18 47.5t-45 13.5t-63.5 -13t-79.5 -41l-67 -345h-106l140 716h106l-53 -268q31 18 56 28.5t44.5 16t35 7t28.5 1.5q65 0 99 -34t34 -94q0 -11 -1 -23.5t-4 -26.5l-62 -323h-107zM226 823l-168 -85l-31 42l175 127h68l121 -126l-42 -41z
" />
    <glyph glyph-name="Hbar" unicode="&#x126;" horiz-adv-x="620" 
d="M419 0l58 298h-289l-58 -298h-114l102 524h-41l14 75h41l18 90h114l-18 -90h289l18 90h116l-18 -90h40l-15 -75h-39l-102 -524h-116zM497 401l24 123h-289l-24 -123h289z" />
    <glyph glyph-name="hbar" unicode="&#x127;" horiz-adv-x="513" 
d="M77 639h56l15 77h106l-16 -77h204l-15 -74h-203l-23 -117q31 18 56 28.5t44.5 16t35 7t28.5 1.5q65 0 99 -34t34 -94q0 -11 -1 -23.5t-4 -26.5l-62 -323h-107l60 309q3 16 3 29q0 34 -18 47.5t-45 13.5t-63.5 -13t-79.5 -41l-67 -345h-106l110 565h-55z" />
    <glyph glyph-name="Itilde" unicode="&#x128;" horiz-adv-x="273" 
d="M288 689l-134 -689h-114l134 689h114zM198 868q18 0 34 -6.5t30.5 -15t27 -15t24.5 -6.5q15 0 31.5 10t38.5 35q13 -8 27.5 -19t28.5 -19q-29 -52 -61 -73.5t-64 -21.5q-18 0 -34 6t-30.5 13.5t-28.5 14t-28 6.5q-17 0 -32 -8.5t-39 -33.5l-55 38q28 48 61.5 71.5
t68.5 23.5z" />
    <glyph glyph-name="itilde" unicode="&#x129;" horiz-adv-x="333" 
d="M271 496l-64 -329q-2 -11 -3.5 -19.5t-0.5 -15.5q0 -25 12.5 -32.5t36.5 -9.5l-20 -92h-18q-57 0 -89 25t-32 79q0 21 4 41l68 353h106zM186 705q18 0 34 -6.5t30.5 -15t27 -15t24.5 -6.5q15 0 31.5 10t38.5 35q13 -8 27.5 -19t28.5 -19q-29 -52 -61 -73.5t-64 -21.5
q-18 0 -34 6t-30.5 13.5t-28.5 14t-28 6.5q-17 0 -32 -8.5t-39 -33.5l-55 38q28 48 61.5 71.5t68.5 23.5z" />
    <glyph glyph-name="Imacron" unicode="&#x12a;" horiz-adv-x="273" 
d="M288 689l-134 -689h-114l134 689h114zM103 765l18 90h289l-18 -90h-289z" />
    <glyph glyph-name="imacron" unicode="&#x12b;" horiz-adv-x="295" 
d="M255 496l-64 -329q-2 -11 -3.5 -19.5t-0.5 -15.5q0 -25 12.5 -32.5t36.5 -9.5l-20 -92h-18q-57 0 -89 25t-32 79q0 21 4 41l68 353h106zM76 593l18 89h290l-18 -89h-290z" />
    <glyph glyph-name="Ibreve" unicode="&#x12c;" horiz-adv-x="273" 
d="M236 738q-40 0 -65.5 14t-39.5 35t-18 45t-1 45h81q-4 -23 8.5 -43.5t43.5 -20.5q18 0 32 6.5t23.5 16t15.5 20.5t8 21h83q-5 -22 -16.5 -46.5t-32 -45t-50.5 -34t-72 -13.5zM288 689l-134 -689h-114l134 689h114z" />
    <glyph glyph-name="ibreve" unicode="&#x12d;" horiz-adv-x="311" 
d="M276 496l-64 -329q-2 -11 -3.5 -19.5t-0.5 -15.5q0 -25 12.5 -32.5t36.5 -9.5l-20 -92h-18q-57 0 -89 25t-32 79q0 21 4 41l68 353h106zM231 574q-39 0 -65 12t-41 32t-20.5 46t-2.5 54h81q-2 -10 0.5 -22t9 -22t17.5 -17t28 -7q16 0 30 6.5t24 16t16.5 21.5t8.5 24h84
q-6 -23 -18 -48.5t-32.5 -46.5t-50 -35t-69.5 -14z" />
    <glyph glyph-name="Iogonek" unicode="&#x12e;" horiz-adv-x="273" 
d="M288 689l-134 -689h-21q-24 -29 -38.5 -50.5t-14.5 -40.5q0 -30 36 -30q11 0 26.5 3.5t35.5 13.5l13 -57q-25 -14 -51.5 -20t-52.5 -6q-38 0 -60.5 20.5t-22.5 52.5q0 23 11.5 51t45.5 63h-21l134 689h114z" />
    <glyph glyph-name="iogonek" unicode="&#x12f;" horiz-adv-x="267" 
d="M235 496l-64 -329q-2 -11 -3.5 -19.5t-0.5 -15.5q0 -25 12.5 -32.5t36.5 -9.5l-20 -92h-4q-23 -28 -37 -49t-14 -40q0 -30 36 -30q11 0 26.5 3.5t35.5 13.5l13 -57q-25 -14 -51.5 -20t-52.5 -6q-38 0 -60.5 20.5t-22.5 52.5q0 24 12.5 52.5t48.5 65.5q-33 10 -51 34
t-18 64q0 21 4 41l68 353h106zM148 637q5 26 25.5 43.5t45.5 17.5q23 0 37 -14t14 -35q0 -15 -6.5 -28t-17 -23t-23.5 -16t-27 -6q-22 0 -35.5 14t-13.5 35q0 8 1 12z" />
    <glyph glyph-name="Idotaccent" unicode="&#x130;" horiz-adv-x="273" 
d="M288 689l-134 -689h-114l134 689h114zM242 736q-24 0 -39 16t-13 40q2 27 22.5 47t49.5 20q24 0 39 -15t13 -41q-2 -28 -23 -47.5t-49 -19.5z" />
    <glyph glyph-name="dotlessi" unicode="&#x131;" horiz-adv-x="267" 
d="M235 496l-64 -329q-2 -11 -3.5 -19.5t-0.5 -15.5q0 -25 12.5 -32.5t36.5 -9.5l-20 -92h-18q-57 0 -89 25t-32 79q0 21 4 41l68 353h106z" />
    <glyph glyph-name="IJ" unicode="&#x132;" horiz-adv-x="765" 
d="M288 689l-134 -689h-114l134 689h114zM689 219q-21 -109 -85 -167.5t-179 -58.5q-59 0 -115 16t-87 45l64 87q30 -24 70.5 -33t70.5 -9q28 0 52.5 7.5t44 24.5t33.5 45t22 69l86 444h115z" />
    <glyph glyph-name="ij" unicode="&#x133;" horiz-adv-x="490" 
d="M148 637q5 26 25.5 43.5t45.5 17.5q23 0 37 -14t14 -35q0 -15 -6.5 -28t-17 -23t-23.5 -16t-27 -6q-22 0 -35.5 14t-13.5 35q0 8 1 12zM235 496l-64 -329q-2 -11 -3.5 -19.5t-0.5 -15.5q0 -25 12.5 -32.5t36.5 -9.5l-20 -92h-18q-57 0 -89 25t-32 79q0 21 4 41l68 353
h106zM368 -49q-6 -34 -15.5 -63.5t-26.5 -51.5t-44.5 -35t-70.5 -13q-14 0 -31 1.5t-36 5.5l18 98q51 -5 73 12t30 60l103 531h105zM456 698q23 0 37.5 -14t14.5 -35q0 -15 -6.5 -28t-17 -22.5t-24 -15.5t-27.5 -6q-21 0 -35.5 14t-14.5 35q0 14 6.5 27t16.5 23t23 16t27 6z
" />
    <glyph glyph-name="Jcircumflex" unicode="&#x134;" horiz-adv-x="528" 
d="M452 220q-21 -109 -85 -167.5t-179 -58.5q-59 0 -115 16t-87 45l64 87q30 -24 70.5 -33t70.5 -9q28 0 52.5 7.5t44 24.5t33.5 45t22 69l86 444h115zM514 825l-168 -85l-31 42l175 127h68l121 -126l-42 -41z" />
    <glyph glyph-name="jcircumflex" unicode="&#x135;" horiz-adv-x="341" 
d="M260 651l-165 -108l-36 42l179 153h70l115 -152l-53 -42zM178 -49q-6 -34 -15.5 -63.5t-26.5 -51.5t-44.5 -35t-70.5 -13q-14 0 -31 1.5t-36 5.5l18 98q51 -5 73 12t30 60l103 531h105z" />
    <glyph glyph-name="Kcommaaccent" unicode="&#x136;" horiz-adv-x="600" 
d="M313 331l-145 -139l-37 -192h-115l134 689h114l-64 -333l340 333h136l-279 -275l164 -414h-122zM159 -232q29 16 46.5 32t25.5 41q-18 3 -28.5 18.5t-10.5 35.5q0 29 21.5 52.5t59.5 23.5q32 0 48 -20t16 -49t-12 -56t-32.5 -50t-48 -42t-58.5 -31z" />
    <glyph glyph-name="kcommaaccent" unicode="&#x137;" horiz-adv-x="491" 
d="M20 0l136 716h105l-73 -379h58q29 0 54.5 11.5t45.5 48.5l55 99h118l-70 -124q-17 -29 -36.5 -52.5t-53.5 -33.5q19 -7 30.5 -17.5t17.5 -24t9 -29t5 -31.5l25 -184h-107l-20 160q-5 44 -22 60t-55 16h-73l-45 -236h-104zM101 -247q29 16 46.5 32t25.5 41
q-18 3 -28.5 18.5t-10.5 35.5q0 29 21.5 52.5t59.5 23.5q32 0 48 -20t16 -49t-12 -56t-32.5 -50t-48 -42t-58.5 -31z" />
    <glyph glyph-name="kgreenlandic" unicode="&#x138;" horiz-adv-x="497" 
d="M503 496l-63 -143q-17 -36 -39 -61t-52 -34q33 -11 43.5 -35t16.5 -61l23 -162h-108l-16 140q-3 23 -9.5 37t-17 21.5t-24.5 10t-31 2.5h-73l-38 -211h-103l91 496h104l-37 -191h64q15 0 28.5 2t26 8.5t24 20t22.5 36.5l57 124h111z" />
    <glyph glyph-name="Lacute" unicode="&#x139;" horiz-adv-x="546" 
d="M24 0l134 689h114l-115 -587h355l-20 -102h-468zM195 783l182 129l57 -74l-204 -104z" />
    <glyph glyph-name="lacute" unicode="&#x13a;" horiz-adv-x="258" 
d="M168 -3q-66 0 -95 24t-29 72q0 10 1.5 21.5t3.5 23.5l111 578h104l-108 -569q-1 -6 -1.5 -10.5t-0.5 -9.5q0 -21 15.5 -27.5t50.5 -7.5l-18 -95h-34zM189 800l182 129l57 -74l-204 -104z" />
    <glyph glyph-name="Lcommaaccent" unicode="&#x13b;" horiz-adv-x="546" 
d="M24 0l134 689h114l-115 -587h355l-20 -102h-468zM126 -247q29 16 46.5 32t25.5 41q-18 3 -28.5 18.5t-10.5 35.5q0 29 21.5 52.5t59.5 23.5q32 0 48 -20t16 -49t-12 -56t-32.5 -50t-48 -42t-58.5 -31z" />
    <glyph glyph-name="lcommaaccent" unicode="&#x13c;" horiz-adv-x="258" 
d="M168 -3q-66 0 -95 24t-29 72q0 10 1.5 21.5t3.5 23.5l111 578h104l-108 -569q-1 -6 -1.5 -10.5t-0.5 -9.5q0 -21 15.5 -27.5t50.5 -7.5l-18 -95h-34zM-21 -246q29 16 46.5 32t25.5 41q-18 3 -28.5 18.5t-10.5 35.5q0 29 21.5 52.5t59.5 23.5q32 0 48 -20t16 -49t-12 -56
t-32.5 -50t-48 -42t-58.5 -31z" />
    <glyph glyph-name="Lcaron" unicode="&#x13d;" horiz-adv-x="546" 
d="M24 0l134 689h114l-115 -587h355l-20 -102h-468zM329 491q29 16 46.5 32t25.5 41q-18 3 -28.5 18.5t-10.5 35.5q0 29 21.5 52.5t59.5 23.5q32 0 48 -20t16 -49t-12 -56t-32.5 -50t-48 -42t-58.5 -31z" />
    <glyph glyph-name="lcaron" unicode="&#x13e;" horiz-adv-x="370" 
d="M275 521q29 16 46.5 32t25.5 41q-18 3 -28.5 18.5t-10.5 35.5q0 29 21.5 52.5t59.5 23.5q32 0 48 -20t16 -49t-12 -56t-32.5 -50t-48 -42t-58.5 -31zM168 -3q-66 0 -95 24t-29 72q0 10 1.5 21.5t3.5 23.5l111 578h104l-108 -569q-1 -6 -1.5 -10.5t-0.5 -9.5
q0 -21 15.5 -27.5t50.5 -7.5l-18 -95h-34z" />
    <glyph glyph-name="Ldot" unicode="&#x13f;" horiz-adv-x="546" 
d="M24 0l134 689h114l-115 -587h355l-20 -102h-468zM368 298q-24 0 -39 16t-13 40q2 27 22.5 47t49.5 20q24 0 39 -15t13 -41q-2 -28 -23 -47.5t-49 -19.5z" />
    <glyph glyph-name="ldot" unicode="&#x140;" horiz-adv-x="344" 
d="M314 318q-24 0 -39 16t-13 40q2 27 22.5 47t49.5 20q24 0 39 -15t13 -41q-2 -28 -23 -47.5t-49 -19.5zM168 -3q-66 0 -95 24t-29 72q0 10 1.5 21.5t3.5 23.5l111 578h104l-108 -569q-1 -6 -1.5 -10.5t-0.5 -9.5q0 -21 15.5 -27.5t50.5 -7.5l-18 -95h-34z" />
    <glyph glyph-name="Lslash" unicode="&#x141;" horiz-adv-x="546" 
d="M24 0l41 214l-48 -25l-25 68l91 48l75 384h114l-62 -318l154 81l26 -68l-198 -104l-35 -178h355l-20 -102h-468z" />
    <glyph glyph-name="lslash" unicode="&#x142;" horiz-adv-x="323" 
d="M197 -3q-66 0 -95 24t-29 72q0 10 1.5 21.5t3.5 23.5l26 138l-56 -30l-24 67l97 52l68 351h104l-55 -290l71 38q7 -17 13.5 -33.5t12.5 -33.5q-30 -17 -58 -32t-56 -29l-36 -189q-1 -6 -1.5 -10.5t-0.5 -9.5q0 -21 15.5 -27.5t50.5 -7.5l-18 -95h-34z" />
    <glyph glyph-name="Nacute" unicode="&#x143;" horiz-adv-x="660" 
d="M483 204q23 122 46 242.5t46 242.5h113l-131 -689h-107q-6 14 -23 50t-39 84t-46.5 101.5t-47 102.5t-40 87.5t-24.5 55.5h-6l-92 -481h-113l131 689h106q6 -13 23 -49.5t39.5 -85.5t47.5 -104.5t47.5 -105t39.5 -87.5t24 -53h6zM360 783l182 129l57 -74l-204 -104z" />
    <glyph glyph-name="nacute" unicode="&#x144;" horiz-adv-x="513" 
d="M324 0l60 309q3 16 3 30q0 33 -17.5 46.5t-45.5 13.5q-55 0 -143 -54l-67 -345h-106l97 495h95l1 -47q34 19 59 29.5t44 15.5t33.5 6.5t27.5 1.5q65 0 99 -33.5t34 -93.5q0 -11 -1 -23.5t-4 -26.5l-62 -324h-107zM248 570l112 185l92 -31l-146 -178z" />
    <glyph glyph-name="Ncommaaccent" unicode="&#x145;" horiz-adv-x="660" 
d="M483 204q23 122 46 242.5t46 242.5h113l-131 -689h-107q-6 14 -23 50t-39 84t-46.5 101.5t-47 102.5t-40 87.5t-24.5 55.5h-6l-92 -481h-113l131 689h106q6 -13 23 -49.5t39.5 -85.5t47.5 -104.5t47.5 -105t39.5 -87.5t24 -53h6zM184 -227q29 16 46.5 32t25.5 41
q-18 3 -28.5 18.5t-10.5 35.5q0 29 21.5 52.5t59.5 23.5q32 0 48 -20t16 -49t-12 -56t-32.5 -50t-48 -42t-58.5 -31z" />
    <glyph glyph-name="ncommaaccent" unicode="&#x146;" horiz-adv-x="513" 
d="M324 0l60 309q3 16 3 30q0 33 -17.5 46.5t-45.5 13.5q-55 0 -143 -54l-67 -345h-106l97 495h95l1 -47q34 19 59 29.5t44 15.5t33.5 6.5t27.5 1.5q65 0 99 -33.5t34 -93.5q0 -11 -1 -23.5t-4 -26.5l-62 -324h-107zM103 -247q29 16 46.5 32t25.5 41q-18 3 -28.5 18.5
t-10.5 35.5q0 29 21.5 52.5t59.5 23.5q32 0 48 -20t16 -49t-12 -56t-32.5 -50t-48 -42t-58.5 -31z" />
    <glyph glyph-name="Ncaron" unicode="&#x147;" horiz-adv-x="660" 
d="M483 204q23 122 46 242.5t46 242.5h113l-131 -689h-107q-6 14 -23 50t-39 84t-46.5 101.5t-47 102.5t-40 87.5t-24.5 55.5h-6l-92 -481h-113l131 689h106q6 -13 23 -49.5t39.5 -85.5t47.5 -104.5t47.5 -105t39.5 -87.5t24 -53h6zM592 909l31 -45l-176 -128h-68l-120 126
l41 43l123 -82z" />
    <glyph glyph-name="ncaron" unicode="&#x148;" horiz-adv-x="513" 
d="M324 0l60 309q3 16 3 30q0 33 -17.5 46.5t-45.5 13.5q-55 0 -143 -54l-67 -345h-106l97 495h95l1 -47q34 19 59 29.5t44 15.5t33.5 6.5t27.5 1.5q65 0 99 -33.5t34 -93.5q0 -11 -1 -23.5t-4 -26.5l-62 -324h-107zM485 740l37 -43l-174 -152h-70l-119 154l51 41
q5 -4 21.5 -20t35.5 -34t35.5 -34t21.5 -20z" />
    <glyph glyph-name="napostrophe" unicode="&#x149;" horiz-adv-x="624" 
d="M435 0l60 309q3 16 3 30q0 33 -17.5 46.5t-45.5 13.5q-55 0 -143 -54l-67 -345h-106l97 495h95l1 -47q34 19 59 29.5t44 15.5t33.5 6.5t27.5 1.5q65 0 99 -33.5t34 -93.5q0 -11 -1 -23.5t-4 -26.5l-62 -324h-107zM42 480q29 16 46.5 32t25.5 41q-18 3 -28.5 18.5
t-10.5 35.5q0 29 21.5 52.5t59.5 23.5q32 0 48 -20t16 -49t-12 -56t-32.5 -50t-48 -42t-58.5 -31z" />
    <glyph glyph-name="Eng" unicode="&#x14a;" horiz-adv-x="645" 
d="M218 477l-88 -477h-111l127 689h103l144 -309l78 -171h5l88 480h112l-141 -761q-11 -60 -43.5 -85.5t-85.5 -25.5q-23 0 -45 5.5t-45 16.5l31 80q12 -3 22.5 -5t18.5 -2q38 0 48 47l8 42l-146 313l-73 163h-7z" />
    <glyph glyph-name="eng" unicode="&#x14b;" horiz-adv-x="502" 
d="M408 -72q-11 -60 -47.5 -85.5t-82.5 -25.5q-23 0 -45 5.5t-44 16.5l30 79q10 -3 20.5 -5t18.5 -2q20 0 33 11t18 36l65 351q3 15 3 28q0 29 -15 45.5t-47 16.5q-26 0 -61.5 -13t-77.5 -37l-64 -349h-104l91 495h92l1 -49q33 18 59 29t46.5 17t36.5 7.5t28 1.5
q67 0 96 -35t29 -90q0 -13 -1.5 -25.5t-3.5 -26.5l-74 -396v0z" />
    <glyph glyph-name="Omacron" unicode="&#x14c;" horiz-adv-x="622" 
d="M576 216q-20 -106 -90.5 -164.5t-191.5 -58.5q-45 0 -87.5 13.5t-75 40.5t-52 66.5t-19.5 91.5q0 27 6 57l41 211q21 108 91 165.5t185 57.5q49 0 93 -15t76 -42t51 -65.5t19 -85.5q0 -11 -1 -22t-3 -23zM504 438q2 9 3 17t1 16q0 30 -11 52.5t-29 37.5t-41 22.5t-48 7.5
q-62 0 -105 -33.5t-57 -108.5l-38 -199q-4 -19 -4 -38q0 -30 10 -51.5t27 -35.5t39 -20.5t46 -6.5q72 0 113.5 38t56.5 114zM279 765l18 90h289l-18 -90h-289z" />
    <glyph glyph-name="omacron" unicode="&#x14d;" horiz-adv-x="513" 
d="M464 172q-19 -95 -78 -136t-146 -41q-36 0 -71 10.5t-62 32t-43.5 54t-16.5 77.5q0 11 1 22t3 23l19 104q17 89 72 136t151 47q45 0 81 -13.5t61.5 -37.5t39.5 -56.5t14 -70.5q0 -22 -4 -41zM380 282q3 15 3 29q0 45 -27.5 68.5t-67.5 23.5q-43 0 -73.5 -22.5
t-41.5 -79.5l-17 -94q-2 -8 -2 -14.5v-12.5q0 -24 8 -40.5t21 -27t29 -15t32 -4.5q20 0 38.5 4.5t34 15.5t27.5 31t18 51zM186 593l18 89h290l-18 -89h-290z" />
    <glyph glyph-name="Obreve" unicode="&#x14e;" horiz-adv-x="622" 
d="M576 216q-20 -106 -90.5 -164.5t-191.5 -58.5q-45 0 -87.5 13.5t-75 40.5t-52 66.5t-19.5 91.5q0 27 6 57l41 211q21 108 91 165.5t185 57.5q49 0 93 -15t76 -42t51 -65.5t19 -85.5q0 -11 -1 -22t-3 -23zM504 438q2 9 3 17t1 16q0 30 -11 52.5t-29 37.5t-41 22.5t-48 7.5
q-62 0 -105 -33.5t-57 -108.5l-38 -199q-4 -19 -4 -38q0 -30 10 -51.5t27 -35.5t39 -20.5t46 -6.5q72 0 113.5 38t56.5 114zM412 738q-40 0 -65.5 14t-39.5 35t-18 45t-1 45h81q-4 -23 8.5 -43.5t43.5 -20.5q18 0 32 6.5t23.5 16t15.5 20.5t8 21h83q-5 -22 -16.5 -46.5
t-32 -45t-50.5 -34t-72 -13.5z" />
    <glyph glyph-name="obreve" unicode="&#x14f;" horiz-adv-x="513" 
d="M464 172q-19 -95 -78 -136t-146 -41q-36 0 -71 10.5t-62 32t-43.5 54t-16.5 77.5q0 11 1 22t3 23l19 104q17 89 72 136t151 47q45 0 81 -13.5t61.5 -37.5t39.5 -56.5t14 -70.5q0 -22 -4 -41zM380 282q3 15 3 29q0 45 -27.5 68.5t-67.5 23.5q-43 0 -73.5 -22.5
t-41.5 -79.5l-17 -94q-2 -8 -2 -14.5v-12.5q0 -24 8 -40.5t21 -27t29 -15t32 -4.5q20 0 38.5 4.5t34 15.5t27.5 31t18 51zM326 568q-39 0 -65 12t-41 32t-20.5 46t-2.5 54h81q-2 -10 0.5 -22t9 -22t17.5 -17t28 -7q16 0 30 6.5t24 16t16.5 21.5t8.5 24h84q-6 -23 -18 -48.5
t-32.5 -46.5t-50 -35t-69.5 -14z" />
    <glyph glyph-name="Ohungarumlaut" unicode="&#x150;" horiz-adv-x="622" 
d="M576 216q-20 -106 -90.5 -164.5t-191.5 -58.5q-45 0 -87.5 13.5t-75 40.5t-52 66.5t-19.5 91.5q0 27 6 57l41 211q21 108 91 165.5t185 57.5q49 0 93 -15t76 -42t51 -65.5t19 -85.5q0 -11 -1 -22t-3 -23zM504 438q2 9 3 17t1 16q0 30 -11 52.5t-29 37.5t-41 22.5t-48 7.5
q-62 0 -105 -33.5t-57 -108.5l-38 -199q-4 -19 -4 -38q0 -30 10 -51.5t27 -35.5t39 -20.5t46 -6.5q72 0 113.5 38t56.5 114zM265 781l161 132l68 -72l-187 -108zM446 781l178 132l60 -72l-201 -108z" />
    <glyph glyph-name="ohungarumlaut" unicode="&#x151;" horiz-adv-x="513" 
d="M464 172q-19 -95 -78 -136t-146 -41q-36 0 -71 10.5t-62 32t-43.5 54t-16.5 77.5q0 11 1 22t3 23l19 104q17 89 72 136t151 47q45 0 81 -13.5t61.5 -37.5t39.5 -56.5t14 -70.5q0 -22 -4 -41zM380 282q3 15 3 29q0 45 -27.5 68.5t-67.5 23.5q-43 0 -73.5 -22.5
t-41.5 -79.5l-17 -94q-2 -8 -2 -14.5v-12.5q0 -24 8 -40.5t21 -27t29 -15t32 -4.5q20 0 38.5 4.5t34 15.5t27.5 31t18 51zM344 570l113 185l92 -31l-147 -178zM195 570l112 185l93 -31l-147 -178z" />
    <glyph glyph-name="OE" unicode="&#x152;" horiz-adv-x="892" 
d="M383 696q20 0 46 -1.5t44 -5.5h467l-20 -103h-353l-36 -189h301l-20 -103h-302l-37 -192h352l-19 -102h-455q-33 -6 -70 -6q-50 0 -91 14.5t-70.5 41.5t-45.5 65.5t-16 86.5q0 28 6 60l41 211q21 108 91.5 165.5t186.5 57.5zM294 98q17 0 33 2.5t33 10.5l91 465
q-15 8 -34.5 11.5t-38.5 3.5q-65 0 -106.5 -33.5t-56.5 -108.5l-39 -201q-2 -10 -3 -19t-1 -17q0 -30 10 -51.5t27 -35.5t39 -20.5t46 -6.5z" />
    <glyph glyph-name="oe" unicode="&#x153;" horiz-adv-x="816" 
d="M623 501q86 0 129.5 -39.5t43.5 -102.5q0 -75 -68.5 -118.5t-208.5 -43.5h-21t-21 1q-3 -14 -3 -27q0 -40 23.5 -61.5t68.5 -21.5q26 0 55 10.5t56 36.5q15 -20 30.5 -39.5t29.5 -39.5q-46 -37 -93.5 -49t-94.5 -12q-49 0 -86 15.5t-59 46.5q-33 -36 -78.5 -49t-96.5 -13
q-36 0 -69.5 11t-59 32.5t-40.5 52.5t-15 70q0 17 3 37l22 123q16 89 73 134.5t151 45.5q22 0 45.5 -4.5t45.5 -13t40 -21t30 -28.5q30 34 73 50.5t95 16.5zM381 293q2 6 2 11.5v10.5q0 42 -28.5 64.5t-67.5 22.5q-42 0 -73 -22.5t-42 -79.5l-19 -103q-1 -5 -1.5 -10.5
t-0.5 -10.5q0 -40 26 -62t64 -22q19 0 38.5 4.5t35.5 16t28.5 31.5t18.5 51zM620 406q-54 0 -84.5 -33.5t-43.5 -91.5q11 -1 21 -1h19q50 0 80.5 6.5t47.5 17t23 23.5t6 25q0 24 -16 39t-53 15z" />
    <glyph glyph-name="Racute" unicode="&#x154;" horiz-adv-x="583" 
d="M440 689q43 0 74.5 -15t52 -39.5t30.5 -56.5t10 -65q0 -31 -8 -63t-26.5 -62t-48.5 -56t-74 -44l70 -288h-123q-15 67 -29.5 134t-28.5 134h-155q-14 -67 -26.5 -134t-25.5 -134h-115l134 689h289zM246 585l-42 -213h157q28 0 52 9.5t42 26t28 40t10 51.5q0 39 -23 62.5
t-68 23.5h-156zM308 783l182 129l57 -74l-204 -104z" />
    <glyph glyph-name="racute" unicode="&#x155;" horiz-adv-x="347" 
d="M379 389q-68 -10 -113.5 -23t-77.5 -31l-64 -335h-106l96 496h94l-3 -71h1q16 13 37.5 26.5t46.5 24.5t52 18t53 8zM196 570l112 185l92 -31l-146 -178z" />
    <glyph glyph-name="Rcommaaccent" unicode="&#x156;" horiz-adv-x="583" 
d="M440 689q43 0 74.5 -15t52 -39.5t30.5 -56.5t10 -65q0 -31 -8 -63t-26.5 -62t-48.5 -56t-74 -44l70 -288h-123q-15 67 -29.5 134t-28.5 134h-155q-14 -67 -26.5 -134t-25.5 -134h-115l134 689h289zM246 585l-42 -213h157q28 0 52 9.5t42 26t28 40t10 51.5q0 39 -23 62.5
t-68 23.5h-156zM146 -227q29 16 46.5 32t25.5 41q-18 3 -28.5 18.5t-10.5 35.5q0 29 21.5 52.5t59.5 23.5q32 0 48 -20t16 -49t-12 -56t-32.5 -50t-48 -42t-58.5 -31z" />
    <glyph glyph-name="rcommaaccent" unicode="&#x157;" horiz-adv-x="347" 
d="M379 389q-68 -10 -113.5 -23t-77.5 -31l-64 -335h-106l96 496h94l-3 -71h1q16 13 37.5 26.5t46.5 24.5t52 18t53 8zM-56 -247q29 16 46.5 32t25.5 41q-18 3 -28.5 18.5t-10.5 35.5q0 29 21.5 52.5t59.5 23.5q32 0 48 -20t16 -49t-12 -56t-32.5 -50t-48 -42t-58.5 -31z
" />
    <glyph glyph-name="Rcaron" unicode="&#x158;" horiz-adv-x="583" 
d="M440 689q43 0 74.5 -15t52 -39.5t30.5 -56.5t10 -65q0 -31 -8 -63t-26.5 -62t-48.5 -56t-74 -44l70 -288h-123q-15 67 -29.5 134t-28.5 134h-155q-14 -67 -26.5 -134t-25.5 -134h-115l134 689h289zM246 585l-42 -213h157q28 0 52 9.5t42 26t28 40t10 51.5q0 39 -23 62.5
t-68 23.5h-156zM546 909l31 -45l-176 -128h-68l-120 126l41 43l123 -82z" />
    <glyph glyph-name="rcaron" unicode="&#x159;" horiz-adv-x="347" 
d="M379 389q-68 -10 -113.5 -23t-77.5 -31l-64 -335h-106l96 496h94l-3 -71h1q16 13 37.5 26.5t46.5 24.5t52 18t53 8zM412 740l37 -43l-174 -152h-70l-119 154l51 41q5 -4 21.5 -20t35.5 -34t35.5 -34t21.5 -20z" />
    <glyph glyph-name="Sacute" unicode="&#x15a;" horiz-adv-x="569" 
d="M360 702q61 0 118.5 -14t103.5 -47l-58 -92q-36 26 -79 37.5t-87 11.5q-23 0 -47.5 -6.5t-44.5 -19.5t-33.5 -34t-13.5 -49q0 -22 11.5 -37t29.5 -25.5t39.5 -17t41.5 -10.5q46 -11 83.5 -25t64.5 -34.5t41.5 -50.5t14.5 -72q0 -52 -23 -93t-62.5 -70t-91.5 -44.5
t-109 -15.5q-75 0 -137.5 22t-110.5 70q5 5 15 16.5t20.5 24t20.5 24t15 16.5q35 -32 82 -50t100 -18q74 0 116 32.5t42 80.5q0 22 -11.5 36.5t-30.5 24.5t-42 17t-47 13q-36 8 -70.5 20.5t-60.5 32.5t-42 49.5t-16 71.5q0 51 19.5 92.5t54 70.5t81.5 45.5t103 16.5z
M307 783l182 129l57 -74l-204 -104z" />
    <glyph glyph-name="sacute" unicode="&#x15b;" horiz-adv-x="460" 
d="M275 500q57 0 102.5 -11.5t82.5 -43.5q-14 -20 -29.5 -40t-29.5 -40q-32 24 -64 33t-67 9q-45 0 -68.5 -19.5t-23.5 -42.5q0 -11 7 -19t18 -14t25 -9.5t28 -6.5q24 -4 53 -10.5t54.5 -20.5t42.5 -37.5t17 -61.5q0 -43 -18 -75t-48.5 -53.5t-70.5 -32t-85 -10.5
q-54 0 -104 13t-95 55q32 40 64 76q32 -31 67.5 -42.5t77.5 -11.5q43 0 72.5 19t29.5 51q0 21 -18 31.5t-44.5 17.5t-58 13.5t-58 19.5t-44.5 36t-18 62q0 43 18.5 74t47.5 51t65 30t72 10zM241 570l112 185l92 -31l-146 -178z" />
    <glyph glyph-name="Scircumflex" unicode="&#x15c;" horiz-adv-x="569" 
d="M360 702q61 0 118.5 -14t103.5 -47l-58 -92q-36 26 -79 37.5t-87 11.5q-23 0 -47.5 -6.5t-44.5 -19.5t-33.5 -34t-13.5 -49q0 -22 11.5 -37t29.5 -25.5t39.5 -17t41.5 -10.5q46 -11 83.5 -25t64.5 -34.5t41.5 -50.5t14.5 -72q0 -52 -23 -93t-62.5 -70t-91.5 -44.5
t-109 -15.5q-75 0 -137.5 22t-110.5 70q5 5 15 16.5t20.5 24t20.5 24t15 16.5q35 -32 82 -50t100 -18q74 0 116 32.5t42 80.5q0 22 -11.5 36.5t-30.5 24.5t-42 17t-47 13q-36 8 -70.5 20.5t-60.5 32.5t-42 49.5t-16 71.5q0 51 19.5 92.5t54 70.5t81.5 45.5t103 16.5z
M402 823l-168 -85l-31 42l175 127h68l121 -126l-42 -41z" />
    <glyph glyph-name="scircumflex" unicode="&#x15d;" horiz-adv-x="460" 
d="M275 500q57 0 102.5 -11.5t82.5 -43.5q-14 -20 -29.5 -40t-29.5 -40q-32 24 -64 33t-67 9q-45 0 -68.5 -19.5t-23.5 -42.5q0 -11 7 -19t18 -14t25 -9.5t28 -6.5q24 -4 53 -10.5t54.5 -20.5t42.5 -37.5t17 -61.5q0 -43 -18 -75t-48.5 -53.5t-70.5 -32t-85 -10.5
q-54 0 -104 13t-95 55q32 40 64 76q32 -31 67.5 -42.5t77.5 -11.5q43 0 72.5 19t29.5 51q0 21 -18 31.5t-44.5 17.5t-58 13.5t-58 19.5t-44.5 36t-18 62q0 43 18.5 74t47.5 51t65 30t72 10zM324 651l-164 -108l-37 44l173 151h70l115 -152l-48 -37z" />
    <glyph glyph-name="Scedilla" unicode="&#x15e;" horiz-adv-x="569" 
d="M221 -4q-63 5 -115.5 26.5t-94.5 63.5q5 5 15 16.5t20.5 24t20.5 24t15 16.5q35 -32 82 -50t100 -18q74 0 116 32.5t42 80.5q0 22 -11.5 36.5t-30.5 24.5t-42 17t-47 13q-36 8 -70.5 20.5t-60.5 32.5t-42 49.5t-16 71.5q0 51 19.5 92.5t54 70.5t81.5 45.5t103 16.5
q61 0 118.5 -14t103.5 -47l-58 -92q-36 26 -79 37.5t-87 11.5q-23 0 -47.5 -6.5t-44.5 -19.5t-33.5 -34t-13.5 -49q0 -22 11.5 -37t29.5 -25.5t39.5 -17t41.5 -10.5q46 -11 83.5 -25t64.5 -34.5t41.5 -50.5t14.5 -72q0 -50 -21.5 -90.5t-58.5 -69t-86.5 -45t-104.5 -18.5
l-16 -32q24 0 41 -7t27.5 -18t15 -24.5t4.5 -25.5q0 -18 -8 -36t-24 -32.5t-40 -23t-55 -8.5q-9 0 -21.5 1t-26 3.5t-27.5 7t-26 10.5l26 49q20 -10 40 -13t35 -3q18 0 36 9.5t18 30.5q0 10 -5 16t-12.5 8.5t-16 2t-15.5 -2.5l-36 23z" />
    <glyph glyph-name="scedilla" unicode="&#x15f;" horiz-adv-x="460" 
d="M169 -4q-45 3 -87 17t-80 50q32 40 64 76q32 -31 67.5 -42.5t77.5 -11.5q43 0 72.5 19t29.5 51q0 21 -18 31.5t-44.5 17.5t-58 13.5t-58 19.5t-44.5 36t-18 62q0 43 18.5 74t47.5 51t65 30t72 10q57 0 102.5 -11.5t82.5 -43.5q-14 -20 -29.5 -40t-29.5 -40q-32 24 -64 33
t-67 9q-45 0 -68.5 -19.5t-23.5 -42.5q0 -11 7 -19t18 -14t25 -9.5t28 -6.5q24 -4 53 -10.5t54.5 -20.5t42.5 -37.5t17 -61.5q0 -41 -16 -71.5t-43 -51.5t-63.5 -33t-77.5 -14l-17 -34q24 0 41 -7t27.5 -18t15 -24.5t4.5 -25.5q0 -18 -8 -36t-24 -32.5t-40 -23t-55 -8.5
q-9 0 -21.5 1t-26 3.5t-27.5 7t-26 10.5l26 49q20 -10 40 -13t35 -3q18 0 36 9.5t18 30.5q0 10 -5 16t-12.5 8.5t-16 2t-15.5 -2.5l-36 23z" />
    <glyph glyph-name="Scaron" unicode="&#x160;" horiz-adv-x="569" 
d="M360 702q61 0 118.5 -14t103.5 -47l-58 -92q-36 26 -79 37.5t-87 11.5q-23 0 -47.5 -6.5t-44.5 -19.5t-33.5 -34t-13.5 -49q0 -22 11.5 -37t29.5 -25.5t39.5 -17t41.5 -10.5q46 -11 83.5 -25t64.5 -34.5t41.5 -50.5t14.5 -72q0 -52 -23 -93t-62.5 -70t-91.5 -44.5
t-109 -15.5q-75 0 -137.5 22t-110.5 70q5 5 15 16.5t20.5 24t20.5 24t15 16.5q35 -32 82 -50t100 -18q74 0 116 32.5t42 80.5q0 22 -11.5 36.5t-30.5 24.5t-42 17t-47 13q-36 8 -70.5 20.5t-60.5 32.5t-42 49.5t-16 71.5q0 51 19.5 92.5t54 70.5t81.5 45.5t103 16.5z
M576 909l31 -45l-176 -128h-68l-120 126l41 43l123 -82z" />
    <glyph glyph-name="scaron" unicode="&#x161;" horiz-adv-x="460" 
d="M275 500q57 0 102.5 -11.5t82.5 -43.5q-14 -20 -29.5 -40t-29.5 -40q-32 24 -64 33t-67 9q-45 0 -68.5 -19.5t-23.5 -42.5q0 -11 7 -19t18 -14t25 -9.5t28 -6.5q24 -4 53 -10.5t54.5 -20.5t42.5 -37.5t17 -61.5q0 -43 -18 -75t-48.5 -53.5t-70.5 -32t-85 -10.5
q-54 0 -104 13t-95 55q32 40 64 76q32 -31 67.5 -42.5t77.5 -11.5q43 0 72.5 19t29.5 51q0 21 -18 31.5t-44.5 17.5t-58 13.5t-58 19.5t-44.5 36t-18 62q0 43 18.5 74t47.5 51t65 30t72 10zM470 740l37 -43l-174 -152h-70l-119 154l51 41q5 -4 21.5 -20t35.5 -34t35.5 -34
t21.5 -20z" />
    <glyph glyph-name="Tcommaaccent" unicode="&#x162;" horiz-adv-x="524" 
d="M397 585l-113 -585h-115l113 585h-190l20 104h496l-20 -104h-191zM102 -247q29 16 46.5 32t25.5 41q-18 3 -28.5 18.5t-10.5 35.5q0 29 21.5 52.5t59.5 23.5q32 0 48 -20t16 -49t-12 -56t-32.5 -50t-48 -42t-58.5 -31z" />
    <glyph glyph-name="tcommaaccent" unicode="&#x163;" horiz-adv-x="364" 
d="M67 406l17 90h68l43 118h82l-23 -118h122l-17 -90h-122l-43 -225q-2 -10 -2.5 -18.5t-1.5 -16.5q0 -23 12.5 -36.5t45.5 -13.5q15 0 35 2t43 4l3 -91q-16 -5 -33.5 -8.5t-34 -5t-30.5 -2t-23 -0.5q-36 0 -61 7.5t-40 22t-21.5 34.5t-6.5 45t6 55l48 247h-66zM11 -247
q29 16 46.5 32t25.5 41q-18 3 -28.5 18.5t-10.5 35.5q0 29 21.5 52.5t59.5 23.5q32 0 48 -20t16 -49t-12 -56t-32.5 -50t-48 -42t-58.5 -31z" />
    <glyph glyph-name="Tcaron" unicode="&#x164;" horiz-adv-x="524" 
d="M397 585l-113 -585h-115l113 585h-190l20 104h496l-20 -104h-191zM542 909l31 -45l-176 -128h-68l-120 126l41 43l123 -82z" />
    <glyph glyph-name="tcaron" unicode="&#x165;" horiz-adv-x="398" 
d="M323 585q29 16 46.5 32t25.5 41q-18 3 -28.5 18.5t-10.5 35.5q0 29 21.5 52.5t59.5 23.5q32 0 48 -20t16 -49t-12 -56t-32.5 -50t-48 -42t-58.5 -31zM67 406l17 90h68l43 118h82l-23 -118h122l-17 -90h-122l-43 -225q-2 -10 -2.5 -18.5t-1.5 -16.5q0 -23 12.5 -36.5
t45.5 -13.5q15 0 35 2t43 4l3 -91q-16 -5 -33.5 -8.5t-34 -5t-30.5 -2t-23 -0.5q-36 0 -61 7.5t-40 22t-21.5 34.5t-6.5 45t6 55l48 247h-66z" />
    <glyph glyph-name="Tbar" unicode="&#x166;" horiz-adv-x="524" 
d="M397 585l-35 -182h151l-15 -80h-152l-62 -323h-115l62 323h-143l15 80h144l35 182h-190l20 104h496l-20 -104h-191z" />
    <glyph glyph-name="tbar" unicode="&#x167;" horiz-adv-x="364" 
d="M66 405l18 90h68l44 119h82l-23 -119h123l-18 -90h-123l-18 -94h127l-15 -74h-127l-10 -56q-2 -12 -3.5 -22.5t-1.5 -18.5q0 -25 12.5 -36t44.5 -11q13 0 34.5 2.5t44.5 9.5l2 -93q-32 -11 -66.5 -14t-53.5 -3q-70 0 -99 28.5t-29 81.5q0 27 6 59l14 73h-59l15 74h59
l19 94h-67z" />
    <glyph glyph-name="Utilde" unicode="&#x168;" horiz-adv-x="622" 
d="M576 218q-11 -54 -36.5 -96t-63 -70.5t-85.5 -43t-104 -14.5q-45 0 -87 12t-73.5 37t-50.5 62t-19 87q0 13 1 26.5t4 27.5l86 443h115l-88 -446q-3 -18 -3 -34q0 -30 11 -51.5t28 -35t39 -19.5t43 -6q29 0 57 8t51 25.5t40 45t25 67.5l86 446h116zM364 868q18 0 34 -6.5
t30.5 -15t27 -15t24.5 -6.5q15 0 31.5 10t38.5 35q13 -8 27.5 -19t28.5 -19q-29 -52 -61 -73.5t-64 -21.5q-18 0 -34 6t-30.5 13.5t-28.5 14t-28 6.5q-17 0 -32 -8.5t-39 -33.5l-55 38q28 48 61.5 71.5t68.5 23.5z" />
    <glyph glyph-name="utilde" unicode="&#x169;" horiz-adv-x="516" 
d="M210 495l-61 -309q-3 -15 -3 -28q0 -33 17.5 -47t43.5 -14q27 0 64 14t82 42l67 342h106l-96 -495h-96l-2 48q-30 -18 -54.5 -29t-44.5 -16.5t-36 -7t-29 -1.5q-66 0 -99.5 35.5t-33.5 95.5q0 12 1.5 24.5t3.5 26.5l63 319h107zM278 705q18 0 34 -6.5t30.5 -15t27 -15
t24.5 -6.5q15 0 31.5 10t38.5 35q13 -8 27.5 -19t28.5 -19q-29 -52 -61 -73.5t-64 -21.5q-18 0 -34 6t-30.5 13.5t-28.5 14t-28 6.5q-17 0 -32 -8.5t-39 -33.5l-55 38q28 48 61.5 71.5t68.5 23.5z" />
    <glyph glyph-name="Umacron" unicode="&#x16a;" horiz-adv-x="622" 
d="M576 218q-11 -54 -36.5 -96t-63 -70.5t-85.5 -43t-104 -14.5q-45 0 -87 12t-73.5 37t-50.5 62t-19 87q0 13 1 26.5t4 27.5l86 443h115l-88 -446q-3 -18 -3 -34q0 -30 11 -51.5t28 -35t39 -19.5t43 -6q29 0 57 8t51 25.5t40 45t25 67.5l86 446h116zM273 765l18 90h289
l-18 -90h-289z" />
    <glyph glyph-name="umacron" unicode="&#x16b;" horiz-adv-x="516" 
d="M210 495l-61 -309q-3 -15 -3 -28q0 -33 17.5 -47t43.5 -14q27 0 64 14t82 42l67 342h106l-96 -495h-96l-2 48q-30 -18 -54.5 -29t-44.5 -16.5t-36 -7t-29 -1.5q-66 0 -99.5 35.5t-33.5 95.5q0 12 1.5 24.5t3.5 26.5l63 319h107zM186 593l18 89h290l-18 -89h-290z" />
    <glyph glyph-name="Ubreve" unicode="&#x16c;" horiz-adv-x="622" 
d="M576 218q-11 -54 -36.5 -96t-63 -70.5t-85.5 -43t-104 -14.5q-45 0 -87 12t-73.5 37t-50.5 62t-19 87q0 13 1 26.5t4 27.5l86 443h115l-88 -446q-3 -18 -3 -34q0 -30 11 -51.5t28 -35t39 -19.5t43 -6q29 0 57 8t51 25.5t40 45t25 67.5l86 446h116zM415 725q-35 0 -60 10
t-40.5 27.5t-22.5 40t-7 47.5q0 5 0.5 9.5t0.5 9.5h80v-7q0 -10 3 -21t9.5 -20t17 -14.5t25.5 -5.5q17 0 30.5 6.5t24 16t16.5 21.5t8 24h85q-7 -24 -19 -49.5t-32.5 -46.5t-49.5 -34.5t-69 -13.5z" />
    <glyph glyph-name="ubreve" unicode="&#x16d;" horiz-adv-x="516" 
d="M210 495l-61 -309q-3 -15 -3 -28q0 -33 17.5 -47t43.5 -14q27 0 64 14t82 42l67 342h106l-96 -495h-96l-2 48q-30 -18 -54.5 -29t-44.5 -16.5t-36 -7t-29 -1.5q-66 0 -99.5 35.5t-33.5 95.5q0 12 1.5 24.5t3.5 26.5l63 319h107zM330 568q-39 0 -65 12t-41 32t-20.5 46
t-2.5 54h81q-2 -10 0.5 -22t9 -22t17.5 -17t28 -7q16 0 30 6.5t24 16t16.5 21.5t8.5 24h84q-6 -23 -18 -48.5t-32.5 -46.5t-50 -35t-69.5 -14z" />
    <glyph glyph-name="Uring" unicode="&#x16e;" horiz-adv-x="622" 
d="M576 218q-11 -54 -36.5 -96t-63 -70.5t-85.5 -43t-104 -14.5q-45 0 -87 12t-73.5 37t-50.5 62t-19 87q0 13 1 26.5t4 27.5l86 443h115l-88 -446q-3 -18 -3 -34q0 -30 11 -51.5t28 -35t39 -19.5t43 -6q29 0 57 8t51 25.5t40 45t25 67.5l86 446h116zM417 759
q22 0 40.5 16.5t18.5 39.5q0 16 -12 27t-29 11q-23 0 -40 -17t-17 -40q0 -16 10.5 -26.5t28.5 -10.5zM409 700q-40 0 -66.5 24.5t-26.5 62.5q0 25 9.5 47.5t26 39.5t40 27.5t51.5 10.5q41 0 67.5 -25.5t26.5 -63.5q0 -27 -10 -49.5t-27.5 -39t-41 -25.5t-49.5 -9z" />
    <glyph glyph-name="uring" unicode="&#x16f;" horiz-adv-x="516" 
d="M210 495l-61 -309q-3 -15 -3 -28q0 -33 17.5 -47t43.5 -14q27 0 64 14t82 42l67 342h106l-96 -495h-96l-2 48q-30 -18 -54.5 -29t-44.5 -16.5t-36 -7t-29 -1.5q-66 0 -99.5 35.5t-33.5 95.5q0 12 1.5 24.5t3.5 26.5l63 319h107zM330 595q22 0 40.5 16.5t18.5 39.5
q0 16 -12 27t-29 11q-23 0 -40 -17t-17 -40q0 -16 10.5 -26.5t28.5 -10.5zM322 536q-40 0 -66.5 24.5t-26.5 62.5q0 25 9.5 47.5t26 39.5t40 27.5t51.5 10.5q41 0 67.5 -25.5t26.5 -63.5q0 -27 -10 -49.5t-27.5 -39t-41 -25.5t-49.5 -9z" />
    <glyph glyph-name="Uhungarumlaut" unicode="&#x170;" horiz-adv-x="622" 
d="M576 218q-11 -54 -36.5 -96t-63 -70.5t-85.5 -43t-104 -14.5q-45 0 -87 12t-73.5 37t-50.5 62t-19 87q0 13 1 26.5t4 27.5l86 443h115l-88 -446q-3 -18 -3 -34q0 -30 11 -51.5t28 -35t39 -19.5t43 -6q29 0 57 8t51 25.5t40 45t25 67.5l86 446h116zM277 781l161 132
l68 -72l-187 -108zM458 781l178 132l60 -72l-201 -108z" />
    <glyph glyph-name="uhungarumlaut" unicode="&#x171;" horiz-adv-x="516" 
d="M210 495l-61 -309q-3 -15 -3 -28q0 -33 17.5 -47t43.5 -14q27 0 64 14t82 42l67 342h106l-96 -495h-96l-2 48q-30 -18 -54.5 -29t-44.5 -16.5t-36 -7t-29 -1.5q-66 0 -99.5 35.5t-33.5 95.5q0 12 1.5 24.5t3.5 26.5l63 319h107zM356 570l113 185l92 -31l-147 -178z
M207 570l112 185l93 -31l-147 -178z" />
    <glyph glyph-name="Uogonek" unicode="&#x172;" horiz-adv-x="622" 
d="M576 218q-10 -52 -33.5 -92t-58 -68.5t-79 -44t-96.5 -18.5q-21 -26 -33.5 -46t-12.5 -38q0 -30 36 -30q11 0 26.5 3.5t35.5 13.5l13 -57q-25 -14 -51.5 -20t-52.5 -6q-38 0 -60.5 20.5t-22.5 52.5q0 23 10.5 49.5t42.5 60.5q-38 5 -71.5 20t-58 39t-39 57.5t-14.5 77.5
q0 13 1 26.5t4 27.5l86 443h115l-88 -446q-3 -18 -3 -34q0 -30 11 -51.5t28 -35t39 -19.5t43 -6q29 0 57 8t51 25.5t40 45t25 67.5l86 446h116l-92 -471v0z" />
    <glyph glyph-name="uogonek" unicode="&#x173;" horiz-adv-x="516" 
d="M210 495l-61 -309q-3 -15 -3 -28q0 -33 17.5 -47t43.5 -14q27 0 64 14t82 42l67 342h106l-96 -495h-26q-24 -28 -38 -49.5t-14 -40.5q0 -30 36 -30q11 0 26.5 3.5t35.5 13.5l13 -57q-25 -14 -51.5 -20t-52.5 -6q-38 0 -60.5 20.5t-22.5 52.5q0 23 11.5 51.5t46.5 63.5
l-2 46q-30 -18 -54.5 -29t-44.5 -16.5t-36 -7t-29 -1.5q-66 0 -99.5 35.5t-33.5 95.5q0 12 1.5 24.5t3.5 26.5l63 319h107z" />
    <glyph glyph-name="Wcircumflex" unicode="&#x174;" horiz-adv-x="885" 
d="M491 490l-90 -206l-126 -284h-126l-45 689h117l12 -295l7 -220h6l97 222l129 293h118l18 -305l10 -210h6l89 212l129 303h120l-310 -689h-126l-18 286l-10 204h-7zM565 823l-168 -85l-31 42l175 127h68l121 -126l-42 -41z" />
    <glyph glyph-name="wcircumflex" unicode="&#x175;" horiz-adv-x="705" 
d="M507 0h-99q-11 75 -20.5 150t-19.5 150q-1 0 -2 0.5t-2 0.5q-7 -14 -14 -29.5t-17.5 -36.5l-25.5 -51t-36 -73q-14 -27 -27.5 -54.5t-27.5 -56.5h-101l-57 496h109l12 -156q3 -46 7 -90.5t7 -90.5h6q21 45 44 88.5t44 88.5l57 112h96q4 -29 7.5 -58t8.5 -58
q7 -45 11.5 -89t11.5 -88h5l97 201q18 40 25 66.5t7 54.5v20h107v-19q0 -38 -8.5 -72t-28.5 -72zM452 651l-164 -108l-37 44l173 151h70l115 -152l-48 -37z" />
    <glyph glyph-name="Ycircumflex" unicode="&#x176;" horiz-adv-x="547" 
d="M301 378l97 151l104 160h126l-288 -422l-51 -267h-114l51 267l-127 422h118l46 -179l33 -132h5zM396 823l-168 -85l-31 42l175 127h68l121 -126l-42 -41z" />
    <glyph glyph-name="ycircumflex" unicode="&#x177;" horiz-adv-x="452" 
d="M20 -200l112 210l-32 29l-48 457h108l14 -193l13 -194h4l130 248q11 21 18.5 37t12 29.5t6.5 27t2 28.5v18h107v-17q0 -45 -12.5 -77.5t-33.5 -69.5l-292 -533h-109zM313 651l-164 -108l-37 44l173 151h70l115 -152l-48 -37z" />
    <glyph glyph-name="Ydieresis" unicode="&#x178;" horiz-adv-x="547" 
d="M301 378l97 151l104 160h126l-288 -422l-51 -267h-114l51 267l-127 422h118l46 -179l33 -132h5zM484 856q23 0 36.5 -15t11.5 -37q-3 -26 -24 -45t-46 -19q-23 0 -36.5 15.5t-10.5 38.5q2 25 23 43.5t46 18.5zM285 856q23 0 36 -15t11 -37q-3 -26 -23.5 -45t-46.5 -19
q-23 0 -36.5 15.5t-10.5 37.5q2 26 23 44.5t47 18.5z" />
    <glyph glyph-name="Zacute" unicode="&#x179;" horiz-adv-x="531" 
d="M15 99l420 487h-312l20 103h449l-18 -96l-425 -491h329l-20 -102h-462zM318 783l182 129l57 -74l-204 -104z" />
    <glyph glyph-name="zacute" unicode="&#x17a;" horiz-adv-x="462" 
d="M-4 0l16 86l316 318h-239l17 91h371l-16 -85l-315 -315h253l-18 -95h-385zM249 570l112 185l92 -31l-146 -178z" />
    <glyph glyph-name="Zdotaccent" unicode="&#x17b;" horiz-adv-x="531" 
d="M15 99l420 487h-312l20 103h449l-18 -96l-425 -491h329l-20 -102h-462zM385 736q-24 0 -39 16t-13 40q2 27 22.5 47t49.5 20q24 0 39 -15t13 -41q-2 -28 -23 -47.5t-49 -19.5z" />
    <glyph glyph-name="zdotaccent" unicode="&#x17c;" horiz-adv-x="462" 
d="M-4 0l16 86l316 318h-239l17 91h371l-16 -85l-315 -315h253l-18 -95h-385zM311 577q-24 0 -39 16t-13 40q2 27 22.5 47t49.5 20q24 0 39 -15t13 -41q-2 -28 -23 -47.5t-49 -19.5z" />
    <glyph glyph-name="Zcaron" unicode="&#x17d;" horiz-adv-x="531" 
d="M15 99l420 487h-312l20 103h449l-18 -96l-425 -491h329l-20 -102h-462zM571 909l31 -45l-176 -128h-68l-120 126l41 43l123 -82z" />
    <glyph glyph-name="zcaron" unicode="&#x17e;" horiz-adv-x="462" 
d="M-4 0l16 86l316 318h-239l17 91h371l-16 -85l-315 -315h253l-18 -95h-385zM477 740l37 -43l-174 -152h-70l-119 154l51 41q5 -4 21.5 -20t35.5 -34t35.5 -34t21.5 -20z" />
    <glyph glyph-name="florin" unicode="&#x192;" horiz-adv-x="517" 
d="M144 422h97l15 69q8 35 22.5 72t39 67.5t60 50t86.5 19.5q23 0 46.5 -4.5t40.5 -11.5q-2 -7 -6 -19t-8.5 -24.5t-9 -24.5t-6.5 -19q-15 6 -32.5 8.5t-33.5 2.5q-21 0 -37 -10t-27.5 -26t-19 -36.5t-12.5 -42.5l-15 -71h102l-6 -85h-115l-48 -216q-11 -47 -26 -86.5
t-38 -68.5t-54.5 -45t-74.5 -16q-22 0 -50.5 6.5t-51.5 16.5l35 80q20 -8 34.5 -10.5t27.5 -2.5q37 0 58 34.5t35 94.5l49 213h-83z" />
    <glyph glyph-name="Ohorn" unicode="&#x1a0;" horiz-adv-x="631" 
d="M576 216q-20 -106 -90.5 -164.5t-191.5 -58.5q-45 0 -87.5 13.5t-75 40.5t-52 66.5t-19.5 91.5q0 27 6 57l41 211q21 108 91 165.5t185 57.5q46 0 87 -13t73 -37q19 0 33 5t24 16t17 29.5t12 47.5l5 28h85l-7 -37q-11 -60 -38 -100.5t-73 -57.5q10 -20 15.5 -42t5.5 -47
q0 -11 -1 -22t-3 -23zM504 438q2 9 3 17t1 16q0 30 -11 52.5t-29 37.5t-41 22.5t-48 7.5q-62 0 -105 -33.5t-57 -108.5l-38 -199q-4 -19 -4 -38q0 -30 10 -51.5t27 -35.5t39 -20.5t46 -6.5q72 0 113.5 38t56.5 114z" />
    <glyph glyph-name="ohorn" unicode="&#x1a1;" horiz-adv-x="540" 
d="M464 172q-19 -95 -78 -136t-146 -41q-36 0 -71 10.5t-62 32t-43.5 54t-16.5 77.5q0 11 1 22t3 23l19 104q17 89 72 136t151 47q43 0 77.5 -12t60.5 -34q19 0 32.5 4.5t24 16t17.5 30t13 47.5l5 28h83l-7 -37q-11 -63 -40 -104.5t-80 -56.5q5 -14 7.5 -29t2.5 -31
q0 -22 -4 -41zM380 282q3 15 3 29q0 45 -27.5 68.5t-67.5 23.5q-43 0 -73.5 -22.5t-41.5 -79.5l-17 -94q-2 -8 -2 -14.5v-12.5q0 -24 8 -40.5t21 -27t29 -15t32 -4.5q20 0 38.5 4.5t34 15.5t27.5 31t18 51z" />
    <glyph glyph-name="Uhorn" unicode="&#x1af;" horiz-adv-x="693" 
d="M576 218q-11 -54 -36.5 -96t-63 -70.5t-85.5 -43t-104 -14.5q-45 0 -87 12t-73.5 37t-50.5 62t-19 87q0 13 1 26.5t4 27.5l86 443h115l-88 -446q-3 -18 -3 -34q0 -30 11 -51.5t28 -35t39 -19.5t43 -6q29 0 57 8t51 25.5t40 45t25 67.5l86 446h116l-9 -43q18 1 31 6t23 16
t17 29.5t12 46.5l5 28h83l-6 -37q-15 -80 -57.5 -124t-122.5 -45l-68 -348v0z" />
    <glyph glyph-name="uhorn" unicode="&#x1b0;" horiz-adv-x="602" 
d="M210 495l-61 -309q-3 -15 -3 -28q0 -33 17.5 -47t43.5 -14q27 0 64 14t82 42l67 342h106l-8 -40q17 1 30 6t23 16t17 29.5t12 46.5l5 28h83l-7 -37q-14 -79 -56 -123.5t-123 -45.5l-72 -375h-96l-2 48q-30 -18 -54.5 -29t-44.5 -16.5t-36 -7t-29 -1.5q-66 0 -99.5 35.5
t-33.5 95.5q0 12 1.5 24.5t3.5 26.5l63 319h107z" />
    <glyph glyph-name="AEacute" unicode="&#x1fc;" horiz-adv-x="992" 
d="M485 0l25 181l-244 1q-35 -46 -70 -91.5t-70 -90.5h-131l529 689h520l-14 -104h-349l-26 -189h301l-14 -102h-302l-3 -19q-6 -44 -12 -87t-13 -86h353l-14 -102h-466zM523 276l45 304h-1l-234 -303zM715 783l182 129l57 -74l-204 -104z" />
    <glyph glyph-name="aeacute" unicode="&#x1fd;" horiz-adv-x="805" 
d="M462 448q31 25 67.5 39t84.5 14q88 0 131 -39.5t43 -96.5q0 -38 -18 -69.5t-52.5 -54t-85 -35.5t-114.5 -13q-11 0 -23.5 0.5t-25.5 1.5q-4 -15 -4 -32q0 -34 23 -54.5t69 -20.5q26 0 57 10t58 34q15 -20 28 -38t28 -38q-47 -37 -94 -49t-94 -12q-55 0 -95.5 17.5
t-63.5 53.5q-49 -42 -105 -56t-111 -14q-63 0 -98 31t-35 85q0 46 18.5 80.5t48 57.5t66.5 34t74 11q22 0 37.5 -0.5t29.5 -2t29.5 -3.5t38.5 -5q2 15 5.5 32t3.5 27q0 35 -25 48.5t-68 13.5q-26 0 -61 -7.5t-77 -37.5l-35 79q58 38 107 49.5t92 11.5q53 0 89.5 -12.5
t56.5 -39.5zM204 90q21 0 43 4.5t42.5 13t36.5 19t25 22.5l10 59q-19 2 -32.5 3.5t-25.5 2.5t-24.5 1.5t-30.5 0.5q-17 0 -35.5 -3t-34.5 -11.5t-26.5 -23t-10.5 -38.5t17.5 -37t45.5 -13zM608 406q-54 0 -84.5 -34.5t-42.5 -93.5q11 -1 20.5 -1.5t19.5 -0.5q73 0 114 23.5
t41 52.5q0 24 -19 39t-49 15zM445 570l112 185l92 -31l-146 -178z" />
    <glyph glyph-name="Oslashacute" unicode="&#x1fe;" horiz-adv-x="622" 
d="M576 216q-20 -106 -90.5 -164.5t-191.5 -58.5q-47 0 -90 14t-75 42l-46 -55l-34 30l48 59q-17 24 -27 54.5t-10 67.5q0 27 6 57l41 211q21 108 91 165.5t185 57.5q51 0 94.5 -15t75.5 -43l50 60l36 -31l-53 -64q36 -50 36 -115q0 -11 -1 -22t-3 -23zM175 212q0 -18 3 -31
l302 368q-18 21 -45 31.5t-56 10.5q-62 0 -105 -33.5t-57 -108.5l-38 -199q-4 -19 -4 -38zM504 438q2 9 3 17t1 16t-1 16t-3 16q-35 -42 -74 -90t-79 -96t-78.5 -94.5t-71.5 -86.5q17 -20 42.5 -29t53.5 -9q72 0 113.5 38t56.5 114zM352 780q45 32 89.5 64t89.5 64
q17 -17 32.5 -35t31.5 -35l-102 -52l-102 -52z" />
    <glyph glyph-name="oslashacute" unicode="&#x1ff;" horiz-adv-x="513" 
d="M464 172q-19 -95 -78 -136t-146 -41q-38 0 -75 11.5t-64 35.5l-44 -47l-30 28l46 50q-26 40 -26 96q0 11 1 22t3 23l19 104q17 89 72 136t151 47q42 0 76 -12t60 -33l42 46l32 -27l-46 -50q15 -21 23.5 -47t8.5 -55q0 -22 -4 -41zM380 282q3 15 3 29q0 18 -4 30
l-205 -220q13 -15 31.5 -21.5t38.5 -6.5t38.5 4.5t34 15.5t27.5 31t18 51zM154 180q0 -13 1 -18l201 216q-27 25 -68 25q-43 0 -73.5 -22.5t-41.5 -79.5l-17 -94q-2 -8 -2 -14.5v-12.5zM271 570l113 185l92 -31l-147 -178z" />
    <glyph glyph-name="Scommaaccent" unicode="&#x218;" horiz-adv-x="569" 
d="M360 702q61 0 118.5 -14t103.5 -47l-58 -92q-36 26 -79 37.5t-87 11.5q-23 0 -47.5 -6.5t-44.5 -19.5t-33.5 -34t-13.5 -49q0 -22 11.5 -37t29.5 -25.5t39.5 -17t41.5 -10.5q46 -11 83.5 -25t64.5 -34.5t41.5 -50.5t14.5 -72q0 -52 -23 -93t-62.5 -70t-91.5 -44.5
t-109 -15.5q-75 0 -137.5 22t-110.5 70q5 5 15 16.5t20.5 24t20.5 24t15 16.5q35 -32 82 -50t100 -18q74 0 116 32.5t42 80.5q0 22 -11.5 36.5t-30.5 24.5t-42 17t-47 13q-36 8 -70.5 20.5t-60.5 32.5t-42 49.5t-16 71.5q0 51 19.5 92.5t54 70.5t81.5 45.5t103 16.5z
M134 -247q29 16 46.5 32t25.5 41q-18 3 -28.5 18.5t-10.5 35.5q0 29 21.5 52.5t59.5 23.5q32 0 48 -20t16 -49t-12 -56t-32.5 -50t-48 -42t-58.5 -31z" />
    <glyph glyph-name="scommaaccent" unicode="&#x219;" horiz-adv-x="460" 
d="M275 500q57 0 102.5 -11.5t82.5 -43.5q-14 -20 -29.5 -40t-29.5 -40q-32 24 -64 33t-67 9q-45 0 -68.5 -19.5t-23.5 -42.5q0 -11 7 -19t18 -14t25 -9.5t28 -6.5q24 -4 53 -10.5t54.5 -20.5t42.5 -37.5t17 -61.5q0 -43 -18 -75t-48.5 -53.5t-70.5 -32t-85 -10.5
q-54 0 -104 13t-95 55q32 40 64 76q32 -31 67.5 -42.5t77.5 -11.5q43 0 72.5 19t29.5 51q0 21 -18 31.5t-44.5 17.5t-58 13.5t-58 19.5t-44.5 36t-18 62q0 43 18.5 74t47.5 51t65 30t72 10zM75 -247q29 16 46.5 32t25.5 41q-18 3 -28.5 18.5t-10.5 35.5q0 29 21.5 52.5
t59.5 23.5q32 0 48 -20t16 -49t-12 -56t-32.5 -50t-48 -42t-58.5 -31z" />
    <glyph glyph-name="schwa" unicode="&#x259;" horiz-adv-x="482" 
d="M208 -4q-88 0 -131 39t-43 96q0 36 15.5 67t48.5 53.5t85.5 35.5t127.5 13h21.5t21.5 -1q2 8 3 15.5t1 14.5q0 38 -25.5 58.5t-67.5 20.5q-26 0 -55 -10.5t-56 -36.5q-15 20 -30.5 39.5t-29.5 39.5q46 37 93.5 49.5t94.5 12.5q81 0 131.5 -41t50.5 -122
q0 -64 -13.5 -125.5t-44 -110t-79.5 -78t-119 -29.5zM213 90q54 0 83.5 33t43.5 91q-11 1 -21.5 1h-19.5q-49 0 -79 -6.5t-46.5 -17t-22 -23t-5.5 -24.5q0 -24 15 -39t52 -15z" />
    <glyph glyph-name="primemod" unicode="&#x2b9;" horiz-adv-x="274" 
d="M350 679l-189 -281l-71 24l152 291z" />
    <glyph glyph-name="circumflex" unicode="&#x2c6;" horiz-adv-x="499" 
d="M352 651l-164 -108l-37 44l173 151h70l115 -152l-48 -37z" />
    <glyph glyph-name="caron" unicode="&#x2c7;" horiz-adv-x="506" 
d="M503 740l37 -43l-174 -152h-70l-119 154l51 41q5 -4 21.5 -20t35.5 -34t35.5 -34t21.5 -20z" />
    <glyph glyph-name="breve" unicode="&#x2d8;" horiz-adv-x="512" 
d="M335 568q-39 0 -65 12t-41 32t-20.5 46t-2.5 54h81q-2 -10 0.5 -22t9 -22t17.5 -17t28 -7q16 0 30 6.5t24 16t16.5 21.5t8.5 24h84q-6 -23 -18 -48.5t-32.5 -46.5t-50 -35t-69.5 -14z" />
    <glyph glyph-name="dotaccent" unicode="&#x2d9;" horiz-adv-x="508" 
d="M331 577q-24 0 -39 16t-13 40q2 27 22.5 47t49.5 20q24 0 39 -15t13 -41q-2 -28 -23 -47.5t-49 -19.5z" />
    <glyph glyph-name="ring" unicode="&#x2da;" horiz-adv-x="502" 
d="M328 595q22 0 40.5 16.5t18.5 39.5q0 16 -12 27t-29 11q-23 0 -40 -17t-17 -40q0 -16 10.5 -26.5t28.5 -10.5zM320 536q-40 0 -66.5 24.5t-26.5 62.5q0 25 9.5 47.5t26 39.5t40 27.5t51.5 10.5q41 0 67.5 -25.5t26.5 -63.5q0 -27 -10 -49.5t-27.5 -39t-41 -25.5t-49.5 -9
z" />
    <glyph glyph-name="ogonek" unicode="&#x2db;" horiz-adv-x="361" 
d="M240 3l1 -3q-24 -29 -38.5 -50.5t-14.5 -40.5q0 -30 36 -30q11 0 26.5 3.5t35.5 13.5l13 -57q-25 -14 -51.5 -20t-52.5 -6q-38 0 -60.5 20.5t-22.5 52.5q0 24 13.5 54t51.5 68z" />
    <glyph glyph-name="tilde" unicode="&#x2dc;" horiz-adv-x="499" 
d="M286 705q18 0 34 -6.5t30.5 -15t27 -15t24.5 -6.5q15 0 31.5 10t38.5 35q13 -8 27.5 -19t28.5 -19q-29 -52 -61 -73.5t-64 -21.5q-18 0 -34 6t-30.5 13.5t-28.5 14t-28 6.5q-17 0 -32 -8.5t-39 -33.5l-55 38q28 48 61.5 71.5t68.5 23.5z" />
    <glyph glyph-name="hungarumlaut" unicode="&#x2dd;" horiz-adv-x="526" 
d="M337 570l113 185l92 -31l-147 -178zM188 570l112 185l93 -31l-147 -178z" />
    <glyph glyph-name="tonos" unicode="&#x384;" horiz-adv-x="506" 
d="M273 570l113 185l92 -31l-146 -178z" />
    <glyph glyph-name="dieresistonos" unicode="&#x385;" horiz-adv-x="506" 
d="M412 632q5 24 25 41t44 17t38 -17t9 -41t-25 -41t-44 -17t-38 17t-9 41zM136 632q5 24 25 41t45 17q24 0 38 -17t9 -41t-25 -41t-44 -17q-25 0 -39 17t-9 41zM248 565l102 189l95 -24l-136 -185z" />
    <glyph glyph-name="Alphatonos" unicode="&#x386;" horiz-adv-x="617" 
d="M426 149h-256l-77 -149h-123l372 689h116l106 -689h-120zM222 248h190l-17 135l-19 160h-4l-77 -154zM37 540l113 185l92 -31l-146 -178z" />
    <glyph glyph-name="anoteleia" unicode="&#x387;" horiz-adv-x="282" 
d="M154 288q-26 0 -40.5 14t-14.5 37q0 16 6 31.5t16.5 28t25.5 20t33 7.5q28 0 43 -16t15 -39q0 -16 -6.5 -31t-17.5 -26.5t-26.5 -18.5t-33.5 -7z" />
    <glyph glyph-name="Epsilontonos" unicode="&#x388;" horiz-adv-x="568" 
d="M157 689h457l-20 -103h-343l-36 -189h301l-20 -103h-302l-37 -192h370l-20 -102h-484zM-83 540l113 185l92 -31l-146 -178z" />
    <glyph glyph-name="Etatonos" unicode="&#x389;" horiz-adv-x="620" 
d="M419 0l58 298h-289l-58 -298h-114l134 689h114l-56 -288h289l56 288h116l-134 -689h-116zM-87 540l113 185l92 -31l-146 -178z" />
    <glyph glyph-name="Iotatonos" unicode="&#x38a;" horiz-adv-x="273" 
d="M288 689l-134 -689h-114l134 689h114zM-70 540l113 185l92 -31l-146 -178z" />
    <glyph glyph-name="Omicrontonos" unicode="&#x38c;" horiz-adv-x="622" 
d="M576 216q-20 -106 -90.5 -164.5t-191.5 -58.5q-45 0 -87.5 13.5t-75 40.5t-52 66.5t-19.5 91.5q0 27 6 57l41 211q21 108 91 165.5t185 57.5q49 0 93 -15t76 -42t51 -65.5t19 -85.5q0 -11 -1 -22t-3 -23zM504 438q2 9 3 17t1 16q0 30 -11 52.5t-29 37.5t-41 22.5t-48 7.5
q-62 0 -105 -33.5t-57 -108.5l-38 -199q-4 -19 -4 -38q0 -30 10 -51.5t27 -35.5t39 -20.5t46 -6.5q72 0 113.5 38t56.5 114zM-54 540l113 185l92 -31l-146 -178z" />
    <glyph glyph-name="Upsilontonos" unicode="&#x38e;" horiz-adv-x="547" 
d="M301 378l97 151l104 160h126l-288 -422l-51 -267h-114l51 267l-127 422h118l46 -179l33 -132h5zM-118 540l113 185l92 -31l-146 -178z" />
    <glyph glyph-name="Omegatonos" unicode="&#x38f;" horiz-adv-x="634" 
d="M326 0l25 122q20 6 39.5 17t36 28t29 40t18.5 52l36 187q3 16 3 30q0 30 -12 51.5t-30.5 36t-41 21t-44.5 6.5q-59 0 -104.5 -33t-59.5 -108l-36 -189q-3 -18 -3 -34q0 -44 22 -69t53 -36l-25 -122h-225l19 99h87q-25 19 -36.5 49t-11.5 65q0 23 4 42l41 213
q21 108 92 168t188 60q48 0 91 -14t76 -40t52.5 -63.5t19.5 -83.5q0 -21 -4 -40l-37 -206q-8 -48 -30.5 -88.5t-67.5 -61.5h84l-20 -99h-228zM-49 540l113 185l92 -31l-146 -178z" />
    <glyph glyph-name="iotadieresistonos" unicode="&#x390;" horiz-adv-x="267" 
d="M235 496l-64 -329q-2 -11 -3.5 -19.5t-0.5 -15.5q0 -25 12.5 -32.5t36.5 -9.5l-20 -92h-18q-57 0 -89 25t-32 79q0 21 4 41l68 353h106zM294 632q5 24 25 41t44 17t38 -17t9 -41t-25 -41t-44 -17t-38 17t-9 41zM18 632q5 24 25 41t45 17q24 0 38 -17t9 -41t-25 -41
t-44 -17q-25 0 -39 17t-9 41zM130 565l102 189l95 -24l-136 -185z" />
    <glyph glyph-name="Alpha" unicode="&#x391;" horiz-adv-x="617" 
d="M426 149h-256l-77 -149h-123l372 689h116l106 -689h-120zM222 248h190l-17 135l-19 160h-4l-77 -154z" />
    <glyph glyph-name="Beta" unicode="&#x392;" horiz-adv-x="608" 
d="M437 689q46 0 79.5 -13t55.5 -35.5t32.5 -52t10.5 -62.5q0 -54 -28 -97t-88 -72q40 -22 53.5 -59t13.5 -76q0 -43 -15.5 -83t-45 -71t-72 -49.5t-95.5 -18.5h-320l134 689h285zM211 404h162q27 0 49.5 9t38 23.5t24.5 33t9 37.5q0 40 -24.5 59.5t-66.5 19.5h-156z
M152 102h162q28 0 52.5 8t42.5 23t28 37t10 49q0 41 -24.5 62.5t-66.5 21.5h-164z" />
    <glyph glyph-name="Gamma" unicode="&#x393;" horiz-adv-x="524" 
d="M23 0l134 689h460l-19 -103h-347l-114 -586h-114z" />
    <glyph glyph-name="Delta" unicode="&#x394;" horiz-adv-x="613" 
d="M-30 0q94 174 187.5 344.5t187.5 344.5h110l110 -689h-595zM367 521l-106 -202l-115 -216h283l-30 210l-27 207z" />
    <glyph glyph-name="Delta" unicode="&#x2206;" horiz-adv-x="613" 
d="M-30 0q94 174 187.5 344.5t187.5 344.5h110l110 -689h-595zM367 521l-106 -202l-115 -216h283l-30 210l-27 207z" />
    <glyph glyph-name="Epsilon" unicode="&#x395;" horiz-adv-x="568" 
d="M157 689h457l-20 -103h-343l-36 -189h301l-20 -103h-302l-37 -192h370l-20 -102h-484z" />
    <glyph glyph-name="Zeta" unicode="&#x396;" horiz-adv-x="531" 
d="M15 99l420 487h-312l20 103h449l-18 -96l-425 -491h329l-20 -102h-462z" />
    <glyph glyph-name="Eta" unicode="&#x397;" horiz-adv-x="620" 
d="M419 0l58 298h-289l-58 -298h-114l134 689h114l-56 -288h289l56 288h116l-134 -689h-116z" />
    <glyph glyph-name="Theta" unicode="&#x398;" horiz-adv-x="622" 
d="M437 296h-211l20 101h212zM576 216q-20 -106 -90.5 -164.5t-191.5 -58.5q-45 0 -87.5 13.5t-75 40.5t-52 66.5t-19.5 91.5q0 27 6 57l41 211q21 108 91 165.5t185 57.5q49 0 93 -15t76 -42t51 -65.5t19 -85.5q0 -11 -1 -22t-3 -23zM504 438q2 9 3 17t1 16q0 30 -11 52.5
t-29 37.5t-41 22.5t-48 7.5q-62 0 -105 -33.5t-57 -108.5l-38 -199q-4 -19 -4 -38q0 -30 10 -51.5t27 -35.5t39 -20.5t46 -6.5q72 0 113.5 38t56.5 114z" />
    <glyph glyph-name="Iota" unicode="&#x399;" horiz-adv-x="273" 
d="M288 689l-134 -689h-114l134 689h114z" />
    <glyph glyph-name="Kappa" unicode="&#x39a;" horiz-adv-x="600" 
d="M313 331l-145 -139l-37 -192h-115l134 689h114l-64 -333l340 333h136l-279 -275l164 -414h-122z" />
    <glyph glyph-name="Lambda" unicode="&#x39b;" horiz-adv-x="613" 
d="M374 526q-29 -54 -56.5 -107t-55.5 -107q-42 -78 -83.5 -156t-83.5 -156h-118q94 174 187 344.5t187 344.5h111l110 -689h-119q-11 75 -22 149.5t-22 149.5l-30 226z" />
    <glyph glyph-name="Mu" unicode="&#x39c;" horiz-adv-x="763" 
d="M386 250q28 40 53.5 80t52.5 79q34 49 60.5 88.5t49 72.5t42 62t38.5 57h110l-131 -689h-114l81 420h-4q-4 -6 -20.5 -30t-39 -56.5t-48.5 -70t-49.5 -71.5t-41.5 -59.5t-24 -34.5h-83l-101 321h-5l-80 -419h-114l132 689h101q4 -14 14.5 -48.5t24 -79.5t28 -95t27.5 -94
t22.5 -77.5t12.5 -44.5h6z" />
    <glyph glyph-name="Nu" unicode="&#x39d;" horiz-adv-x="660" 
d="M483 204q23 122 46 242.5t46 242.5h113l-131 -689h-107q-6 14 -23 50t-39 84t-46.5 101.5t-47 102.5t-40 87.5t-24.5 55.5h-6l-92 -481h-113l131 689h106q6 -13 23 -49.5t39.5 -85.5t47.5 -104.5t47.5 -105t39.5 -87.5t24 -53h6z" />
    <glyph glyph-name="Xi" unicode="&#x39e;" horiz-adv-x="550" 
d="M5 0l20 102h176l38 194h-124l20 103h124l37 187h-177l20 103h460l-21 -103h-179l-37 -187h128l-20 -103h-127l-38 -194h180l-20 -102h-460z" />
    <glyph glyph-name="Omicron" unicode="&#x39f;" horiz-adv-x="622" 
d="M576 216q-20 -106 -90.5 -164.5t-191.5 -58.5q-45 0 -87.5 13.5t-75 40.5t-52 66.5t-19.5 91.5q0 27 6 57l41 211q21 108 91 165.5t185 57.5q49 0 93 -15t76 -42t51 -65.5t19 -85.5q0 -11 -1 -22t-3 -23zM504 438q2 9 3 17t1 16q0 30 -11 52.5t-29 37.5t-41 22.5t-48 7.5
q-62 0 -105 -33.5t-57 -108.5l-38 -199q-4 -19 -4 -38q0 -30 10 -51.5t27 -35.5t39 -20.5t46 -6.5q72 0 113.5 38t56.5 114z" />
    <glyph glyph-name="Pi" unicode="&#x3a0;" horiz-adv-x="620" 
d="M419 0l114 586h-289l-114 -586h-114l134 689h519l-134 -689h-116z" />
    <glyph glyph-name="Rho" unicode="&#x3a1;" horiz-adv-x="562" 
d="M203 372h153q28 0 52 9.5t42 26t28 39t10 49.5q0 41 -25 65.5t-70 24.5h-149zM429 689q43 0 75 -15.5t53.5 -41.5t32 -59.5t10.5 -68.5q0 -40 -15 -81.5t-45 -76t-73.5 -56.5t-100.5 -22h-184l-52 -268h-114l134 689h279z" />
    <glyph glyph-name="Sigma" unicode="&#x3a3;" horiz-adv-x="510" 
d="M-6 0l19 99l208 259l-110 236l18 95h440l-20 -103h-302l106 -228l-207 -257h318l-20 -101h-450z" />
    <glyph glyph-name="Tau" unicode="&#x3a4;" horiz-adv-x="524" 
d="M397 585l-113 -585h-115l113 585h-190l20 104h496l-20 -104h-191z" />
    <glyph glyph-name="Upsilon" unicode="&#x3a5;" horiz-adv-x="547" 
d="M301 378l97 151l104 160h126l-288 -422l-51 -267h-114l51 267l-127 422h118l46 -179l33 -132h5z" />
    <glyph glyph-name="Phi" unicode="&#x3a6;" horiz-adv-x="776" 
d="M536 664q110 -5 168.5 -68.5t58.5 -170.5q0 -77 -21.5 -143t-64.5 -114.5t-107.5 -78t-151.5 -33.5l-11 -56h-115l11 56q-109 6 -167.5 69t-58.5 168q0 81 23.5 147t68 114t108 76.5t144.5 33.5l6 32h115zM437 156q56 5 96.5 27.5t66.5 57.5t38 80.5t12 97.5
q0 31 -7 57.5t-22.5 46t-41 31t-62.5 12.5zM401 564q-56 -3 -95.5 -27t-64.5 -61t-37 -82.5t-12 -91.5q0 -62 29.5 -101t100.5 -45z" />
    <glyph glyph-name="Chi" unicode="&#x3a7;" horiz-adv-x="572" 
d="M303 261l-197 -261h-135l282 353l-136 336h127l87 -243l180 243h135l-267 -336l151 -353h-129z" />
    <glyph glyph-name="Psi" unicode="&#x3a8;" horiz-adv-x="757" 
d="M740 369q-15 -108 -94 -172t-222 -69q-7 -32 -13 -64l-12 -64h-115l26 129q-47 3 -88 18.5t-71.5 42.5t-48 64t-17.5 83q0 22 5 50q2 10 6.5 33.5t10.5 53.5t12.5 64t12 64t10 53.5t6.5 33.5h112l-59 -301q-3 -18 -3 -34q0 -31 11.5 -53.5t30 -37t42 -22t46.5 -8.5h2
l89 458h114l-89 -458h1q31 1 61.5 10t56 26.5t43.5 44.5t25 64l60 311h111l-62 -320v0z" />
    <glyph glyph-name="Omega" unicode="&#x3a9;" horiz-adv-x="634" 
d="M326 0l25 122q20 6 39.5 17t36 28t29 40t18.5 52l36 187q3 16 3 30q0 30 -12 51.5t-30.5 36t-41 21t-44.5 6.5q-59 0 -104.5 -33t-59.5 -108l-36 -189q-3 -18 -3 -34q0 -44 22 -69t53 -36l-25 -122h-225l19 99h87q-25 19 -36.5 49t-11.5 65q0 23 4 42l41 213
q21 108 92 168t188 60q48 0 91 -14t76 -40t52.5 -63.5t19.5 -83.5q0 -21 -4 -40l-37 -206q-8 -48 -30.5 -88.5t-67.5 -61.5h84l-20 -99h-228z" />
    <glyph glyph-name="Iotadieresis" unicode="&#x3aa;" horiz-adv-x="273" 
d="M288 689l-134 -689h-114l134 689h114zM367 865q21 0 34.5 -13.5t13.5 -33.5q0 -28 -22 -48.5t-49 -20.5q-20 0 -33.5 13t-13.5 33q0 28 21 49t49 21zM170 865q22 0 35 -13.5t13 -33.5q0 -14 -6 -26t-16 -22t-22.5 -15.5t-25.5 -5.5q-21 0 -34.5 13t-13.5 33q0 28 21.5 49
t48.5 21z" />
    <glyph glyph-name="Upsilondieresis" unicode="&#x3ab;" horiz-adv-x="547" 
d="M301 378l97 151l104 160h126l-288 -422l-51 -267h-114l51 267l-127 422h118l46 -179l33 -132h5zM498 860q21 0 34.5 -13.5t13.5 -33.5q0 -28 -22 -48.5t-49 -20.5q-20 0 -33.5 13t-13.5 33q0 28 21 49t49 21zM301 860q22 0 35 -13.5t13 -33.5q0 -14 -6 -26t-16 -22
t-22.5 -15.5t-25.5 -5.5q-21 0 -34.5 13t-13.5 33q0 28 21.5 49t48.5 21z" />
    <glyph glyph-name="alphatonos" unicode="&#x3ac;" horiz-adv-x="513" 
d="M66 322q17 88 65 133.5t131 45.5q26 0 61.5 -9.5t82.5 -38.5l19 42h96l-97 -495h-96l-1 46q-31 -15 -55 -25t-43 -15.5t-34 -8t-28 -2.5q-66 0 -100.5 34t-34.5 96q0 20 5 48zM146 187q-3 -17 -3 -30q0 -32 16.5 -45.5t43.5 -13.5t65 15t80 36l39 210q-24 18 -57.5 30.5
t-65.5 12.5q-33 0 -58 -21t-35 -70zM274 570l113 185l92 -31l-146 -178z" />
    <glyph glyph-name="epsilontonos" unicode="&#x3ad;" horiz-adv-x="448" 
d="M408 59q-46 -36 -98.5 -49.5t-102.5 -13.5q-79 0 -126.5 35t-47.5 93q0 5 1.5 21.5t11 37t29 41t55.5 32.5l1 1q-31 15 -42 39t-11 47q0 24 12 52t37.5 51t64.5 38.5t93 15.5q47 0 96.5 -14t83.5 -49l-63 -74q-22 23 -54.5 33t-58.5 10q-17 0 -35.5 -4t-34 -12.5t-26 -22
t-10.5 -32.5q0 -20 19.5 -31t53.5 -11h67q-3 -21 -7 -41.5t-8 -41.5h-72q-18 0 -35 -4.5t-30.5 -12.5t-21.5 -21t-8 -29q0 -23 25.5 -37t63.5 -14q28 0 63 9.5t66 35.5q13 -20 25 -39t24 -39zM254 570l113 185l92 -31l-146 -178z" />
    <glyph glyph-name="etatonos" unicode="&#x3ae;" horiz-adv-x="513" 
d="M295 -149l89 458q3 16 3 30q0 33 -17.5 46.5t-45.5 13.5q-55 0 -143 -54l-67 -345h-106l97 495h95l1 -47q34 19 59 29.5t44 15.5t33.5 6.5t27.5 1.5q65 0 99 -33.5t34 -93.5q0 -11 -1 -23.5t-4 -26.5l-91 -473h-107zM262 570l113 185l92 -31l-146 -178z" />
    <glyph glyph-name="iotatonos" unicode="&#x3af;" horiz-adv-x="267" 
d="M235 496l-64 -329q-2 -11 -3.5 -19.5t-0.5 -15.5q0 -25 12.5 -32.5t36.5 -9.5l-20 -92h-18q-57 0 -89 25t-32 79q0 21 4 41l68 353h106zM142 570l113 185l92 -31l-146 -178z" />
    <glyph glyph-name="upsilondieresistonos" unicode="&#x3b0;" horiz-adv-x="513" 
d="M459 172q-17 -89 -77.5 -133t-154.5 -44q-33 0 -67 9t-61 28t-44 49.5t-17 74.5q0 11 1 22t3 23l58 295h106l-59 -301q-1 -6 -1.5 -12t-0.5 -11q0 -21 8 -36t21 -24.5t29 -14t32 -4.5q19 0 38.5 5.5t36 17.5t29.5 31.5t18 47.5l59 301h105zM409 632q5 24 25 41t44 17
t38 -17t9 -41t-25 -41t-44 -17t-38 17t-9 41zM133 632q5 24 25 41t45 17q24 0 38 -17t9 -41t-25 -41t-44 -17q-25 0 -39 17t-9 41zM245 565l102 189l95 -24l-136 -185z" />
    <glyph glyph-name="alpha" unicode="&#x3b1;" horiz-adv-x="513" 
d="M66 322q17 88 65 133.5t131 45.5q26 0 61.5 -9.5t82.5 -38.5l19 42h96l-97 -495h-96l-1 46q-31 -15 -55 -25t-43 -15.5t-34 -8t-28 -2.5q-66 0 -100.5 34t-34.5 96q0 20 5 48zM146 187q-3 -17 -3 -30q0 -32 16.5 -45.5t43.5 -13.5t65 15t80 36l39 210q-24 18 -57.5 30.5
t-65.5 12.5q-33 0 -58 -21t-35 -70z" />
    <glyph glyph-name="beta" unicode="&#x3b2;" horiz-adv-x="511" 
d="M462 172q-17 -83 -68.5 -130.5t-139.5 -47.5q-26 0 -60 5t-76 25l-38 -197h-104l134 692q18 92 76.5 141.5t145.5 49.5q49 0 83 -14.5t55 -37t30 -50.5t9 -55q0 -14 -4 -33.5t-13.5 -39.5t-26.5 -39t-43 -33q32 -14 46.5 -44.5t14.5 -66.5q0 -9 -1 -18t-3 -18zM374 265
q2 6 2 11v10q0 32 -23 50t-62 18h-47l16 86h42q24 0 43.5 9.5t34 24.5t22 33t7.5 36q0 31 -21 54.5t-59 23.5q-26 0 -46 -8.5t-33.5 -22.5t-22 -31.5t-11.5 -35.5l-78 -400q38 -18 64.5 -23.5t53.5 -5.5q35 0 62.5 18.5t38.5 69.5z" />
    <glyph glyph-name="gamma" unicode="&#x3b3;" horiz-adv-x="466" 
d="M227 183h4q20 36 38.5 71.5t36.5 70.5q24 43 47 85t46 85h115q-65 -115 -129 -230t-127 -230l-44 -235h-104l41 237q-12 80 -25.5 162t-26.5 160q-3 17 -6 26.5t-7.5 14.5t-11 6t-16.5 1h-5l2 85q33 9 55 9q39 0 59 -19.5t26 -70.5z" />
    <glyph glyph-name="delta" unicode="&#x3b4;" horiz-adv-x="511" 
d="M462 178q-17 -86 -70.5 -134.5t-157.5 -48.5q-41 0 -76 12.5t-60.5 35t-40 54.5t-14.5 71q0 23 4 43l19 98q11 57 41 99t85 61q-29 18 -38.5 40t-9.5 45q0 38 15.5 67.5t42.5 50t62.5 31t75.5 10.5q50 0 95 -11t82 -40l-53 -78q-29 20 -58 29t-57 9q-42 0 -66 -15
t-24 -39q0 -17 9.5 -29t24 -21.5t33 -17t36.5 -15.5q122 -52 122 -162q0 -11 -1 -21.5t-3 -22.5zM375 277q2 9 3 17.5t1 16.5q0 42 -25.5 66t-76.5 37q-43 -9 -71.5 -41t-39.5 -89l-14 -75q-3 -15 -3 -30q0 -42 23.5 -65t65.5 -23q57 0 84.5 29.5t38.5 83.5z" />
    <glyph glyph-name="epsilon" unicode="&#x3b5;" horiz-adv-x="448" 
d="M408 59q-46 -36 -98.5 -49.5t-102.5 -13.5q-79 0 -126.5 35t-47.5 93q0 5 1.5 21.5t11 37t29 41t55.5 32.5l1 1q-31 15 -42 39t-11 47q0 24 12 52t37.5 51t64.5 38.5t93 15.5q47 0 96.5 -14t83.5 -49l-63 -74q-22 23 -54.5 33t-58.5 10q-17 0 -35.5 -4t-34 -12.5t-26 -22
t-10.5 -32.5q0 -20 19.5 -31t53.5 -11h67q-3 -21 -7 -41.5t-8 -41.5h-72q-18 0 -35 -4.5t-30.5 -12.5t-21.5 -21t-8 -29q0 -23 25.5 -37t63.5 -14q28 0 63 9.5t66 35.5q13 -20 25 -39t24 -39z" />
    <glyph glyph-name="zeta" unicode="&#x3b6;" horiz-adv-x="418" 
d="M515 615q-88 -55 -157.5 -112.5t-118 -113.5t-74 -107.5t-25.5 -93.5q0 -33 16.5 -53t46 -31.5t71.5 -15t93 -3.5q5 -17 11 -35.5t12 -35.5q-15 -17 -31 -40.5t-30.5 -50t-28 -54.5t-23.5 -54q-23 7 -46.5 12.5t-47.5 12.5q6 16 15.5 36.5t20.5 41.5t23 41t24 35
q-50 3 -92.5 14t-74 32.5t-49.5 54.5t-18 79q0 48 23 104.5t66 114t104 112.5t137 101h-231l8 46t9 46h383q-5 -21 -8.5 -41.5t-7.5 -41.5z" />
    <glyph glyph-name="eta" unicode="&#x3b7;" horiz-adv-x="513" 
d="M295 -149l89 458q3 16 3 30q0 33 -17.5 46.5t-45.5 13.5q-55 0 -143 -54l-67 -345h-106l97 495h95l1 -47q34 19 59 29.5t44 15.5t33.5 6.5t27.5 1.5q65 0 99 -33.5t34 -93.5q0 -11 -1 -23.5t-4 -26.5l-91 -473h-107z" />
    <glyph glyph-name="theta" unicode="&#x3b8;" horiz-adv-x="511" 
d="M460 175q-10 -49 -30.5 -83.5t-50.5 -56t-68 -31t-82 -9.5q-38 0 -72 10.5t-59.5 32t-41 53.5t-15.5 74q0 21 5 49l62 313q17 89 74.5 134t152.5 45q45 0 80.5 -13.5t60 -36.5t37.5 -55.5t13 -69.5q0 -11 -1 -22t-3 -22zM383 320h-210l-22 -113q-2 -8 -2 -14.5v-13.5
q0 -24 7.5 -40t20.5 -26.5t28.5 -15t32.5 -4.5q20 0 38.5 4.5t34.5 15.5t28 31t18 51zM190 406h210l17 81q3 15 3 29q0 45 -27 68t-66 23q-43 0 -75 -22t-43 -79z" />
    <glyph glyph-name="iota" unicode="&#x3b9;" horiz-adv-x="267" 
d="M235 496l-64 -329q-2 -11 -3.5 -19.5t-0.5 -15.5q0 -25 12.5 -32.5t36.5 -9.5l-20 -92h-18q-57 0 -89 25t-32 79q0 21 4 41l68 353h106z" />
    <glyph glyph-name="kappa" unicode="&#x3ba;" horiz-adv-x="491" 
d="M503 496l-63 -143q-17 -36 -39 -61t-52 -34q33 -11 43.5 -35t16.5 -61l23 -162h-108l-16 140q-3 23 -9.5 37t-17 21.5t-24.5 10t-31 2.5h-73l-38 -211h-103l91 496h104l-37 -191h64q15 0 28.5 2t26 8.5t24 20t22.5 36.5l57 124h111z" />
    <glyph glyph-name="lambda" unicode="&#x3bb;" horiz-adv-x="517" 
d="M428 0h-106l66 346q-32 14 -61 21.5t-56 7.5q-35 0 -63.5 -20.5t-38.5 -71.5l-54 -283h-107l58 308q16 83 66.5 125t131.5 42q26 0 64 -6.5t79 -22.5l12 63q2 8 3 15t1 14q0 39 -26.5 59t-69.5 20q-33 0 -68 -6t-64 -20l-30 90q45 20 91 27.5t90 7.5q85 0 134.5 -41.5
t49.5 -119.5q0 -11 -1 -23.5t-4 -26.5z" />
    <glyph glyph-name="nu" unicode="&#x3bd;" horiz-adv-x="470" 
d="M219 138l117 219q11 21 18.5 36.5t12.5 29.5t7 27.5t2 28.5v18h109v-17q0 -45 -12 -77.5t-34 -69.5l-195 -333h-103l-83 495h114q1 -6 4.5 -34t8 -60t8 -59.5t3.5 -33.5q1 -4 2.5 -17.5t3.5 -30.5t4 -37t4 -37t3.5 -30.5t1.5 -17.5h4z" />
    <glyph glyph-name="xi" unicode="&#x3be;" horiz-adv-x="434" 
d="M479 577q-35 23 -68 29t-60 6q-33 0 -57.5 -9.5t-41 -24.5t-25 -34t-8.5 -39q0 -32 28.5 -55t69.5 -23h106l-16 -81h-108q-37 0 -66 -13.5t-49.5 -36t-31.5 -50.5t-11 -57q0 -32 15 -51t39 -30.5t54 -16t61 -5.5h63l23 -72q-15 -17 -30.5 -40t-30 -49.5t-28 -54.5
t-23.5 -54l-96 24q6 16 15.5 36.5t21 42t23.5 41.5t24 35q-51 3 -94 14t-74.5 33.5t-49 57.5t-17.5 85q0 19 6 47t22.5 57.5t45 56t74.5 42.5q-21 10 -35 24.5t-22 30.5t-11 33t-3 33q0 46 19 82.5t52 62t76.5 39t92.5 13.5q15 0 37 -0.5t46.5 -4.5t49.5 -12.5t45 -24.5z
" />
    <glyph glyph-name="omicron" unicode="&#x3bf;" horiz-adv-x="513" 
d="M464 172q-19 -95 -78 -136t-146 -41q-36 0 -71 10.5t-62 32t-43.5 54t-16.5 77.5q0 11 1 22t3 23l19 104q17 89 72 136t151 47q45 0 81 -13.5t61.5 -37.5t39.5 -56.5t14 -70.5q0 -22 -4 -41zM380 282q3 15 3 29q0 45 -27.5 68.5t-67.5 23.5q-43 0 -73.5 -22.5
t-41.5 -79.5l-17 -94q-2 -8 -2 -14.5v-12.5q0 -24 8 -40.5t21 -27t29 -15t32 -4.5q20 0 38.5 4.5t34 15.5t27.5 31t18 51z" />
    <glyph glyph-name="pi" unicode="&#x3c0;" horiz-adv-x="513" 
d="M322 0l77 402h-207l-78 -402h-106l96 495h421l-96 -495h-107z" />
    <glyph glyph-name="rho" unicode="&#x3c1;" horiz-adv-x="505" 
d="M456 172q-16 -84 -67.5 -131t-140.5 -47q-26 0 -59.5 5t-75.5 25l-43 -222h-105l101 515q18 93 77 138.5t155 45.5q39 0 73 -11t59 -31.5t39.5 -49.5t14.5 -66q0 -17 -3 -35zM132 123q38 -18 65 -23.5t54 -5.5q16 0 32 4t30 14.5t24.5 27t15.5 42.5l22 113q3 13 3 26
q0 43 -27 62.5t-62 19.5q-18 0 -37.5 -5.5t-36.5 -17.5t-29.5 -31.5t-18.5 -47.5z" />
    <glyph glyph-name="sigma1" unicode="&#x3c2;" horiz-adv-x="443" 
d="M157 217q-3 -15 -3 -29q0 -35 16.5 -55.5t44 -31.5t62 -14t70.5 -3h30q5 -17 11 -35t12 -35q-15 -17 -30.5 -40t-30.5 -49.5t-28 -54.5t-24 -54l-95 25q6 17 15.5 38.5t20.5 42.5t23 40.5t23 32.5q-6 -1 -11.5 -1h-11.5q-44 0 -81 14t-64 38.5t-42.5 58.5t-15.5 74
q0 18 3 38l19 106q16 88 77 133t146 45q21 0 45.5 -4t47.5 -12t44.5 -21.5t36.5 -32.5l-69 -76q-12 15 -26.5 24t-29.5 14t-29 7t-24 2q-42 0 -74 -22t-43 -79z" />
    <glyph glyph-name="sigma" unicode="&#x3c3;" horiz-adv-x="529" 
d="M458 172q-9 -49 -29.5 -82.5t-50 -54.5t-67 -30.5t-80.5 -9.5q-38 0 -72 12.5t-60.5 35.5t-42 56t-15.5 74q0 9 1 18.5t3 20.5l19 104q17 89 76 134t152 45h258q-2 -23 -3.5 -46t-3.5 -46h-96v-2q19 -14 26.5 -37t7.5 -48q0 -11 -1 -20.5t-3 -18.5zM372 276q3 13 3 26
q0 42 -25.5 68.5t-67.5 26.5q-43 0 -75 -22.5t-42 -79.5l-15 -89q-1 -6 -1.5 -12.5t-0.5 -11.5q0 -43 26 -66.5t69 -23.5q40 0 71.5 23.5t42.5 79.5z" />
    <glyph glyph-name="tau" unicode="&#x3c4;" horiz-adv-x="376" 
d="M204 181q-3 -18 -3 -34q0 -24 12 -37.5t45 -13.5q16 0 35.5 2t42.5 4l3 -91q-16 -5 -33.5 -8.5t-34 -5t-30.5 -2t-23 -0.5q-36 0 -61 7.5t-40 22t-21.5 34.5t-6.5 45t6 55l47 244h-101l18 92h331l-18 -92h-125z" />
    <glyph glyph-name="upsilon" unicode="&#x3c5;" horiz-adv-x="513" 
d="M459 172q-17 -89 -77.5 -133t-154.5 -44q-33 0 -67 9t-61 28t-44 49.5t-17 74.5q0 11 1 22t3 23l58 295h106l-59 -301q-1 -6 -1.5 -12t-0.5 -11q0 -21 8 -36t21 -24.5t29 -14t32 -4.5q19 0 38.5 5.5t36 17.5t29.5 31.5t18 47.5l59 301h105l-62 -324v0z" />
    <glyph glyph-name="phi" unicode="&#x3c6;" horiz-adv-x="653" 
d="M298 -199h-106l37 194q-44 1 -78.5 14t-58.5 36t-37 55t-13 71q0 11 1 22.5t3 23.5l19 101q7 36 23.5 66.5t40.5 53.5t54.5 37t66.5 17l4 -97q-38 -7 -59.5 -31.5t-29.5 -66.5l-17 -91q-1 -6 -1.5 -11.5t-0.5 -11.5q0 -39 26.5 -65t76.5 -26q17 91 34.5 180t35.5 180
q48 25 89.5 37t81.5 12q73 0 107.5 -40t34.5 -106q0 -22 -5 -50l-22 -127q-16 -91 -86.5 -137t-183.5 -46zM520 300q3 15 3 29q0 29 -13.5 48t-45.5 19q-11 0 -25 -3.5t-28 -8.5q-14 -73 -28.5 -145.5t-28.5 -145.5q55 0 97 25.5t53 87.5z" />
    <glyph glyph-name="chi" unicode="&#x3c7;" horiz-adv-x="470" 
d="M298 0l-69 173l-140 -173h-128l222 253l-117 243h123l61 -166l132 166h129l-214 -241l126 -255h-125z" />
    <glyph glyph-name="psi" unicode="&#x3c8;" horiz-adv-x="657" 
d="M605 185q-18 -93 -86.5 -141.5t-178.5 -48.5l-37 -195h-106l38 196q-39 1 -74 12t-60.5 32.5t-40.5 54t-15 76.5q0 13 1 26.5t4 27.5l54 270h105l-55 -285q-3 -15 -3 -29q0 -42 26 -65t77 -23l78 402h106l-78 -402q65 0 98.5 31t44.5 83l57 288h105l-60 -310v0z" />
    <glyph glyph-name="omega" unicode="&#x3c9;" horiz-adv-x="776" 
d="M726 175q-18 -88 -74 -134t-150 -46q-21 0 -43 4.5t-41.5 14t-34 23.5t-21.5 34q-32 -37 -74 -56.5t-86 -19.5q-34 0 -63.5 10t-51.5 30t-34.5 49t-12.5 68q0 20 5 48l22 119q14 78 62.5 125.5t136.5 53.5l1 -95q-37 -6 -63.5 -31t-35.5 -74l-19 -100q-3 -17 -3 -31
q0 -39 21.5 -56.5t53.5 -17.5q37 0 69.5 24t43.5 81l31 163h105l-30 -163q-3 -15 -3 -30q0 -35 19.5 -55t56.5 -20q47 0 74 27t37 78l20 100q3 16 3 29q0 34 -16.5 52t-42.5 23l35 96q55 -9 92.5 -47t37.5 -103q0 -20 -4 -39l-23 -134v0z" />
    <glyph glyph-name="iotadieresis" unicode="&#x3ca;" horiz-adv-x="267" 
d="M235 496l-64 -329q-2 -11 -3.5 -19.5t-0.5 -15.5q0 -25 12.5 -32.5t36.5 -9.5l-20 -92h-18q-57 0 -89 25t-32 79q0 21 4 41l68 353h106zM325 690q21 0 34.5 -13.5t13.5 -33.5q0 -28 -22 -48.5t-49 -20.5q-20 0 -33.5 13t-13.5 33q0 28 21 49t49 21zM128 690
q22 0 35 -13.5t13 -33.5q0 -14 -6 -26t-16 -22t-22.5 -15.5t-25.5 -5.5q-21 0 -34.5 13t-13.5 33q0 28 21.5 49t48.5 21z" />
    <glyph glyph-name="upsilondieresis" unicode="&#x3cb;" horiz-adv-x="513" 
d="M459 172q-17 -89 -77.5 -133t-154.5 -44q-33 0 -67 9t-61 28t-44 49.5t-17 74.5q0 11 1 22t3 23l58 295h106l-59 -301q-1 -6 -1.5 -12t-0.5 -11q0 -21 8 -36t21 -24.5t29 -14t32 -4.5q19 0 38.5 5.5t36 17.5t29.5 31.5t18 47.5l59 301h105zM441 690q21 0 34.5 -13.5
t13.5 -33.5q0 -28 -22 -48.5t-49 -20.5q-20 0 -33.5 13t-13.5 33q0 28 21 49t49 21zM244 690q22 0 35 -13.5t13 -33.5q0 -14 -6 -26t-16 -22t-22.5 -15.5t-25.5 -5.5q-21 0 -34.5 13t-13.5 33q0 28 21.5 49t48.5 21z" />
    <glyph glyph-name="omicrontonos" unicode="&#x3cc;" horiz-adv-x="513" 
d="M464 172q-19 -95 -78 -136t-146 -41q-36 0 -71 10.5t-62 32t-43.5 54t-16.5 77.5q0 11 1 22t3 23l19 104q17 89 72 136t151 47q45 0 81 -13.5t61.5 -37.5t39.5 -56.5t14 -70.5q0 -22 -4 -41zM380 282q3 15 3 29q0 45 -27.5 68.5t-67.5 23.5q-43 0 -73.5 -22.5
t-41.5 -79.5l-17 -94q-2 -8 -2 -14.5v-12.5q0 -24 8 -40.5t21 -27t29 -15t32 -4.5q20 0 38.5 4.5t34 15.5t27.5 31t18 51zM280 570l112 185l92 -31l-145 -178z" />
    <glyph glyph-name="upsilontonos" unicode="&#x3cd;" horiz-adv-x="513" 
d="M459 172q-17 -89 -77.5 -133t-154.5 -44q-33 0 -67 9t-61 28t-44 49.5t-17 74.5q0 11 1 22t3 23l58 295h106l-59 -301q-1 -6 -1.5 -12t-0.5 -11q0 -21 8 -36t21 -24.5t29 -14t32 -4.5q19 0 38.5 5.5t36 17.5t29.5 31.5t18 47.5l59 301h105zM264 570l113 185l92 -31
l-146 -178z" />
    <glyph glyph-name="omegatonos" unicode="&#x3ce;" horiz-adv-x="776" 
d="M726 175q-18 -88 -74 -134t-150 -46q-21 0 -43 4.5t-41.5 14t-34 23.5t-21.5 34q-32 -37 -74 -56.5t-86 -19.5q-34 0 -63.5 10t-51.5 30t-34.5 49t-12.5 68q0 20 5 48l22 119q14 78 62.5 125.5t136.5 53.5l1 -95q-37 -6 -63.5 -31t-35.5 -74l-19 -100q-3 -17 -3 -31
q0 -39 21.5 -56.5t53.5 -17.5q37 0 69.5 24t43.5 81l31 163h105l-30 -163q-3 -15 -3 -30q0 -35 19.5 -55t56.5 -20q47 0 74 27t37 78l20 100q3 16 3 29q0 34 -16.5 52t-42.5 23l35 96q55 -9 92.5 -47t37.5 -103q0 -20 -4 -39zM389 570l113 185l92 -31l-146 -178z" />
    <glyph glyph-name="afii10023" unicode="&#x401;" horiz-adv-x="568" 
d="M157 689h457l-20 -103h-343l-36 -189h301l-20 -103h-302l-37 -192h370l-20 -102h-484zM524 856q23 0 36.5 -15t11.5 -37q-3 -26 -24 -45t-46 -19q-23 0 -36.5 15.5t-10.5 38.5q2 25 23 43.5t46 18.5zM325 856q23 0 36 -15t11 -37q-3 -26 -23.5 -45t-46.5 -19
q-23 0 -36.5 15.5t-10.5 37.5q2 26 23 44.5t47 18.5z" />
    <glyph glyph-name="afii10051" unicode="&#x402;" horiz-adv-x="717" 
d="M578 228q2 14 4 25.5t2 22.5q0 47 -25.5 71.5t-81.5 24.5q-33 0 -74.5 -15.5t-79.5 -36.5l-62 -320h-115l114 585h-171l20 104h529l-20 -104h-243l-31 -155q43 21 86 34t84 13q48 0 83 -13.5t58 -37t34 -56t11 -70.5q0 -28 -6 -58l-18 -101q-9 -49 -23.5 -91t-42 -73
t-70.5 -49t-108 -18q-11 0 -22 0.5t-23 1.5l21 103q40 0 67 8t44.5 25t28 42.5t16.5 61.5z" />
    <glyph glyph-name="afii10052" unicode="&#x403;" horiz-adv-x="524" 
d="M23 0l134 689h460l-19 -103h-347l-114 -586h-114zM318 783l182 129l57 -74l-204 -104z" />
    <glyph glyph-name="afii10053" unicode="&#x404;" horiz-adv-x="548" 
d="M527 541q-24 25 -65 38t-78 13q-67 0 -106.5 -34.5t-54.5 -111.5l-9 -45h214l-19 -98h-215l-11 -59q-3 -18 -3 -33q0 -29 11 -50.5t29 -35t41 -20t47 -6.5q37 0 81.5 13t78.5 39l48 -94q-44 -32 -104.5 -48t-118.5 -16q-44 0 -85 12.5t-73 37.5t-51.5 62t-19.5 86
q0 12 1.5 24t3.5 26l45 231q21 107 85 165.5t187 58.5q58 0 114.5 -16.5t92.5 -50.5z" />
    <glyph glyph-name="afii10054" unicode="&#x405;" horiz-adv-x="569" 
d="M360 702q61 0 118.5 -14t103.5 -47l-58 -92q-36 26 -79 37.5t-87 11.5q-23 0 -47.5 -6.5t-44.5 -19.5t-33.5 -34t-13.5 -49q0 -22 11.5 -37t29.5 -25.5t39.5 -17t41.5 -10.5q46 -11 83.5 -25t64.5 -34.5t41.5 -50.5t14.5 -72q0 -52 -23 -93t-62.5 -70t-91.5 -44.5
t-109 -15.5q-75 0 -137.5 22t-110.5 70q5 5 15 16.5t20.5 24t20.5 24t15 16.5q35 -32 82 -50t100 -18q74 0 116 32.5t42 80.5q0 22 -11.5 36.5t-30.5 24.5t-42 17t-47 13q-36 8 -70.5 20.5t-60.5 32.5t-42 49.5t-16 71.5q0 51 19.5 92.5t54 70.5t81.5 45.5t103 16.5z" />
    <glyph glyph-name="afii10055" unicode="&#x406;" horiz-adv-x="273" 
d="M288 689l-134 -689h-114l134 689h114z" />
    <glyph glyph-name="afii10056" unicode="&#x407;" horiz-adv-x="273" 
d="M288 689l-134 -689h-114l134 689h114zM361 869q21 0 34.5 -13.5t13.5 -33.5q0 -28 -22 -48.5t-49 -20.5q-20 0 -33.5 13t-13.5 33q0 28 21 49t49 21zM164 869q22 0 35 -13.5t13 -33.5q0 -14 -6 -26t-16 -22t-22.5 -15.5t-25.5 -5.5q-21 0 -34.5 13t-13.5 33q0 28 21.5 49
t48.5 21z" />
    <glyph glyph-name="afii10057" unicode="&#x408;" horiz-adv-x="528" 
d="M452 219q-21 -109 -85 -167.5t-179 -58.5q-59 0 -115 16t-87 45l64 87q30 -24 70.5 -33t70.5 -9q28 0 52.5 7.5t44 24.5t33.5 45t22 69l86 444h115l-92 -470v0z" />
    <glyph glyph-name="afii10058" unicode="&#x409;" horiz-adv-x="930" 
d="M340 585q-2 -7 -3.5 -16t-5.5 -29.5t-10.5 -57t-18.5 -97.5q-18 -92 -39.5 -162t-54 -119.5t-79.5 -80t-116 -42.5l-21 93q48 15 79 38.5t52.5 59.5t36.5 88t29 126l58 303h386q-13 -69 -26.5 -137t-26.5 -137h157q90 0 138.5 -48t48.5 -127q0 -43 -13.5 -85.5t-42.5 -77
t-75 -56t-110 -21.5h-297l113 585h-159zM560 312l-40 -209h157q63 0 98.5 34.5t35.5 91.5q0 40 -25.5 61.5t-78.5 21.5h-147z" />
    <glyph glyph-name="afii10059" unicode="&#x40a;" horiz-adv-x="929" 
d="M434 307h-233l-59 -307h-113l132 689h113l-54 -279h234l54 279h113l-54 -280h157q90 0 138.5 -46t48.5 -124q0 -43 -13 -85.5t-42 -76.5t-74.5 -55.5t-109.5 -21.5h-297zM509 103h157q64 0 98.5 33t34.5 90q0 80 -105 80h-147z" />
    <glyph glyph-name="afii10060" unicode="&#x40b;" horiz-adv-x="731" 
d="M537 0l43 228q2 13 3.5 24.5t1.5 22.5q0 47 -26 72t-83 25q-33 0 -73.5 -15.5t-77.5 -36.5l-62 -320h-115l113 585h-171l20 104h529l-20 -104h-243l-30 -155q43 21 85 34t83 13q48 0 83 -13.5t58.5 -37.5t35 -56.5t11.5 -71.5q0 -26 -6 -56l-44 -242h-115z" />
    <glyph glyph-name="afii10061" unicode="&#x40c;" horiz-adv-x="576" 
d="M20 0l127 689h112l-53 -287h85q18 0 35.5 3t35 13t33.5 28.5t30 49.5l84 193h118l-89 -206q-22 -52 -53 -85t-65 -44q39 -14 56 -49.5t22 -86.5l24 -218h-118l-20 203q-3 31 -11.5 50.5t-22 30.5t-31 14.5t-37.5 3.5h-94l-56 -302h-112zM320 783l182 129l57 -74
l-204 -104z" />
    <glyph glyph-name="afii10062" unicode="&#x40e;" horiz-adv-x="563" 
d="M72 94h41q30 0 54 10t41 41l13 22l-102 522h113l33 -205l30 -202h5l105 199l111 208h121l-306 -546q-28 -49 -52 -79t-49.5 -46t-53.5 -21t-64 -5h-53zM373 705q-39 0 -65 12t-41 32t-20.5 46t-2.5 54h81q-2 -10 0.5 -22t9 -22t17.5 -17t28 -7q16 0 30 6.5t24 16
t16.5 21.5t8.5 24h84q-6 -23 -18 -48.5t-32.5 -46.5t-50 -35t-69.5 -14z" />
    <glyph glyph-name="afii10145" unicode="&#x40f;" horiz-adv-x="622" 
d="M673 689l-134 -689h-200l-33 -171h-122l33 171h-197l134 689h114l-114 -586h289l114 586h116z" />
    <glyph glyph-name="afii10017" unicode="&#x410;" horiz-adv-x="617" 
d="M426 149h-256l-77 -149h-123l372 689h116l106 -689h-120zM222 248h190l-17 135l-19 160h-4l-77 -154z" />
    <glyph glyph-name="afii10018" unicode="&#x411;" horiz-adv-x="600" 
d="M171 689h411q-5 -26 -9.5 -52t-9.5 -52h-297l-34 -170h158q89 0 137.5 -48t48.5 -127q0 -43 -13.5 -85.5t-42.5 -77t-74.5 -56t-109.5 -21.5h-296zM213 312q-11 -53 -20.5 -105t-19.5 -104h157q63 0 98.5 34.5t35.5 91.5q0 40 -25.5 61.5t-78.5 21.5h-147z" />
    <glyph glyph-name="afii10019" unicode="&#x412;" horiz-adv-x="608" 
d="M437 689q46 0 79.5 -13t55.5 -35.5t32.5 -52t10.5 -62.5q0 -54 -28 -97t-88 -72q40 -22 53.5 -59t13.5 -76q0 -43 -15.5 -83t-45 -71t-72 -49.5t-95.5 -18.5h-320l134 689h285zM211 404h162q27 0 49.5 9t38 23.5t24.5 33t9 37.5q0 40 -24.5 59.5t-66.5 19.5h-156z
M152 102h162q28 0 52.5 8t42.5 23t28 37t10 49q0 41 -24.5 62.5t-66.5 21.5h-164z" />
    <glyph glyph-name="afii10020" unicode="&#x413;" horiz-adv-x="524" 
d="M23 0l134 689h460l-19 -103h-347l-114 -586h-114z" />
    <glyph glyph-name="afii10021" unicode="&#x414;" horiz-adv-x="710" 
d="M40 103q26 17 47.5 41t39.5 60t34 86.5t33 119.5l66 279h450l-112 -587h58l-50 -253h-107l30 151h-452l-30 -151h-105l48 254h50zM344 586q-23 -90 -40.5 -165t-35.5 -135.5t-39.5 -106.5t-51.5 -78h306l93 485h-232z" />
    <glyph glyph-name="afii10022" unicode="&#x415;" horiz-adv-x="568" 
d="M157 689h457l-20 -103h-343l-36 -189h301l-20 -103h-302l-37 -192h370l-20 -102h-484z" />
    <glyph glyph-name="afii10024" unicode="&#x416;" horiz-adv-x="879" 
d="M348 0l56 302h-64q-20 0 -39 -3.5t-36.5 -14t-33.5 -30t-30 -51.5l-86 -203h-122l96 221q23 51 54.5 87t76.5 50q-29 11 -48 44t-24 84l-28 203h111l28 -193q4 -31 14.5 -49.5t24.5 -28.5t31.5 -13t35.5 -3h57l53 287h112l-53 -287h59q18 0 36 3t35 13t33.5 28.5
t31.5 49.5l86 193h114l-89 -208q-25 -57 -55 -86t-65 -40q40 -14 57 -50t22 -87l25 -218h-116l-20 203q-3 31 -12 50.5t-22.5 30.5t-31.5 14.5t-38 3.5h-68l-56 -302h-112z" />
    <glyph glyph-name="afii10025" unicode="&#x417;" horiz-adv-x="575" 
d="M356 695q43 0 82.5 -9.5t68.5 -29t46.5 -49.5t17.5 -70q0 -61 -35 -107.5t-96 -68.5q42 -20 62.5 -56.5t20.5 -74.5q0 -60 -23.5 -105t-63 -74t-90.5 -43.5t-105 -14.5q-32 0 -64 5t-61.5 14t-54 22t-41.5 29l70 81q13 -12 32.5 -21t41 -15.5t43 -10t39.5 -3.5
q34 0 63.5 8.5t51.5 25t34.5 40t12.5 53.5q0 45 -30.5 69t-81.5 24h-84l18 93h93q20 0 43.5 5.5t43.5 18t33.5 33t13.5 50.5q0 21 -10 36.5t-26 25t-36 14t-41 4.5q-45 0 -90 -14.5t-79 -38.5l-49 84q47 32 106.5 51t123.5 19z" />
    <glyph glyph-name="afii10026" unicode="&#x418;" horiz-adv-x="656" 
d="M538 487l-407 -487h-104l132 689h113l-92 -482h5l405 482h107l-132 -689h-114l93 487h-6z" />
    <glyph glyph-name="afii10027" unicode="&#x419;" horiz-adv-x="656" 
d="M425 719q-39 0 -65 12t-41 32t-20.5 46t-2.5 54h81q-2 -10 0.5 -22t9 -22t17.5 -17t28 -7q16 0 30 6.5t24 16t16.5 21.5t8.5 24h84q-6 -23 -18 -48.5t-32.5 -46.5t-50 -35t-69.5 -14zM538 487l-407 -487h-104l132 689h113l-92 -482h5l405 482h107l-132 -689h-114l93 487
h-6z" />
    <glyph glyph-name="afii10028" unicode="&#x41a;" horiz-adv-x="576" 
d="M20 0l127 689h112l-53 -287h85q18 0 35.5 3t35 13t33.5 28.5t30 49.5l84 193h118l-89 -206q-22 -52 -53 -85t-65 -44q39 -14 56 -49.5t22 -86.5l24 -218h-118l-20 203q-3 31 -11.5 50.5t-22 30.5t-31 14.5t-37.5 3.5h-94l-56 -302h-112z" />
    <glyph glyph-name="afii10029" unicode="&#x41b;" horiz-adv-x="635" 
d="M320 586l-39 -201q-18 -92 -39.5 -161.5t-53.5 -119.5t-79 -80.5t-117 -43.5l-21 96q48 16 79.5 38.5t53 58.5t36 87.5t28.5 125.5l59 303h439l-133 -689h-117l114 586h-210z" />
    <glyph glyph-name="afii10030" unicode="&#x41c;" horiz-adv-x="763" 
d="M386 250q28 40 53.5 80t52.5 79q34 49 60.5 88.5t49 72.5t42 62t38.5 57h110l-131 -689h-114l81 420h-4q-4 -6 -20.5 -30t-39 -56.5t-48.5 -70t-49.5 -71.5t-41.5 -59.5t-24 -34.5h-83l-101 321h-5l-80 -419h-114l132 689h101q4 -14 14.5 -48.5t24 -79.5t28 -95t27.5 -94
t22.5 -77.5t12.5 -44.5h6z" />
    <glyph glyph-name="afii10031" unicode="&#x41d;" horiz-adv-x="620" 
d="M419 0l58 298h-289l-58 -298h-114l134 689h114l-56 -288h289l56 288h116l-134 -689h-116z" />
    <glyph glyph-name="afii10032" unicode="&#x41e;" horiz-adv-x="622" 
d="M576 216q-20 -106 -90.5 -164.5t-191.5 -58.5q-45 0 -87.5 13.5t-75 40.5t-52 66.5t-19.5 91.5q0 27 6 57l41 211q21 108 91 165.5t185 57.5q49 0 93 -15t76 -42t51 -65.5t19 -85.5q0 -11 -1 -22t-3 -23zM504 438q2 9 3 17t1 16q0 30 -11 52.5t-29 37.5t-41 22.5t-48 7.5
q-62 0 -105 -33.5t-57 -108.5l-38 -199q-4 -19 -4 -38q0 -30 10 -51.5t27 -35.5t39 -20.5t46 -6.5q72 0 113.5 38t56.5 114z" />
    <glyph glyph-name="afii10033" unicode="&#x41f;" horiz-adv-x="620" 
d="M419 0l114 586h-289l-114 -586h-114l134 689h519l-134 -689h-116z" />
    <glyph glyph-name="afii10034" unicode="&#x420;" horiz-adv-x="562" 
d="M203 372h153q28 0 52 9.5t42 26t28 39t10 49.5q0 41 -25 65.5t-70 24.5h-149zM429 689q43 0 75 -15.5t53.5 -41.5t32 -59.5t10.5 -68.5q0 -40 -15 -81.5t-45 -76t-73.5 -56.5t-100.5 -22h-184l-52 -268h-114l134 689h279z" />
    <glyph glyph-name="afii10035" unicode="&#x421;" horiz-adv-x="548" 
d="M521 539q-24 25 -65 39t-78 14q-64 0 -105 -34.5t-56 -111.5l-40 -202q-3 -18 -3 -35q0 -29 10.5 -49.5t28 -34t40.5 -20t49 -6.5q37 0 81.5 13t78.5 39l48 -94q-44 -32 -104.5 -48t-118.5 -16q-44 0 -85 12.5t-73 37.5t-51.5 62t-19.5 86q0 12 1.5 24t3.5 26l45 231
q21 108 88 166t187 58q58 0 114 -18t93 -51z" />
    <glyph glyph-name="afii10036" unicode="&#x422;" horiz-adv-x="524" 
d="M397 585l-113 -585h-115l113 585h-190l20 104h496l-20 -104h-191z" />
    <glyph glyph-name="afii10037" unicode="&#x423;" horiz-adv-x="563" 
d="M72 94h41q30 0 54 10t41 41l13 22l-102 522h113l33 -205l30 -202h5l105 199l111 208h121l-306 -546q-28 -49 -52 -79t-49.5 -46t-53.5 -21t-64 -5h-53z" />
    <glyph glyph-name="afii10038" unicode="&#x424;" horiz-adv-x="776" 
d="M536 664q110 -5 168.5 -68.5t58.5 -170.5q0 -77 -21.5 -143t-64.5 -114.5t-107.5 -78t-151.5 -33.5l-11 -56h-115l11 56q-109 6 -167.5 69t-58.5 168q0 81 23.5 147t68 114t108 76.5t144.5 33.5l6 32h115zM437 156q56 5 96.5 27.5t66.5 57.5t38 80.5t12 97.5
q0 31 -7 57.5t-22.5 46t-41 31t-62.5 12.5zM401 564q-56 -3 -95.5 -27t-64.5 -61t-37 -82.5t-12 -91.5q0 -62 29.5 -101t100.5 -45z" />
    <glyph glyph-name="afii10039" unicode="&#x425;" horiz-adv-x="572" 
d="M303 261l-197 -261h-135l282 353l-136 336h127l87 -243l180 243h135l-267 -336l151 -353h-129z" />
    <glyph glyph-name="afii10040" unicode="&#x426;" horiz-adv-x="655" 
d="M672 689l-114 -587h58l-48 -254h-108l29 152h-470l133 689h114l-113 -587h289l113 587h117z" />
    <glyph glyph-name="afii10041" unicode="&#x427;" horiz-adv-x="596" 
d="M242 690l-37 -196q-2 -13 -3.5 -24t-1.5 -22q0 -92 116 -92q39 0 82.5 14.5t75.5 32.5l55 287h115l-134 -689h-116l57 294q-38 -20 -84.5 -32t-90.5 -12q-101 0 -148.5 44t-47.5 122q0 28 6 61l41 212h115z" />
    <glyph glyph-name="afii10042" unicode="&#x428;" horiz-adv-x="900" 
d="M941 689l-133 -689h-775l132 689h114l-113 -587h217l113 587h112l-113 -587h219l112 587h115z" />
    <glyph glyph-name="afii10043" unicode="&#x429;" horiz-adv-x="915" 
d="M485 102h219l113 587h116l-114 -587h59l-49 -254h-108l30 152h-731l133 689h114l-113 -587h218l114 587h112z" />
    <glyph glyph-name="afii10044" unicode="&#x42a;" horiz-adv-x="747" 
d="M326 103h157q62 0 98 35t36 92q0 39 -25.5 60.5t-78.5 21.5h-146zM439 689l-53 -274h158q89 0 137.5 -48t48.5 -126q0 -43 -13.5 -86t-42.5 -77.5t-75 -56t-110 -21.5h-296l113 587h-211l19 102h325z" />
    <glyph glyph-name="afii10045" unicode="&#x42b;" horiz-adv-x="818" 
d="M844 689l-132 -689h-113l131 689h114zM167 103h157q62 0 98 35t36 92q0 39 -25 60.5t-78 21.5h-148zM34 0l132 689h113l-52 -274h157q90 0 138 -48t48 -126q0 -43 -13.5 -86t-42 -77.5t-74.5 -56t-110 -21.5h-296z" />
    <glyph glyph-name="afii10046" unicode="&#x42c;" horiz-adv-x="601" 
d="M173 103h157q62 0 98 35t36 92q0 39 -25 60.5t-78 21.5h-148zM40 0l132 689h113l-52 -274h157q90 0 138.5 -48t48.5 -126q0 -43 -13.5 -86t-42.5 -77.5t-75 -56t-110 -21.5h-296z" />
    <glyph glyph-name="afii10047" unicode="&#x42d;" horiz-adv-x="544" 
d="M110 635q47 29 101.5 45.5t117.5 16.5q49 0 90 -13t70 -38t45 -61t16 -82q0 -12 -1.5 -24.5t-3.5 -26.5l-45 -239q-20 -108 -83.5 -163.5t-184.5 -55.5q-30 0 -61 4.5t-60 13.5t-54 21.5t-41 28.5l65 84q27 -24 69 -36t79 -12q61 0 103.5 31.5t56.5 106.5l13 67h-224
l19 100h225l9 44q4 17 4 36q0 28 -10 48.5t-27 33t-39 18.5t-47 6q-38 0 -77 -12.5t-80 -34.5z" />
    <glyph glyph-name="afii10048" unicode="&#x42e;" horiz-adv-x="804" 
d="M757 223q-20 -108 -83 -169t-178 -61q-51 0 -93 13t-72 38t-46.5 60t-16.5 79q0 20 5 48l13 67h-87l-58 -298h-114l133 689h114l-55 -288h87l13 67q21 107 86 167.5t181 60.5q48 0 88 -14t69 -40t45 -62t16 -80q0 -11 -1.5 -23t-3.5 -24zM685 445q4 19 4 38q0 28 -9 48
t-24.5 33.5t-36.5 20t-44 6.5q-57 0 -93.5 -33.5t-51.5 -108.5l-41 -209q-4 -19 -4 -39q0 -27 9 -46.5t24 -32t35 -18.5t42 -6q58 0 96.5 33t53.5 109z" />
    <glyph glyph-name="afii10049" unicode="&#x42f;" horiz-adv-x="582" 
d="M334 285q-19 0 -37 -4.5t-35 -15t-32 -30t-27 -49.5l-76 -186h-124l83 201q17 41 37 71.5t55 45.5q-89 40 -89 146q0 48 16.5 89t47.5 71.5t75.5 47.5t99.5 17h299l-128 -689h-114l55 285h-106zM496 586h-157q-57 0 -93.5 -30t-36.5 -87q0 -44 27 -65t75 -21h147z" />
    <glyph glyph-name="afii10065" unicode="&#x430;" horiz-adv-x="513" 
d="M66 322q17 88 65 133.5t131 45.5q26 0 61.5 -9.5t82.5 -38.5l19 42h96l-97 -495h-96l-1 46q-31 -15 -55 -25t-43 -15.5t-34 -8t-28 -2.5q-66 0 -100.5 34t-34.5 96q0 20 5 48zM146 187q-3 -17 -3 -30q0 -32 16.5 -45.5t43.5 -13.5t65 15t80 36l39 210q-24 18 -57.5 30.5
t-65.5 12.5q-33 0 -58 -21t-35 -70z" />
    <glyph glyph-name="afii10066" unicode="&#x431;" horiz-adv-x="502" 
d="M237 -5q-95 0 -145.5 43.5t-50.5 125.5q0 2 1 8t3 29q6 31 11.5 60t12.5 63.5t16 78t22 104.5q10 43 25 76.5t39 59t60.5 42.5t90.5 27q36 7 77.5 12.5t80.5 10.5l12 -94l-84 -10.5t-64 -10.5q-33 -7 -55.5 -17.5t-38.5 -28.5t-27 -46t-20 -69l-6 -29q38 20 74 30t66 10
q70 0 107 -35.5t37 -109.5q0 -8 -1 -19.5t-3.5 -28.5t-6.5 -42t-10 -60q-9 -49 -29 -83t-49 -55.5t-66 -31.5t-79 -10zM238 93q49 0 76 19t39 59q14 46 17.5 81.5t3.5 46.5q0 14 -3 27t-10.5 23t-20.5 16t-33 6q-29 0 -63 -12t-67 -31q-2 -8 -4 -17.5t-5 -23t-7 -33.5
t-9 -48q-2 -10 -2.5 -18.5t-0.5 -16.5q0 -78 89 -78z" />
    <glyph glyph-name="afii10067" unicode="&#x432;" horiz-adv-x="490" 
d="M289 502q48 0 80.5 -11.5t51.5 -29.5t27 -39.5t8 -40.5q0 -14 -4 -29.5t-12.5 -30t-21.5 -27t-32 -19.5q38 -11 55.5 -38.5t17.5 -58.5q0 -33 -11.5 -66t-37.5 -59.5t-69.5 -43.5t-107.5 -17q-36 0 -68.5 5.5t-61 14.5t-52 19.5t-39.5 20.5l53 270q7 33 22 65t41 57.5
t65.5 41.5t95.5 16zM282 407q-30 0 -50.5 -10t-33.5 -25t-20 -32t-9 -30l-38 -197q15 -8 45 -16t59 -8q38 0 61 8.5t35 21t16 26t4 24.5q0 24 -15 40t-59 16h-47l14 77h40q32 0 47.5 16.5t15.5 37.5q0 20 -15 35.5t-50 15.5z" />
    <glyph glyph-name="afii10068" unicode="&#x433;" horiz-adv-x="462" 
d="M285 500q33 0 63 -8.5t53 -24.5t36.5 -39.5t13.5 -53.5q0 -47 -22.5 -77t-57 -49t-74.5 -29.5t-75 -18.5q-15 -3 -30 -8t-27 -12t-19.5 -18t-7.5 -26q0 -26 24 -38t57 -12q43 0 78.5 12t74.5 39l48 -80q-59 -39 -111.5 -51t-103.5 -12q-38 0 -70.5 8.5t-56 24.5t-37 39.5
t-13.5 53.5q0 54 23.5 85.5t58 49t75.5 26.5t75.5 17.5t58 21.5t23.5 39q0 20 -19 34t-54 14t-68 -10t-73 -33l-42 80q51 32 97.5 44t101.5 12z" />
    <glyph glyph-name="afii10069" unicode="&#x434;" horiz-adv-x="513" 
d="M289 720q61 0 101.5 -14t65.5 -39.5t35.5 -61t10.5 -78.5q0 -46 -9 -98l-43 -248q-20 -97 -79.5 -142t-147.5 -45q-91 0 -142.5 44t-51.5 126q0 25 6 51l16 77q9 41 23.5 74.5t38.5 57.5t58.5 37t81.5 13q33 0 72 -12t68 -34l5 31q2 17 4.5 32t2.5 29q0 50 -29 79.5
t-102 29.5q-17 0 -38.5 -1.5t-47.5 -6.5q-4 22 -7.5 43.5t-6.5 42.5q29 7 58 10t57 3zM263 377q-42 0 -70.5 -24.5t-38.5 -81.5l-13 -62q-2 -9 -2.5 -17t-1.5 -14q0 -47 25 -67t68 -20q40 0 72.5 23t45.5 80l14 62q1 6 3 16.5t4 21.5t4 21.5t2 15.5q-21 20 -49.5 33
t-62.5 13z" />
    <glyph glyph-name="afii10070" unicode="&#x435;" horiz-adv-x="482" 
d="M289 501q88 0 131 -39.5t43 -96.5q0 -36 -15.5 -67t-48.5 -53.5t-85.5 -35.5t-127.5 -13h-21.5t-21.5 1q-2 -8 -3 -15.5t-1 -14.5q0 -38 25.5 -58.5t67.5 -20.5q26 0 55 10.5t56 36.5q15 -20 30.5 -39.5t29.5 -39.5q-47 -37 -94 -49t-94 -12q-81 0 -131.5 40.5
t-50.5 121.5q0 64 14 126t44.5 110.5t79.5 78t118 29.5zM283 406q-54 0 -83 -33.5t-43 -91.5q11 -1 21.5 -1h19.5q49 0 79 6.5t46.5 17t22 23.5t5.5 25q0 24 -15 39t-53 15z" />
    <glyph glyph-name="afii10072" unicode="&#x436;" horiz-adv-x="706" 
d="M262 0l39 210h-41q-17 0 -31.5 -2t-27.5 -9.5t-24 -21.5t-21 -38l-55 -139h-112l71 166q17 38 38.5 63t58.5 35q-27 10 -40.5 34t-18.5 59l-20 140h107l17 -126q3 -22 10.5 -35.5t18.5 -20.5t24 -9t28 -2h35l35 192h104l-35 -192h35q15 0 28.5 2t26 8.5t24 20t21.5 36.5
l56 126h112l-62 -142q-17 -37 -38.5 -61.5t-51.5 -34.5q32 -10 43 -34t16 -61l23 -164h-108l-16 139q-3 23 -9 37t-16 21.5t-23.5 10t-30.5 2.5h-47l-39 -210h-104z" />
    <glyph glyph-name="afii10073" unicode="&#x437;" horiz-adv-x="455" 
d="M262 499q36 0 67 -8t54 -24t36 -39.5t13 -54.5q0 -36 -20 -70t-65 -52q35 -16 47 -40.5t12 -47.5q0 -42 -17 -73.5t-46 -52.5t-68 -31.5t-83 -10.5q-51 0 -101 13.5t-79 36.5l50 75q31 -17 64.5 -26t64.5 -9q51 0 79 19t28 55q0 26 -20 39t-52 13h-82l17 83h82q16 0 31 3
t26.5 10.5t18.5 19t7 28.5q0 26 -20.5 40t-58.5 14q-27 0 -58.5 -7.5t-69.5 -26.5l-38 75q48 27 93 38t88 11z" />
    <glyph glyph-name="afii10074" unicode="&#x438;" horiz-adv-x="516" 
d="M210 495l-61 -309q-3 -15 -3 -28q0 -33 17.5 -47t43.5 -14q27 0 64 14t82 42l67 342h106l-96 -495h-96l-2 48q-30 -18 -54.5 -29t-44.5 -16.5t-36 -7t-29 -1.5q-66 0 -99.5 35.5t-33.5 95.5q0 12 1.5 24.5t3.5 26.5l63 319h107z" />
    <glyph glyph-name="afii10075" unicode="&#x439;" horiz-adv-x="516" 
d="M210 495l-61 -309q-3 -15 -3 -28q0 -33 17.5 -47t43.5 -14q27 0 64 14t82 42l67 342h106l-96 -495h-96l-2 48q-30 -18 -54.5 -29t-44.5 -16.5t-36 -7t-29 -1.5q-66 0 -99.5 35.5t-33.5 95.5q0 12 1.5 24.5t3.5 26.5l63 319h107zM326 573q-40 0 -65.5 14t-39.5 35
t-18 45.5t-1 45.5h82q-5 -24 7.5 -44.5t44.5 -20.5q15 0 28.5 6.5t24.5 16t18 21t9 21.5h81q-5 -24 -17 -48.5t-32 -45t-50 -33.5t-72 -13z" />
    <glyph glyph-name="afii10076" unicode="&#x43a;" horiz-adv-x="491" 
d="M503 496l-63 -143q-17 -36 -39 -61t-52 -34q33 -11 43.5 -35t16.5 -61l23 -162h-108l-16 140q-3 23 -9.5 37t-17 21.5t-24.5 10t-31 2.5h-73l-38 -211h-103l91 496h104l-37 -191h64q15 0 28.5 2t26 8.5t24 20t22.5 36.5l57 124h111z" />
    <glyph glyph-name="afii10077" unicode="&#x43b;" horiz-adv-x="521" 
d="M248 403l-24 -121q-14 -72 -32 -122.5t-43.5 -84.5t-60 -54t-82.5 -32q-11 40 -24 84q29 12 50.5 25.5t37 36t27.5 57.5t23 91l42 212h358l-96 -495h-106l78 403h-148z" />
    <glyph glyph-name="afii10078" unicode="&#x43c;" horiz-adv-x="611" 
d="M307 198q24 32 48 64.5t47 64.5l122 168h97l-96 -495h-105l53 276h-2q-38 -52 -76.5 -104t-76.5 -104h-73q-18 51 -37 101.5t-37 101.5l-4 1q-14 -69 -26 -136t-26 -136h-106l96 495h95q14 -43 29 -85t30 -85q11 -32 21 -64t21 -63h6z" />
    <glyph glyph-name="afii10079" unicode="&#x43d;" horiz-adv-x="513" 
d="M319 0l40 205h-206l-40 -205h-105l96 495h105l-39 -198h206l39 198h106l-96 -495h-106z" />
    <glyph glyph-name="afii10080" unicode="&#x43e;" horiz-adv-x="513" 
d="M464 172q-19 -95 -78 -136t-146 -41q-36 0 -71 10.5t-62 32t-43.5 54t-16.5 77.5q0 11 1 22t3 23l19 104q17 89 72 136t151 47q45 0 81 -13.5t61.5 -37.5t39.5 -56.5t14 -70.5q0 -22 -4 -41zM380 282q3 15 3 29q0 45 -27.5 68.5t-67.5 23.5q-43 0 -73.5 -22.5
t-41.5 -79.5l-17 -94q-2 -8 -2 -14.5v-12.5q0 -24 8 -40.5t21 -27t29 -15t32 -4.5q20 0 38.5 4.5t34 15.5t27.5 31t18 51z" />
    <glyph glyph-name="afii10081" unicode="&#x43f;" horiz-adv-x="513" 
d="M324 0l60 309q3 16 3 30q0 33 -17.5 46.5t-45.5 13.5q-55 0 -143 -54l-67 -345h-106l97 495h95l1 -47q34 19 59 29.5t44 15.5t33.5 6.5t27.5 1.5q65 0 99 -33.5t34 -93.5q0 -11 -1 -23.5t-4 -26.5l-62 -324h-107z" />
    <glyph glyph-name="afii10082" unicode="&#x440;" horiz-adv-x="509" 
d="M462 172q-16 -83 -66 -130.5t-142 -47.5q-26 0 -60 5t-76 25l-43 -222h-105l134 693h96v-49q57 31 95.5 42.5t64.5 11.5q64 0 100.5 -30.5t36.5 -95.5q0 -23 -6 -53zM382 312q4 16 4 31q0 32 -17.5 44t-44.5 12q-13 0 -30.5 -4t-36.5 -11t-38.5 -16t-37.5 -19l-43 -226
q38 -18 64.5 -23.5t53.5 -5.5q35 0 63 18.5t38 69.5z" />
    <glyph glyph-name="afii10083" unicode="&#x441;" horiz-adv-x="439" 
d="M407 56q-44 -35 -91.5 -48t-95.5 -13q-36 0 -68 10t-56.5 29.5t-39 49t-14.5 68.5q0 22 4 41l24 130q17 88 74 133t145 45q22 0 46 -3.5t46 -11.5t41.5 -21.5t34.5 -33.5l-67 -75q-25 30 -54.5 39t-49.5 9q-44 0 -74 -24.5t-41 -78.5l-21 -106q-1 -6 -1.5 -12t-0.5 -12
q0 -21 7.5 -36t20 -24t28 -13.5t31.5 -4.5q22 0 52.5 9t59.5 34l60 -80v0z" />
    <glyph glyph-name="afii10084" unicode="&#x442;" horiz-adv-x="774" 
d="M585 0l61 311q3 12 3 24q0 28 -15.5 46t-45.5 18q-23 0 -52 -9.5t-68 -35.5q0 -11 -3 -28.5t-5 -28.5l-57 -297h-106l60 309q3 13 3 26q0 26 -13 44t-43 18q-21 0 -50.5 -12t-74.5 -43q-17 -86 -33 -171t-33 -171h-107l96 495h97v-49q31 21 53 32t38.5 16t29.5 6t27 1
q42 0 67.5 -16t40.5 -45q61 37 101.5 49t69.5 12q35 0 60.5 -10.5t41.5 -28.5t23.5 -42t7.5 -52q0 -11 -1.5 -23t-3.5 -24l-62 -321h-107z" />
    <glyph glyph-name="afii10085" unicode="&#x443;" horiz-adv-x="452" 
d="M20 -200l112 210l-32 29l-48 457h108l14 -193l13 -194h4l130 248q11 21 18.5 37t12 29.5t6.5 27t2 28.5v18h107v-17q0 -45 -12.5 -77.5t-33.5 -69.5l-292 -533h-109z" />
    <glyph glyph-name="afii10086" unicode="&#x444;" horiz-adv-x="650" 
d="M191 -199l38 194q-38 3 -71.5 15.5t-58 36.5t-38.5 59.5t-14 83.5q0 69 20.5 125.5t57.5 96.5t88.5 62.5t113.5 25.5l36 188h106l-36 -188q40 -2 74 -14t58.5 -35.5t38 -58.5t13.5 -84q0 -73 -22 -130t-60 -97t-89.5 -62t-110.5 -24l-38 -194h-106zM308 401
q-30 -1 -58 -13.5t-50 -37.5t-35.5 -62.5t-13.5 -87.5q0 -53 28 -79t69 -29zM354 92q29 1 57 15t50.5 39.5t36 63.5t13.5 88q0 54 -28 77.5t-69 25.5z" />
    <glyph glyph-name="afii10087" unicode="&#x445;" horiz-adv-x="470" 
d="M298 0l-69 173l-140 -173h-128l222 253l-117 243h123l61 -166l132 166h129l-214 -241l126 -255h-125z" />
    <glyph glyph-name="afii10088" unicode="&#x446;" horiz-adv-x="524" 
d="M525 495q-17 -88 -34 -175.5t-34 -176.5q-2 -8 -3 -15.5t-1 -15.5q0 -23 10.5 -43t34.5 -31q-9 -43 -18 -85.5t-17 -85.5h-92q5 33 9.5 65.5t9.5 65.5q-17 9 -27.5 26t-11.5 37h-1q-28 -23 -55.5 -36t-51.5 -20t-43.5 -8.5t-32.5 -1.5q-65 0 -99 34t-34 95q0 12 1.5 24.5
t3.5 26.5q16 81 32 160t31 160h107l-60 -309q-2 -8 -3 -15t-1 -14q0 -33 18 -47t44 -14q56 0 145 57q17 86 33.5 171t33.5 171h106v0z" />
    <glyph glyph-name="afii10089" unicode="&#x447;" horiz-adv-x="485" 
d="M181 496l-27 -145q-3 -15 -3 -28q0 -33 19 -47t52 -14q27 0 62 11.5t70 30.5l36 192h106l-96 -496h-106l40 209q-52 -26 -88 -34t-64 -8q-67 0 -104.5 31t-37.5 93q0 11 1.5 22.5t3.5 24.5l31 158h105z" />
    <glyph glyph-name="afii10090" unicode="&#x448;" horiz-adv-x="777" 
d="M206 495l-61 -311q-1 -7 -1.5 -13t-0.5 -12q0 -27 13.5 -45t44.5 -18q24 0 54 9t70 36v8q0 12 2 25.5t4 22.5l57 298h106l-60 -309q-2 -7 -2 -13v-13q0 -26 12.5 -44.5t41.5 -18.5q22 0 51.5 12.5t74.5 42.5q17 86 33 171.5t33 171.5h107l-96 -495h-97v48
q-31 -20 -53 -30.5t-38.5 -15.5t-30 -6t-26.5 -1q-42 0 -67.5 15t-40.5 44q-31 -19 -56 -30.5t-45.5 -18t-37.5 -8.5t-32 -2q-35 0 -60 10.5t-41.5 28.5t-24 42.5t-7.5 52.5q0 11 1 22t3 22l62 322h108z" />
    <glyph glyph-name="afii10091" unicode="&#x449;" horiz-adv-x="786" 
d="M678 495h106q-17 -88 -34 -173t-34 -179q-2 -8 -3.5 -16.5t-1.5 -16.5q0 -23 10 -41.5t34 -30.5q-9 -42 -18 -85t-17 -86h-91l18 131q-17 10 -26.5 26.5t-10.5 36.5h-1q-29 -22 -52.5 -35t-42.5 -20t-34.5 -9t-28.5 -2q-35 0 -69 13.5t-48 45.5q-56 -34 -94 -45.5
t-67 -13.5q-64 -3 -103.5 31.5t-39.5 98.5q0 17 3 37l64 333h108q-16 -78 -31 -155.5t-30 -155.5q-3 -14 -3 -26q0 -32 16.5 -47t42.5 -15q24 0 53 9.5t69 35.5q2 11 3.5 28t3.5 28l58 298h106l-60 -309q-3 -17 -3 -29q0 -30 15 -45t40 -15q21 0 51 12.5t75 42.5z" />
    <glyph glyph-name="afii10092" unicode="&#x44a;" horiz-adv-x="595" 
d="M52 495h266l-34 -169h1q18 8 38.5 14.5t40 11t36 7t27.5 2.5q63 0 102.5 -35t39.5 -93q0 -9 -1 -21t-3 -25.5t-4.5 -27.5t-5.5 -25q-10 -34 -25 -60.5t-40 -44.5t-61 -27.5t-88 -9.5q-45 0 -102.5 11.5t-114.5 42.5q18 91 36 179.5t35 179.5h-160zM339 86q30 0 49.5 5.5
t32.5 14.5t19.5 21t9.5 25q4 14 6.5 33t2.5 26q0 29 -16 40.5t-43 11.5q-26 0 -63 -13t-73 -33l-24 -112q28 -11 55 -15t44 -4z" />
    <glyph glyph-name="afii10093" unicode="&#x44b;" horiz-adv-x="671" 
d="M314 361q63 0 102.5 -35.5t39.5 -94.5q0 -6 -1 -18t-3.5 -26l-5 -28t-5.5 -25q-8 -33 -23.5 -59.5t-40.5 -44.5t-61.5 -28t-87.5 -10q-8 0 -12 1q-45 1 -98.5 12.5t-106.5 40.5l44 224t45 225h104l-33 -169h1q42 18 81 26.5t61 8.5zM477 0l95 495h103l-95 -495h-103z
M226 86q31 0 51 5.5t32 14.5t18 21t9 25q1 7 3 16.5t3.5 18.5t2.5 16.5t1 10.5q0 27 -15.5 38t-44.5 11q-26 0 -63 -13t-72 -33l-24 -112q27 -11 54.5 -15t44.5 -4z" />
    <glyph glyph-name="afii10094" unicode="&#x44c;" horiz-adv-x="482" 
d="M314 361q63 0 102.5 -35.5t39.5 -94.5q0 -6 -1 -18t-3.5 -26l-5 -28t-5.5 -25q-8 -33 -23.5 -59.5t-40.5 -44.5t-61.5 -28t-87.5 -10q-8 0 -12 1q-45 1 -98.5 12.5t-106.5 40.5l44 224t45 225h104l-33 -169h1q42 18 81 26.5t61 8.5zM226 86q31 0 51 5.5t32 14.5t18 21
t9 25q1 7 3 16.5t3.5 18.5t2.5 16.5t1 10.5q0 27 -15.5 38t-44.5 11q-26 0 -63 -13t-72 -33l-24 -112q27 -11 54.5 -15t44.5 -4z" />
    <glyph glyph-name="afii10095" unicode="&#x44d;" horiz-adv-x="436" 
d="M197 -5q-22 0 -46.5 3t-48.5 10.5t-46.5 20t-41.5 32.5l64 74q30 -22 61 -32.5t51 -10.5q49 0 73.5 20.5t33.5 66.5l7 35h-161q5 20 8.5 41t7.5 41h160l5 27q1 5 1.5 10t0.5 10q0 29 -19.5 44.5t-64.5 15.5q-21 0 -50.5 -7.5t-57.5 -30.5l-28 38t-28 39q46 35 92 47
t87 12q85 0 128.5 -42.5t43.5 -109.5q0 -18 -3 -36l-23 -136q-8 -44 -22 -77.5t-38 -57t-59.5 -35.5t-86.5 -12z" />
    <glyph glyph-name="afii10096" unicode="&#x44e;" horiz-adv-x="661" 
d="M613 173q-6 -36 -19 -68.5t-37.5 -56.5t-62 -38.5t-90.5 -14.5q-45 0 -81 11.5t-61 32.5t-38.5 49.5t-13.5 61.5q0 15 3 32l4 22h-64q-10 -51 -19.5 -102t-20.5 -102h-105l96 495h106q-11 -51 -20 -100t-20 -100h64l5 28q15 84 68 130.5t143 46.5q43 0 77.5 -12.5t59 -34
t37.5 -51.5t13 -66q0 -16 -3 -32zM531 304q1 5 1.5 10t0.5 10q0 40 -26 61t-64 21t-65.5 -22.5t-37.5 -77.5l-19 -107q-3 -17 -3 -30q0 -38 21 -59.5t69 -21.5q50 0 72 25t31 76z" />
    <glyph glyph-name="afii10097" unicode="&#x44f;" horiz-adv-x="483" 
d="M307 273l-12 -80h-62q-26 0 -45 -9t-34 -42l-53 -142h-106l66 168q8 21 24.5 38.5t40.5 22.5q-35 13 -49.5 37.5t-14.5 56.5q0 11 2 23.5t4 20.5q19 79 70.5 109t133.5 30q50 0 108.5 -13.5t109.5 -38.5l-83 -454h-102l77 399q-32 11 -59 16t-50 5q-45 0 -68.5 -18.5
t-32.5 -55.5q-2 -6 -2.5 -12.5t-0.5 -8.5q0 -20 12 -35.5t51 -16.5h75z" />
    <glyph glyph-name="afii10071" unicode="&#x451;" horiz-adv-x="482" 
d="M289 501q88 0 131 -39.5t43 -96.5q0 -36 -15.5 -67t-48.5 -53.5t-85.5 -35.5t-127.5 -13h-21.5t-21.5 1q-2 -8 -3 -15.5t-1 -14.5q0 -38 25.5 -58.5t67.5 -20.5q26 0 55 10.5t56 36.5q15 -20 30.5 -39.5t29.5 -39.5q-47 -37 -94 -49t-94 -12q-81 0 -131.5 40.5
t-50.5 121.5q0 64 14 126t44.5 110.5t79.5 78t118 29.5zM283 406q-54 0 -83 -33.5t-43 -91.5q11 -1 21.5 -1h19.5q49 0 79 6.5t46.5 17t22 23.5t5.5 25q0 24 -15 39t-53 15zM443 697q21 0 34.5 -13.5t13.5 -33.5q0 -28 -22 -48.5t-49 -20.5q-20 0 -33.5 13t-13.5 33
q0 28 21 49t49 21zM246 697q22 0 35 -13.5t13 -33.5q0 -14 -6 -26t-16 -22t-22.5 -15.5t-25.5 -5.5q-21 0 -34.5 13t-13.5 33q0 28 21.5 49t48.5 21z" />
    <glyph glyph-name="afii10099" unicode="&#x452;" horiz-adv-x="536" 
d="M476 100q-9 -44 -21.5 -78.5t-34 -58.5t-53.5 -37t-79 -13q-23 0 -48 3l18 92q30 0 49.5 5t32 16.5t20 31t12.5 48.5l37 200q3 16 3 30q0 33 -17.5 46.5t-43.5 13.5q-28 0 -64 -13t-78 -37l-68 -349h-106l109 567h-47l15 77h47l14 72h107l-15 -72h202l-15 -77h-201
l-24 -122q32 18 57.5 29t46 17t36.5 8t29 2q66 0 96.5 -32t30.5 -89q0 -26 -6 -57z" />
    <glyph glyph-name="afii10100" unicode="&#x453;" horiz-adv-x="462" 
d="M247 570l112 185l92 -31l-146 -178zM285 500q33 0 63 -8.5t53 -24.5t36.5 -39.5t13.5 -53.5q0 -47 -22.5 -77t-57 -49t-74.5 -29.5t-75 -18.5q-15 -3 -30 -8t-27 -12t-19.5 -18t-7.5 -26q0 -26 24 -38t57 -12q43 0 78.5 12t74.5 39l48 -80q-59 -39 -111.5 -51t-103.5 -12
q-38 0 -70.5 8.5t-56 24.5t-37 39.5t-13.5 53.5q0 54 23.5 85.5t58 49t75.5 26.5t75.5 17.5t58 21.5t23.5 39q0 20 -19 34t-54 14t-68 -10t-73 -33l-42 80q51 32 97.5 44t101.5 12z" />
    <glyph glyph-name="afii10101" unicode="&#x454;" horiz-adv-x="439" 
d="M407 56q-44 -35 -91.5 -48t-95.5 -13q-36 0 -68 10t-56.5 29.5t-39 49t-14.5 68.5q0 22 4 41l24 130q17 88 74 133t145 45q22 0 46 -3.5t46 -11.5t41.5 -21.5t34.5 -33.5l-67 -75q-25 30 -54.5 39t-49.5 9q-44 0 -74 -24.5t-41 -78.5l-2 -8h150l-17 -84h-149l-3 -14
q-1 -6 -1.5 -12t-0.5 -12q0 -21 7.5 -36t20 -24t28 -13.5t31.5 -4.5q22 0 52.5 9t59.5 34l60 -80v0z" />
    <glyph glyph-name="afii10102" unicode="&#x455;" horiz-adv-x="460" 
d="M275 500q57 0 102.5 -11.5t82.5 -43.5q-14 -20 -29.5 -40t-29.5 -40q-32 24 -64 33t-67 9q-45 0 -68.5 -19.5t-23.5 -42.5q0 -11 7 -19t18 -14t25 -9.5t28 -6.5q24 -4 53 -10.5t54.5 -20.5t42.5 -37.5t17 -61.5q0 -43 -18 -75t-48.5 -53.5t-70.5 -32t-85 -10.5
q-54 0 -104 13t-95 55q32 40 64 76q32 -31 67.5 -42.5t77.5 -11.5q43 0 72.5 19t29.5 51q0 21 -18 31.5t-44.5 17.5t-58 13.5t-58 19.5t-44.5 36t-18 62q0 43 18.5 74t47.5 51t65 30t72 10z" />
    <glyph glyph-name="afii10103" unicode="&#x456;" horiz-adv-x="267" 
d="M148 637q5 26 25.5 43.5t45.5 17.5q23 0 37 -14t14 -35q0 -15 -6.5 -28t-17 -23t-23.5 -16t-27 -6q-22 0 -35.5 14t-13.5 35q0 8 1 12zM235 496l-64 -329q-2 -11 -3.5 -19.5t-0.5 -15.5q0 -25 12.5 -32.5t36.5 -9.5l-20 -92h-18q-57 0 -89 25t-32 79q0 21 4 41l68 353
h106z" />
    <glyph glyph-name="afii10104" unicode="&#x457;" horiz-adv-x="267" 
d="M323 690q21 0 34.5 -13.5t13.5 -33.5q0 -28 -22 -48.5t-49 -20.5q-20 0 -33.5 13t-13.5 33q0 28 21 49t49 21zM126 690q22 0 35 -13.5t13 -33.5q0 -14 -6 -26t-16 -22t-22.5 -15.5t-25.5 -5.5q-21 0 -34.5 13t-13.5 33q0 28 21.5 49t48.5 21zM235 496l-64 -329
q-2 -11 -3.5 -19.5t-0.5 -15.5q0 -25 12.5 -32.5t36.5 -9.5l-20 -92h-18q-57 0 -89 25t-32 79q0 21 4 41l68 353h106z" />
    <glyph glyph-name="afii10105" unicode="&#x458;" horiz-adv-x="257" 
d="M135 -49q-6 -34 -15.5 -63.5t-26.5 -51.5t-44.5 -35t-70.5 -13q-14 0 -31 1.5t-36 5.5l18 98q51 -5 73 12t30 60l103 531h105zM223 698q23 0 37.5 -14t14.5 -35q0 -15 -6.5 -28t-17 -22.5t-24 -15.5t-27.5 -6q-21 0 -35.5 14t-14.5 35q0 14 6.5 27t16.5 23t23 16t27 6z
" />
    <glyph glyph-name="afii10106" unicode="&#x459;" horiz-adv-x="767" 
d="M372 408h-53t-52 -1l-24 -125q-14 -72 -32.5 -122t-45 -84t-63 -54.5t-85.5 -32.5q-6 21 -12.5 42t-11.5 42q31 12 53.5 25.5t39 36t29.5 58t24 91.5l42 212h313l-33 -170q53 20 86 27.5t57 7.5q63 0 102 -35.5t39 -94.5v-12q-6 -51 -17 -93t-35.5 -71.5t-66 -46
t-108.5 -16.5q-45 0 -102.5 11.5t-114.5 42.5q17 91 35 181t36 181zM516 86q29 0 49 5.5t32.5 14.5t19 21t9.5 25q3 14 6 31.5t3 25.5q0 29 -15.5 41.5t-43.5 12.5q-26 0 -63 -13t-72 -33l-24 -112q27 -11 54.5 -15t44.5 -4z" />
    <glyph glyph-name="afii10107" unicode="&#x45a;" horiz-adv-x="756" 
d="M482 495l-32 -169q47 21 84 28t58 7q61 0 101.5 -34.5t40.5 -94.5q0 -7 -1 -19t-3 -25.5t-4.5 -28t-5.5 -25.5q-16 -66 -65.5 -104t-147.5 -38q-45 0 -102.5 11.5t-114.5 42.5q8 45 17 89.5t18 89.5h-167q-11 -57 -21.5 -113t-21.5 -112h-105l96 495h105l-36 -182h167
l36 182h104zM504 86q30 0 49.5 5.5t32.5 14.5t19.5 21t9.5 25q4 14 6.5 33t2.5 26q0 29 -16 40.5t-43 11.5q-26 0 -63 -13t-72 -33l-24 -112q27 -11 54 -15t44 -4z" />
    <glyph glyph-name="afii10108" unicode="&#x45b;" horiz-adv-x="519" 
d="M337 0l60 309q3 16 3 29q0 34 -18 47.5t-44 13.5q-27 0 -63.5 -12t-79.5 -40l-67 -347h-106l110 567h-48l15 76h49l14 73h106l-15 -73h203l-15 -76h-203l-23 -119q31 18 56 28.5t44.5 16t35 7t28.5 1.5q68 0 101 -33t33 -92q0 -25 -6 -53l-63 -323h-107z" />
    <glyph glyph-name="afii10109" unicode="&#x45c;" horiz-adv-x="491" 
d="M242 570l112 185l92 -31l-146 -178zM503 496l-63 -143q-17 -36 -39 -61t-52 -34q33 -11 43.5 -35t16.5 -61l23 -162h-108l-16 140q-3 23 -9.5 37t-17 21.5t-24.5 10t-31 2.5h-73l-38 -211h-103l91 496h104l-37 -191h64q15 0 28.5 2t26 8.5t24 20t22.5 36.5l57 124h111z
" />
    <glyph glyph-name="afii10110" unicode="&#x45e;" horiz-adv-x="452" 
d="M20 -200l112 210l-32 29l-48 457h108l14 -193l13 -194h4l130 248q11 21 18.5 37t12 29.5t6.5 27t2 28.5v18h107v-17q0 -45 -12.5 -77.5t-33.5 -69.5l-292 -533h-109zM291 568q-39 0 -65 12t-41 32t-20.5 46t-2.5 54h81q-2 -10 0.5 -22t9 -22t17.5 -17t28 -7q16 0 30 6.5
t24 16t16.5 21.5t8.5 24h84q-6 -23 -18 -48.5t-32.5 -46.5t-50 -35t-69.5 -14z" />
    <glyph glyph-name="afii10193" unicode="&#x45f;" horiz-adv-x="511" 
d="M280 -23l-46 -158h-76l24 140zM212 495l-60 -309q-3 -15 -3 -28q0 -33 17.5 -47t43.5 -14t63.5 14t81.5 42l67 342h106l-96 -495h-95l-2 48q-30 -18 -54.5 -29t-45 -16.5t-36.5 -7t-29 -1.5q-65 0 -98.5 35t-33.5 96q0 12 1.5 24.5t3.5 26.5l63 319h106z" />
    <glyph glyph-name="afii10050" unicode="&#x490;" horiz-adv-x="538" 
d="M601 586h-350l-114 -586h-113l133 689h358l25 124h106z" />
    <glyph glyph-name="afii10098" unicode="&#x491;" horiz-adv-x="419" 
d="M191 404l-78 -404h-105l95 496h271l21 108h99l-39 -200h-264z" />
    <glyph glyph-name="schwacyrillic" unicode="&#x4d9;" horiz-adv-x="482" 
d="M208 -4q-88 0 -131 39t-43 97q0 36 15.5 67t48.5 53.5t85.5 35t127.5 12.5h21.5t21.5 -1q2 8 3 15.5t1 14.5q0 38 -25.5 58.5t-67.5 20.5q-26 0 -55 -10.5t-56 -36.5q-15 20 -30.5 39.5t-29.5 39.5q46 37 93.5 49.5t94.5 12.5q81 0 131.5 -42t50.5 -123q0 -64 -14 -125
t-44.5 -109t-79 -77.5t-118.5 -29.5zM213 90q54 0 83.5 33t43.5 91q-11 1 -21.5 1h-19.5q-49 0 -79 -6.5t-46.5 -17t-22 -23t-5.5 -24.5q0 -24 15 -39t52 -15z" />
    <glyph glyph-name="Wgrave" unicode="&#x1e80;" horiz-adv-x="885" 
d="M491 490l-90 -206l-126 -284h-126l-45 689h117l12 -295l7 -220h6l97 222l129 293h118l18 -305l10 -210h6l89 212l129 303h120l-310 -689h-126l-18 286l-10 204h-7zM546 754l-196 104l64 71l171 -128z" />
    <glyph glyph-name="wgrave" unicode="&#x1e81;" horiz-adv-x="705" 
d="M507 0h-99q-11 75 -20.5 150t-19.5 150q-1 0 -2 0.5t-2 0.5q-7 -14 -14 -29.5t-17.5 -36.5l-25.5 -51t-36 -73q-14 -27 -27.5 -54.5t-27.5 -56.5h-101l-57 496h109l12 -156q3 -46 7 -90.5t7 -90.5h6q21 45 44 88.5t44 88.5l57 112h96q4 -29 7.5 -58t8.5 -58
q7 -45 11.5 -89t11.5 -88h5l97 201q18 40 25 66.5t7 54.5v20h107v-19q0 -38 -8.5 -72t-28.5 -72zM415 548l-156 172l86 35l119 -177z" />
    <glyph glyph-name="Wacute" unicode="&#x1e82;" horiz-adv-x="885" 
d="M491 490l-90 -206l-126 -284h-126l-45 689h117l12 -295l7 -220h6l97 222l129 293h118l18 -305l10 -210h6l89 212l129 303h120l-310 -689h-126l-18 286l-10 204h-7zM508 783l182 129l57 -74l-204 -104z" />
    <glyph glyph-name="wacute" unicode="&#x1e83;" horiz-adv-x="705" 
d="M507 0h-99q-11 75 -20.5 150t-19.5 150q-1 0 -2 0.5t-2 0.5q-7 -14 -14 -29.5t-17.5 -36.5l-25.5 -51t-36 -73q-14 -27 -27.5 -54.5t-27.5 -56.5h-101l-57 496h109l12 -156q3 -46 7 -90.5t7 -90.5h6q21 45 44 88.5t44 88.5l57 112h96q4 -29 7.5 -58t8.5 -58
q7 -45 11.5 -89t11.5 -88h5l97 201q18 40 25 66.5t7 54.5v20h107v-19q0 -38 -8.5 -72t-28.5 -72zM386 570l112 185l92 -31l-146 -178z" />
    <glyph glyph-name="Wdieresis" unicode="&#x1e84;" horiz-adv-x="885" 
d="M491 490l-90 -206l-126 -284h-126l-45 689h117l12 -295l7 -220h6l97 222l129 293h118l18 -305l10 -210h6l89 212l129 303h120l-310 -689h-126l-18 286l-10 204h-7zM666 856q23 0 36.5 -15t11.5 -37q-3 -26 -24 -45t-46 -19q-23 0 -36.5 15.5t-10.5 38.5q2 25 23 43.5
t46 18.5zM467 856q23 0 36 -15t11 -37q-3 -26 -23.5 -45t-46.5 -19q-23 0 -36.5 15.5t-10.5 37.5q2 26 23 44.5t47 18.5z" />
    <glyph glyph-name="wdieresis" unicode="&#x1e85;" horiz-adv-x="705" 
d="M507 0h-99q-11 75 -20.5 150t-19.5 150q-1 0 -2 0.5t-2 0.5q-7 -14 -14 -29.5t-17.5 -36.5l-25.5 -51t-36 -73q-14 -27 -27.5 -54.5t-27.5 -56.5h-101l-57 496h109l12 -156q3 -46 7 -90.5t7 -90.5h6q21 45 44 88.5t44 88.5l57 112h96q4 -29 7.5 -58t8.5 -58
q7 -45 11.5 -89t11.5 -88h5l97 201q18 40 25 66.5t7 54.5v20h107v-19q0 -38 -8.5 -72t-28.5 -72zM546 692q21 0 34.5 -13.5t13.5 -33.5q0 -28 -22 -48.5t-49 -20.5q-20 0 -33.5 13t-13.5 33q0 28 21 49t49 21zM349 692q22 0 35 -13.5t13 -33.5q0 -14 -6 -26t-16 -22
t-22.5 -15.5t-25.5 -5.5q-21 0 -34.5 13t-13.5 33q0 28 21.5 49t48.5 21z" />
    <glyph glyph-name="Ygrave" unicode="&#x1ef2;" horiz-adv-x="547" 
d="M301 378l97 151l104 160h126l-288 -422l-51 -267h-114l51 267l-127 422h118l46 -179l33 -132h5zM377 734l-196 104l64 71l171 -128z" />
    <glyph glyph-name="ygrave" unicode="&#x1ef3;" horiz-adv-x="452" 
d="M20 -200l112 210l-32 29l-48 457h108l14 -193l13 -194h4l130 248q11 21 18.5 37t12 29.5t6.5 27t2 28.5v18h107v-17q0 -45 -12.5 -77.5t-33.5 -69.5l-292 -533h-109zM266 548l-156 172l86 35l119 -177z" />
    <glyph glyph-name="endash" unicode="&#x2013;" horiz-adv-x="498" 
d="M24 226l26 93h459l-26 -93h-459z" />
    <glyph glyph-name="emdash" unicode="&#x2014;" horiz-adv-x="1017" 
d="M16 226l26 93h976l-26 -93h-976z" />
    <glyph glyph-name="afii00208" unicode="&#x2015;" horiz-adv-x="1000" 
d="M37 319h953l-18 -96h-954z" />
    <glyph glyph-name="quoteleft" unicode="&#x2018;" horiz-adv-x="298" 
d="M321 690q-27 -18 -46.5 -40.5t-27.5 -49.5q18 -2 29 -16t11 -34q0 -16 -6 -31t-17 -27t-26.5 -19t-33.5 -7q-33 0 -48.5 22.5t-15.5 51.5q0 30 12.5 60t33.5 56t49 47.5t59 35.5z" />
    <glyph glyph-name="quoteright" unicode="&#x2019;" horiz-adv-x="298" 
d="M134 516q28 18 47 40.5t27 49.5q-17 3 -27.5 16.5t-10.5 34.5q0 32 22 57.5t59 25.5q33 0 48.5 -22.5t15.5 -51.5q0 -30 -12.5 -59.5t-33.5 -56t-48.5 -48t-58.5 -35.5z" />
    <glyph glyph-name="quotesinglbase" unicode="&#x201a;" horiz-adv-x="271" 
d="M2 -95q28 18 47.5 40.5t27.5 49.5q-40 4 -40 47q0 34 22.5 60t60.5 26q33 0 48 -21.5t15 -51.5t-12 -59.5t-33 -56t-49 -48.5t-59 -36z" />
    <glyph glyph-name="quotedblleft" unicode="&#x201c;" horiz-adv-x="444" 
d="M308 690q-28 -18 -47.5 -40.5t-27.5 -49.5q19 -2 29.5 -16t10.5 -34q0 -16 -6 -31t-17 -27t-26 -19t-33 -7q-34 0 -49 23t-15 54q0 29 12.5 58.5t34 55.5t49.5 47.5t58 34.5zM480 690q-27 -18 -46.5 -40.5t-27.5 -49.5q18 -2 29 -16t11 -34q0 -16 -6 -31t-17 -27
t-26.5 -19t-33.5 -7q-33 0 -48.5 22.5t-15.5 51.5q0 30 12.5 60t33.5 56t49 47.5t59 35.5z" />
    <glyph glyph-name="quotedblright" unicode="&#x201d;" horiz-adv-x="444" 
d="M293 516q28 18 47 40.5t27 49.5q-17 3 -27.5 16.5t-10.5 34.5q0 16 6 31t16.5 26.5t25.5 18.5t33 7q33 0 48.5 -22.5t15.5 -51.5q0 -30 -12.5 -59.5t-33.5 -56t-48.5 -48t-58.5 -35.5zM120 516q29 18 48 40.5t27 49.5q-18 3 -28.5 16.5t-10.5 33.5q0 16 6 31t16.5 27
t26 19t33.5 7q33 0 48.5 -22.5t15.5 -51.5q0 -30 -12.5 -60t-33.5 -56t-49 -48t-59 -35z" />
    <glyph glyph-name="quotedblbase" unicode="&#x201e;" horiz-adv-x="473" 
d="M2 -95q28 18 47.5 40.5t27.5 49.5q-40 4 -40 47q0 34 22.5 60t60.5 26q33 0 48 -21.5t15 -51.5t-12 -59.5t-33 -56t-49 -48.5t-59 -36zM202 -95q28 18 47 40.5t27 49.5q-39 3 -39 46q0 34 22 60.5t60 26.5q33 0 48.5 -22t15.5 -51q0 -30 -12.5 -60t-33.5 -56.5t-48.5 -48
t-58.5 -35.5z" />
    <glyph glyph-name="dagger" unicode="&#x2020;" horiz-adv-x="471" 
d="M318 379l-109 -559h-98l109 559h-165l16 83h165l45 234h99l-46 -234h166l-16 -83h-166z" />
    <glyph glyph-name="daggerdbl" unicode="&#x2021;" horiz-adv-x="481" 
d="M224 379h-169l16 83h169l45 234h100l-45 -234h169l-16 -83h-169l-34 -175h169l-17 -82h-168l-59 -302h-100l59 302h-168l15 82h169z" />
    <glyph glyph-name="bullet" unicode="&#x2022;" horiz-adv-x="431" 
d="M87 280q2 29 14.5 54.5t33 44.5t47 30t55.5 11t53.5 -11t42.5 -30t27 -44.5t7 -54.5t-15 -54.5t-33.5 -44.5t-47 -30t-55.5 -11t-53.5 11t-42 30t-26.5 44.5t-7 54.5z" />
    <glyph glyph-name="trianglebullet" unicode="&#x2023;" horiz-adv-x="532" 
d="M497 280l-416 -234v457z" />
    <glyph glyph-name="ellipsis" unicode="&#x2026;" horiz-adv-x="839" 
d="M93 -6q-26 0 -41 15.5t-15 39.5q0 15 6 30t17 27t26 19t33 7q28 0 43 -15.5t15 -38.5q0 -34 -24 -59t-60 -25zM378 -6q-27 0 -42 15.5t-15 39.5q0 15 6 30t17 27t26 19t33 7q28 0 43.5 -16t15.5 -39q0 -17 -6.5 -32t-18 -26t-27 -18t-32.5 -7zM659 -6q-26 0 -41.5 15.5
t-15.5 39.5q0 15 6.5 30t17.5 27t26 19t32 7q28 0 43.5 -16t15.5 -39q0 -17 -6.5 -32t-18 -26t-27 -18t-32.5 -7z" />
    <glyph glyph-name="perthousand" unicode="&#x2030;" horiz-adv-x="1153" 
d="M761 110q-11 -56 -50 -84.5t-99 -28.5q-24 0 -48 7t-43.5 21t-31.5 35t-12 50q0 6 0.5 12t1.5 12l31 164q11 55 44.5 87.5t102.5 32.5q60 0 97 -33.5t37 -84.5v-12t-2 -12zM709 280q1 4 1 12q0 24 -16.5 38t-39.5 14q-20 0 -38.5 -12.5t-23.5 -41.5l-29 -157
q-1 -4 -1 -7.5v-6.5q0 -28 18.5 -38.5t36.5 -10.5q20 0 39.5 12t24.5 41zM364 386q-11 -56 -50 -84.5t-99 -28.5q-24 0 -48 7t-43.5 21.5t-31.5 35.5t-12 50q0 6 0.5 12t1.5 12l31 163q11 56 44.5 88.5t102.5 32.5q61 0 97.5 -34t36.5 -85q0 -6 -0.5 -11.5t-1.5 -11.5z
M312 557q1 4 1 12q0 24 -16.5 37.5t-39.5 13.5q-20 0 -38.5 -12t-23.5 -41l-29 -157q-1 -4 -1 -7.5v-6.5q0 -28 18.5 -38.5t36.5 -10.5q20 0 39 11.5t25 40.5zM193 -17h-78l567 730h79zM1090 110q-11 -56 -50 -84.5t-99 -28.5q-24 0 -48 7t-43.5 21t-31.5 35t-12 50
q0 6 0.5 12t1.5 12l31 164q11 55 44.5 87.5t102.5 32.5q60 0 97 -33.5t37 -84.5v-12t-2 -12zM1038 280q1 4 1 12q0 24 -16.5 38t-39.5 14q-20 0 -38.5 -12.5t-23.5 -41.5l-29 -157q-1 -4 -1 -7.5v-6.5q0 -28 18.5 -38.5t36.5 -10.5q20 0 39.5 12t24.5 41z" />
    <glyph glyph-name="guilsinglleft" unicode="&#x2039;" horiz-adv-x="329" 
d="M120 34l-95 195l171 196h103l-175 -201l90 -190h-94z" />
    <glyph glyph-name="guilsinglright" unicode="&#x203a;" horiz-adv-x="329" 
d="M188 425l95 -196l-172 -195h-102l175 201l-90 190h94z" />
    <glyph glyph-name="fraction" unicode="&#x2044;" horiz-adv-x="160" 
d="M-159 -17h-78l567 730h79z" />
    <glyph glyph-name="fraction" unicode="&#x2215;" horiz-adv-x="160" 
d="M-159 -17h-78l567 730h79z" />
    <glyph glyph-name="zerosuperior" unicode="&#x2070;" horiz-adv-x="326" 
d="M360 476q-11 -56 -50 -84.5t-99 -28.5q-24 0 -48 7t-43.5 21.5t-31.5 35.5t-12 50q0 6 0.5 12t1.5 12l31 163q11 56 44.5 88.5t102.5 32.5q61 0 97.5 -34t36.5 -85q0 -6 -0.5 -11.5t-1.5 -11.5zM308 647q1 4 1 12q0 24 -16.5 37.5t-39.5 13.5q-20 0 -38.5 -12t-23.5 -41
l-29 -157q-1 -4 -1 -7.5v-6.5q0 -28 18.5 -38.5t36.5 -10.5q20 0 39 11.5t25 40.5z" />
    <glyph glyph-name="foursuperior" unicode="&#x2074;" horiz-adv-x="326" 
d="M330 426l-12 -59h-82l12 59h-190l12 61l203 293h88l-197 -284h97l24 113h80l-22 -113h38l-14 -70h-37z" />
    <glyph glyph-name="fivesuperior" unicode="&#x2075;" horiz-adv-x="326" 
d="M354 474q-8 -52 -50.5 -81.5t-104.5 -29.5q-42 0 -79 14.5t-60 35.5l54 59q40 -35 83 -35q67 0 76 50l9 48q4 21 -5.5 31t-26.5 10q-9 0 -21 -3t-24 -8t-23.5 -10.5t-18.5 -9.5l-64 28l40 208h261l-15 -72h-178l-16 -80q23 11 44 17.5t36 6.5q30 0 50 -8.5t31 -23.5
t14 -36t-1 -46z" />
    <glyph glyph-name="sixsuperior" unicode="&#x2076;" horiz-adv-x="326" 
d="M361 479q-10 -54 -52 -85t-106 -31q-24 0 -46.5 6.5t-40 19.5t-28 32.5t-10.5 46.5v12.5t2 13.5l33 175q11 56 56 86t102 30q43 0 75.5 -13t53.5 -34l-51 -60q-19 17 -40.5 25t-43.5 8t-44.5 -13.5t-27.5 -41.5l-8 -44q29 14 52 20.5t40 6.5q48 0 71.5 -24.5t23.5 -62.5
q0 -13 -3 -26zM285 522q1 4 1 11q0 17 -10 24.5t-25 7.5q-17 0 -36.5 -7.5t-42.5 -18.5l-10 -50q-1 -4 -1 -11q0 -23 16 -32t33 -9q24 0 44 12.5t25 39.5z" />
    <glyph glyph-name="sevensuperior" unicode="&#x2077;" horiz-adv-x="296" 
d="M172 367h-91q56 86 111 171t110 171h-107l-11 -59h-80q7 32 13 64.5t12 65.5h283l-12 -62z" />
    <glyph glyph-name="eightsuperior" unicode="&#x2078;" horiz-adv-x="326" 
d="M274 784q23 0 44.5 -6t38.5 -18.5t27 -32t10 -45.5q0 -38 -18.5 -65t-51.5 -39q21 -9 31 -30t10 -44q0 -35 -15 -61.5t-38.5 -44t-52.5 -26.5t-56 -9q-24 0 -47 6t-41 19t-29 32t-11 45q0 48 22 74t54 38q-20 8 -28.5 25t-8.5 38q0 36 14.5 63t37 45t51 27t57.5 9z
M263 709q-12 0 -23.5 -3.5t-21.5 -11t-16 -18t-6 -25.5q0 -19 14 -29.5t34 -10.5q24 0 45.5 16t21.5 42q0 20 -14 30t-34 10zM230 538q-26 0 -47.5 -15.5t-21.5 -44.5q0 -20 14 -30.5t35 -10.5q26 0 47.5 15t21.5 44q0 20 -13.5 31t-35.5 11z" />
    <glyph glyph-name="ninesuperior" unicode="&#x2079;" horiz-adv-x="325" 
d="M99 669q11 57 53 86.5t106 29.5q24 0 46 -6.5t39.5 -20t28 -33t10.5 -46.5q0 -12 -3 -25l-31 -175q-5 -27 -19.5 -48.5t-36 -36.5t-48 -22.5t-54.5 -7.5q-42 0 -75.5 12.5t-54.5 34.5l51 59q19 -17 39.5 -24.5t42.5 -7.5q26 0 46.5 13t26.5 42l9 44q-29 -14 -52 -20.5
t-40 -6.5q-48 0 -71 24.5t-23 62.5v13t2 13zM175 627q-1 -4 -1 -11q0 -17 10 -24.5t25 -7.5q17 0 36.5 7t42.5 18l9 50q1 4 1 11q0 23 -15.5 32t-32.5 9q-24 0 -44 -12t-25 -40z" />
    <glyph glyph-name="plussuperior" unicode="&#x207a;" horiz-adv-x="336" 
d="M259 513l-20 -110h-68l19 110h-121l11 62h122l20 108h68l-20 -108h122l-12 -62h-121z" />
    <glyph glyph-name="hyphensuperior" unicode="&#x207b;" horiz-adv-x="265" 
d="M80 491l13 70h211l-13 -70h-211z" />
    <glyph glyph-name="equalsuperior" unicode="&#x207c;" horiz-adv-x="336" 
d="M81 572l11 62h312l-11 -62h-312zM60 454l10 63h312l-11 -63h-311z" />
    <glyph glyph-name="parenleftsuperior" unicode="&#x207d;" horiz-adv-x="201" 
d="M169 290q-35 44 -59 97.5t-24 113.5q0 46 15 89t40.5 82t58 73.5t67.5 64.5l46 -29q-35 -33 -61.5 -69t-44.5 -72.5t-27 -72t-9 -66.5q0 -48 13.5 -93t38.5 -84z" />
    <glyph glyph-name="parenrightsuperior" unicode="&#x207e;" horiz-adv-x="197" 
d="M29 324q64 63 102 137t38 145q0 45 -13.5 90.5t-39.5 84.5l56 29q35 -42 58.5 -95t23.5 -114q0 -44 -15.5 -87t-41 -82.5t-59 -75t-69.5 -65.5l-40 33v0z" />
    <glyph glyph-name="nsuperior" unicode="&#x207f;" horiz-adv-x="354" 
d="M264 277l39 204q5 28 -6.5 40t-31.5 12q-35 0 -92 -33l-42 -223h-81l61 326h74v-25q41 20 66 25t41 5q55 0 79 -33.5t15 -85.5l-39 -212h-83z" />
    <glyph glyph-name="zeroinferior" unicode="&#x2080;" horiz-adv-x="326" 
d="M280 20q-11 -56 -50 -84.5t-99 -28.5q-24 0 -48 7t-43.5 21t-31.5 35t-12 50q0 6 0.5 12t1.5 12l31 164q11 55 44.5 87.5t102.5 32.5q60 0 97 -33.5t37 -84.5v-12t-2 -12zM228 190q1 4 1 12q0 24 -16.5 38t-39.5 14q-20 0 -38.5 -12.5t-23.5 -41.5l-29 -157
q-1 -4 -1 -7.5v-6.5q0 -28 18.5 -38.5t36.5 -10.5q20 0 39.5 12t24.5 41z" />
    <glyph glyph-name="oneinferior" unicode="&#x2081;" horiz-adv-x="285" 
d="M77 -90l61 312l-52 -34l-35 57l115 78h73l-80 -413h-82z" />
    <glyph glyph-name="twoinferior" unicode="&#x2082;" horiz-adv-x="326" 
d="M181 328q24 0 47 -4.5t41.5 -16t29.5 -30.5t11 -48q0 -28 -12 -50t-31.5 -40.5t-43 -34t-46.5 -30.5q-15 -10 -32 -20t-32 -21.5t-26.5 -24.5t-17.5 -28h198q-4 -18 -7 -35.5t-6 -34.5h-284q2 14 4.5 29t5.5 30q6 35 27 61.5t48 47t57 37.5t55 32.5t41.5 32t16.5 36.5
t-18 29t-41 9t-47 -8.5t-47 -23.5l-33 62q30 21 66.5 32.5t75.5 11.5z" />
    </font>
</defs>
</svg>
